<?xml version="1.0" encoding="UTF-8" standalone="no"?>
<!-- Created with Inkscape (http://www.inkscape.org/) -->

<svg
   width="170mm"
   height="170mm"
   viewBox="0 0 170 170"
   version="1.1"
   id="svg1"
   inkscape:version="1.3.2 (091e20e, 2023-11-25)"
   sodipodi:docname="sun-outline-export.svg"
   xmlns:inkscape="http://www.inkscape.org/namespaces/inkscape"
   xmlns:sodipodi="http://sodipodi.sourceforge.net/DTD/sodipodi-0.dtd"
   xmlns:xlink="http://www.w3.org/1999/xlink"
   xmlns="http://www.w3.org/2000/svg"
   xmlns:svg="http://www.w3.org/2000/svg">
  <sodipodi:namedview
     id="namedview1"
     pagecolor="#505050"
     bordercolor="#eeeeee"
     borderopacity="1"
     inkscape:showpageshadow="0"
     inkscape:pageopacity="0"
     inkscape:pagecheckerboard="0"
     inkscape:deskcolor="#505050"
     inkscape:document-units="mm"
     inkscape:zoom="1"
     inkscape:cx="283.5"
     inkscape:cy="333"
     inkscape:window-width="1920"
     inkscape:window-height="1035"
     inkscape:window-x="1280"
     inkscape:window-y="23"
     inkscape:window-maximized="0"
     inkscape:current-layer="layer1" />
  <defs
     id="defs1">
    <linearGradient
       id="linearGradient17"
       inkscape:collect="always">
      <stop
         style="stop-color:#000000;stop-opacity:1;"
         offset="0"
         id="stop17" />
      <stop
         style="stop-color:#000000;stop-opacity:0;"
         offset="1"
         id="stop18" />
    </linearGradient>
    <rect
       x="-48.317919"
       y="635.56647"
       width="399.55202"
       height="152.38728"
       id="rect16" />
    <rect
       x="131.40742"
       y="579.5067"
       width="612.35855"
       height="131.40742"
       id="rect15" />
    <linearGradient
       inkscape:collect="always"
       xlink:href="#linearGradient17"
       id="linearGradient18"
       x1="102.33336"
       y1="190.25208"
       x2="175.54741"
       y2="190.25208"
       gradientUnits="userSpaceOnUse" />
  </defs>
  <g
     inkscape:label="Layer 1"
     inkscape:groupmode="layer"
     id="layer1"
     transform="translate(-30.248352,-75.447014)">
    <path
       id="path1"
       style="fill:none;stroke:#000000;stroke-width:4.99999"
       d="M 115.24833 79.881369 A 80.565628 80.565628 0 0 0 37.685624 138.94701 L 192.81104 138.94701 A 80.565628 80.565628 0 0 0 115.24833 79.881369 z M 35.306441 151.72918 A 80.565628 80.565628 0 0 0 34.682707 160.44699 A 80.565628 80.565628 0 0 0 35.209806 168.28838 L 195.28686 168.28838 A 80.565628 80.565628 0 0 0 195.81396 160.44699 A 80.565628 80.565628 0 0 0 195.19022 151.72918 L 35.306441 151.72918 z M 37.597257 181.07054 A 80.565628 80.565628 0 0 0 44.071281 197.62974 L 186.42538 197.62974 A 80.565628 80.565628 0 0 0 192.89941 181.07054 L 37.597257 181.07054 z M 52.307987 210.4119 A 80.565628 80.565628 0 0 0 70.018534 226.9711 L 160.47813 226.9711 A 80.565628 80.565628 0 0 0 178.18868 210.4119 L 52.307987 210.4119 z " />
  </g>
</svg>
