G04 #@! TF.GenerationSoftware,KiCad,Pcbnew,6.0.11*
G04 #@! TF.CreationDate,2024-07-27T16:02:48-05:00*
G04 #@! TF.ProjectId,minidexed,6d696e69-6465-4786-9564-2e6b69636164,rev?*
G04 #@! TF.SameCoordinates,Original*
G04 #@! TF.FileFunction,Legend,Bot*
G04 #@! TF.FilePolarity,Positive*
%FSLAX46Y46*%
G04 Gerber Fmt 4.6, Leading zero omitted, Abs format (unit mm)*
G04 Created by KiCad (PCBNEW 6.0.11) date 2024-07-27 16:02:48*
%MOMM*%
%LPD*%
G01*
G04 APERTURE LIST*
G04 Aperture macros list*
%AMRoundRect*
0 Rectangle with rounded corners*
0 $1 Rounding radius*
0 $2 $3 $4 $5 $6 $7 $8 $9 X,Y pos of 4 corners*
0 Add a 4 corners polygon primitive as box body*
4,1,4,$2,$3,$4,$5,$6,$7,$8,$9,$2,$3,0*
0 Add four circle primitives for the rounded corners*
1,1,$1+$1,$2,$3*
1,1,$1+$1,$4,$5*
1,1,$1+$1,$6,$7*
1,1,$1+$1,$8,$9*
0 Add four rect primitives between the rounded corners*
20,1,$1+$1,$2,$3,$4,$5,0*
20,1,$1+$1,$4,$5,$6,$7,0*
20,1,$1+$1,$6,$7,$8,$9,0*
20,1,$1+$1,$8,$9,$2,$3,0*%
G04 Aperture macros list end*
%ADD10C,0.150000*%
%ADD11C,0.300000*%
%ADD12C,0.250000*%
%ADD13C,0.120000*%
%ADD14C,2.800000*%
%ADD15C,1.800000*%
%ADD16C,4.100000*%
%ADD17C,2.300000*%
%ADD18C,3.100000*%
%ADD19RoundRect,0.050000X-0.900000X-1.300000X0.900000X-1.300000X0.900000X1.300000X-0.900000X1.300000X0*%
%ADD20O,1.900000X2.700000*%
%ADD21RoundRect,0.050000X1.000000X1.000000X-1.000000X1.000000X-1.000000X-1.000000X1.000000X-1.000000X0*%
%ADD22C,2.100000*%
%ADD23RoundRect,0.050000X1.750000X1.250000X-1.750000X1.250000X-1.750000X-1.250000X1.750000X-1.250000X0*%
%ADD24RoundRect,0.050000X1.750000X1.400000X-1.750000X1.400000X-1.750000X-1.400000X1.750000X-1.400000X0*%
%ADD25RoundRect,0.050000X0.850000X0.850000X-0.850000X0.850000X-0.850000X-0.850000X0.850000X-0.850000X0*%
%ADD26O,1.800000X1.800000*%
%ADD27RoundRect,0.150000X-0.100000X0.637500X-0.100000X-0.637500X0.100000X-0.637500X0.100000X0.637500X0*%
%ADD28C,1.100000*%
%ADD29RoundRect,0.300000X0.337500X0.475000X-0.337500X0.475000X-0.337500X-0.475000X0.337500X-0.475000X0*%
%ADD30RoundRect,0.300000X0.475000X-0.337500X0.475000X0.337500X-0.475000X0.337500X-0.475000X-0.337500X0*%
%ADD31RoundRect,0.300000X0.625000X-0.400000X0.625000X0.400000X-0.625000X0.400000X-0.625000X-0.400000X0*%
%ADD32RoundRect,0.300000X-0.625000X0.400000X-0.625000X-0.400000X0.625000X-0.400000X0.625000X0.400000X0*%
%ADD33RoundRect,0.300000X-0.475000X0.337500X-0.475000X-0.337500X0.475000X-0.337500X0.475000X0.337500X0*%
%ADD34RoundRect,0.300000X-0.400000X-0.625000X0.400000X-0.625000X0.400000X0.625000X-0.400000X0.625000X0*%
%ADD35RoundRect,0.050000X-0.850000X0.850000X-0.850000X-0.850000X0.850000X-0.850000X0.850000X0.850000X0*%
%ADD36RoundRect,0.200000X-0.512500X-0.150000X0.512500X-0.150000X0.512500X0.150000X-0.512500X0.150000X0*%
%ADD37RoundRect,0.431000X-0.381000X0.762000X-0.381000X-0.762000X0.381000X-0.762000X0.381000X0.762000X0*%
%ADD38RoundRect,0.050000X0.225000X-0.300000X0.225000X0.300000X-0.225000X0.300000X-0.225000X-0.300000X0*%
%ADD39RoundRect,0.150000X-0.637500X-0.100000X0.637500X-0.100000X0.637500X0.100000X-0.637500X0.100000X0*%
G04 APERTURE END LIST*
D10*
X155023607Y-83300000D02*
G75*
G03*
X155023607Y-83300000I-223607J0D01*
G01*
X145223607Y-86100000D02*
G75*
G03*
X145223607Y-86100000I-223607J0D01*
G01*
X121660907Y-88877000D02*
G75*
G03*
X121660907Y-88877000I-223607J0D01*
G01*
D11*
X220740474Y-117197618D02*
X219597617Y-117197618D01*
X220169045Y-119197618D02*
X220169045Y-117197618D01*
X218930950Y-119197618D02*
X218930950Y-117864285D01*
X218930950Y-118245237D02*
X218835712Y-118054761D01*
X218740474Y-117959523D01*
X218549998Y-117864285D01*
X218359522Y-117864285D01*
X216835712Y-117864285D02*
X216835712Y-119197618D01*
X217692855Y-117864285D02*
X217692855Y-118911904D01*
X217597617Y-119102380D01*
X217407141Y-119197618D01*
X217121426Y-119197618D01*
X216930950Y-119102380D01*
X216835712Y-119007142D01*
X215978569Y-119102380D02*
X215788093Y-119197618D01*
X215407141Y-119197618D01*
X215216664Y-119102380D01*
X215121426Y-118911904D01*
X215121426Y-118816666D01*
X215216664Y-118626190D01*
X215407141Y-118530952D01*
X215692855Y-118530952D01*
X215883331Y-118435714D01*
X215978569Y-118245237D01*
X215978569Y-118149999D01*
X215883331Y-117959523D01*
X215692855Y-117864285D01*
X215407141Y-117864285D01*
X215216664Y-117959523D01*
X214549998Y-117864285D02*
X213788093Y-117864285D01*
X214264284Y-117197618D02*
X214264284Y-118911904D01*
X214169045Y-119102380D01*
X213978569Y-119197618D01*
X213788093Y-119197618D01*
X211883331Y-117864285D02*
X211121426Y-117864285D01*
X211597617Y-117197618D02*
X211597617Y-118911904D01*
X211502379Y-119102380D01*
X211311903Y-119197618D01*
X211121426Y-119197618D01*
X210454760Y-119197618D02*
X210454760Y-117197618D01*
X209597617Y-119197618D02*
X209597617Y-118149999D01*
X209692855Y-117959523D01*
X209883331Y-117864285D01*
X210169045Y-117864285D01*
X210359522Y-117959523D01*
X210454760Y-118054761D01*
X207883331Y-119102380D02*
X208073807Y-119197618D01*
X208454760Y-119197618D01*
X208645236Y-119102380D01*
X208740474Y-118911904D01*
X208740474Y-118149999D01*
X208645236Y-117959523D01*
X208454760Y-117864285D01*
X208073807Y-117864285D01*
X207883331Y-117959523D01*
X207788093Y-118149999D01*
X207788093Y-118340476D01*
X208740474Y-118530952D01*
X204549998Y-119197618D02*
X204549998Y-118149999D01*
X204645236Y-117959523D01*
X204835712Y-117864285D01*
X205216664Y-117864285D01*
X205407141Y-117959523D01*
X204549998Y-119102380D02*
X204740474Y-119197618D01*
X205216664Y-119197618D01*
X205407141Y-119102380D01*
X205502379Y-118911904D01*
X205502379Y-118721428D01*
X205407141Y-118530952D01*
X205216664Y-118435714D01*
X204740474Y-118435714D01*
X204549998Y-118340476D01*
X203311903Y-119197618D02*
X203502379Y-119102380D01*
X203597617Y-118911904D01*
X203597617Y-117197618D01*
X201692855Y-117864285D02*
X201692855Y-119483333D01*
X201788093Y-119673809D01*
X201883331Y-119769047D01*
X202073807Y-119864285D01*
X202359522Y-119864285D01*
X202549998Y-119769047D01*
X201692855Y-119102380D02*
X201883331Y-119197618D01*
X202264284Y-119197618D01*
X202454760Y-119102380D01*
X202549998Y-119007142D01*
X202645236Y-118816666D01*
X202645236Y-118245237D01*
X202549998Y-118054761D01*
X202454760Y-117959523D01*
X202264284Y-117864285D01*
X201883331Y-117864285D01*
X201692855Y-117959523D01*
X200454760Y-119197618D02*
X200645236Y-119102380D01*
X200740474Y-119007142D01*
X200835712Y-118816666D01*
X200835712Y-118245237D01*
X200740474Y-118054761D01*
X200645236Y-117959523D01*
X200454760Y-117864285D01*
X200169045Y-117864285D01*
X199978569Y-117959523D01*
X199883331Y-118054761D01*
X199788093Y-118245237D01*
X199788093Y-118816666D01*
X199883331Y-119007142D01*
X199978569Y-119102380D01*
X200169045Y-119197618D01*
X200454760Y-119197618D01*
X198930950Y-119197618D02*
X198930950Y-117864285D01*
X198930950Y-118245237D02*
X198835712Y-118054761D01*
X198740474Y-117959523D01*
X198549998Y-117864285D01*
X198359522Y-117864285D01*
X197692855Y-119197618D02*
X197692855Y-117864285D01*
X197692855Y-117197618D02*
X197788093Y-117292857D01*
X197692855Y-117388095D01*
X197597617Y-117292857D01*
X197692855Y-117197618D01*
X197692855Y-117388095D01*
X197026188Y-117864285D02*
X196264284Y-117864285D01*
X196740474Y-117197618D02*
X196740474Y-118911904D01*
X196645236Y-119102380D01*
X196454760Y-119197618D01*
X196264284Y-119197618D01*
X195597617Y-119197618D02*
X195597617Y-117197618D01*
X194740474Y-119197618D02*
X194740474Y-118149999D01*
X194835712Y-117959523D01*
X195026188Y-117864285D01*
X195311903Y-117864285D01*
X195502379Y-117959523D01*
X195597617Y-118054761D01*
X193788093Y-119197618D02*
X193788093Y-117864285D01*
X193788093Y-118054761D02*
X193692855Y-117959523D01*
X193502379Y-117864285D01*
X193216664Y-117864285D01*
X193026188Y-117959523D01*
X192930950Y-118149999D01*
X192930950Y-119197618D01*
X192930950Y-118149999D02*
X192835712Y-117959523D01*
X192645236Y-117864285D01*
X192359522Y-117864285D01*
X192169045Y-117959523D01*
X192073807Y-118149999D01*
X192073807Y-119197618D01*
X205826190Y-136804760D02*
X204683333Y-136804760D01*
X205254761Y-138804760D02*
X205254761Y-136804760D01*
X204016666Y-138804760D02*
X204016666Y-137471427D01*
X204016666Y-137852379D02*
X203921428Y-137661903D01*
X203826190Y-137566665D01*
X203635714Y-137471427D01*
X203445238Y-137471427D01*
X201921428Y-137471427D02*
X201921428Y-138804760D01*
X202778571Y-137471427D02*
X202778571Y-138519046D01*
X202683333Y-138709522D01*
X202492857Y-138804760D01*
X202207142Y-138804760D01*
X202016666Y-138709522D01*
X201921428Y-138614284D01*
X201064285Y-138709522D02*
X200873809Y-138804760D01*
X200492857Y-138804760D01*
X200302380Y-138709522D01*
X200207142Y-138519046D01*
X200207142Y-138423808D01*
X200302380Y-138233332D01*
X200492857Y-138138094D01*
X200778571Y-138138094D01*
X200969047Y-138042856D01*
X201064285Y-137852379D01*
X201064285Y-137757141D01*
X200969047Y-137566665D01*
X200778571Y-137471427D01*
X200492857Y-137471427D01*
X200302380Y-137566665D01*
X199635714Y-137471427D02*
X198873809Y-137471427D01*
X199350000Y-136804760D02*
X199350000Y-138519046D01*
X199254761Y-138709522D01*
X199064285Y-138804760D01*
X198873809Y-138804760D01*
X196969047Y-137471427D02*
X196207142Y-137471427D01*
X196683333Y-136804760D02*
X196683333Y-138519046D01*
X196588095Y-138709522D01*
X196397619Y-138804760D01*
X196207142Y-138804760D01*
X195540476Y-138804760D02*
X195540476Y-136804760D01*
X194683333Y-138804760D02*
X194683333Y-137757141D01*
X194778571Y-137566665D01*
X194969047Y-137471427D01*
X195254761Y-137471427D01*
X195445238Y-137566665D01*
X195540476Y-137661903D01*
X192969047Y-138709522D02*
X193159523Y-138804760D01*
X193540476Y-138804760D01*
X193730952Y-138709522D01*
X193826190Y-138519046D01*
X193826190Y-137757141D01*
X193730952Y-137566665D01*
X193540476Y-137471427D01*
X193159523Y-137471427D01*
X192969047Y-137566665D01*
X192873809Y-137757141D01*
X192873809Y-137947618D01*
X193826190Y-138138094D01*
X189635714Y-138804760D02*
X189635714Y-137757141D01*
X189730952Y-137566665D01*
X189921428Y-137471427D01*
X190302380Y-137471427D01*
X190492857Y-137566665D01*
X189635714Y-138709522D02*
X189826190Y-138804760D01*
X190302380Y-138804760D01*
X190492857Y-138709522D01*
X190588095Y-138519046D01*
X190588095Y-138328570D01*
X190492857Y-138138094D01*
X190302380Y-138042856D01*
X189826190Y-138042856D01*
X189635714Y-137947618D01*
X188397619Y-138804760D02*
X188588095Y-138709522D01*
X188683333Y-138519046D01*
X188683333Y-136804760D01*
X186778571Y-137471427D02*
X186778571Y-139090475D01*
X186873809Y-139280951D01*
X186969047Y-139376189D01*
X187159523Y-139471427D01*
X187445238Y-139471427D01*
X187635714Y-139376189D01*
X186778571Y-138709522D02*
X186969047Y-138804760D01*
X187350000Y-138804760D01*
X187540476Y-138709522D01*
X187635714Y-138614284D01*
X187730952Y-138423808D01*
X187730952Y-137852379D01*
X187635714Y-137661903D01*
X187540476Y-137566665D01*
X187350000Y-137471427D01*
X186969047Y-137471427D01*
X186778571Y-137566665D01*
X185540476Y-138804760D02*
X185730952Y-138709522D01*
X185826190Y-138614284D01*
X185921428Y-138423808D01*
X185921428Y-137852379D01*
X185826190Y-137661903D01*
X185730952Y-137566665D01*
X185540476Y-137471427D01*
X185254761Y-137471427D01*
X185064285Y-137566665D01*
X184969047Y-137661903D01*
X184873809Y-137852379D01*
X184873809Y-138423808D01*
X184969047Y-138614284D01*
X185064285Y-138709522D01*
X185254761Y-138804760D01*
X185540476Y-138804760D01*
X184016666Y-138804760D02*
X184016666Y-137471427D01*
X184016666Y-137852379D02*
X183921428Y-137661903D01*
X183826190Y-137566665D01*
X183635714Y-137471427D01*
X183445238Y-137471427D01*
X182778571Y-138804760D02*
X182778571Y-137471427D01*
X182778571Y-136804760D02*
X182873809Y-136899999D01*
X182778571Y-136995237D01*
X182683333Y-136899999D01*
X182778571Y-136804760D01*
X182778571Y-136995237D01*
X182111904Y-137471427D02*
X181350000Y-137471427D01*
X181826190Y-136804760D02*
X181826190Y-138519046D01*
X181730952Y-138709522D01*
X181540476Y-138804760D01*
X181350000Y-138804760D01*
X180683333Y-138804760D02*
X180683333Y-136804760D01*
X179826190Y-138804760D02*
X179826190Y-137757141D01*
X179921428Y-137566665D01*
X180111904Y-137471427D01*
X180397619Y-137471427D01*
X180588095Y-137566665D01*
X180683333Y-137661903D01*
X178873809Y-138804760D02*
X178873809Y-137471427D01*
X178873809Y-137661903D02*
X178778571Y-137566665D01*
X178588095Y-137471427D01*
X178302380Y-137471427D01*
X178111904Y-137566665D01*
X178016666Y-137757141D01*
X178016666Y-138804760D01*
X178016666Y-137757141D02*
X177921428Y-137566665D01*
X177730952Y-137471427D01*
X177445238Y-137471427D01*
X177254761Y-137566665D01*
X177159523Y-137757141D01*
X177159523Y-138804760D01*
D12*
X124450000Y-59478571D02*
X123592857Y-59478571D01*
X124021428Y-60978571D02*
X124021428Y-59478571D01*
X123092857Y-60978571D02*
X123092857Y-59478571D01*
X122450000Y-60978571D02*
X122450000Y-60192857D01*
X122521428Y-60050000D01*
X122664285Y-59978571D01*
X122878571Y-59978571D01*
X123021428Y-60050000D01*
X123092857Y-60121428D01*
X121735714Y-60978571D02*
X121735714Y-59978571D01*
X121735714Y-60264285D02*
X121664285Y-60121428D01*
X121592857Y-60050000D01*
X121450000Y-59978571D01*
X121307142Y-59978571D01*
X120164285Y-59978571D02*
X120164285Y-60978571D01*
X120807142Y-59978571D02*
X120807142Y-60764285D01*
X120735714Y-60907142D01*
X120592857Y-60978571D01*
X120378571Y-60978571D01*
X120235714Y-60907142D01*
X120164285Y-60835714D01*
D11*
X213283332Y-127001189D02*
X212140475Y-127001189D01*
X212711903Y-129001189D02*
X212711903Y-127001189D01*
X211473808Y-129001189D02*
X211473808Y-127667856D01*
X211473808Y-128048808D02*
X211378570Y-127858332D01*
X211283332Y-127763094D01*
X211092856Y-127667856D01*
X210902380Y-127667856D01*
X209378570Y-127667856D02*
X209378570Y-129001189D01*
X210235713Y-127667856D02*
X210235713Y-128715475D01*
X210140475Y-128905951D01*
X209949999Y-129001189D01*
X209664284Y-129001189D01*
X209473808Y-128905951D01*
X209378570Y-128810713D01*
X208521427Y-128905951D02*
X208330951Y-129001189D01*
X207949999Y-129001189D01*
X207759522Y-128905951D01*
X207664284Y-128715475D01*
X207664284Y-128620237D01*
X207759522Y-128429761D01*
X207949999Y-128334523D01*
X208235713Y-128334523D01*
X208426189Y-128239285D01*
X208521427Y-128048808D01*
X208521427Y-127953570D01*
X208426189Y-127763094D01*
X208235713Y-127667856D01*
X207949999Y-127667856D01*
X207759522Y-127763094D01*
X207092856Y-127667856D02*
X206330951Y-127667856D01*
X206807142Y-127001189D02*
X206807142Y-128715475D01*
X206711903Y-128905951D01*
X206521427Y-129001189D01*
X206330951Y-129001189D01*
X204426189Y-127667856D02*
X203664284Y-127667856D01*
X204140475Y-127001189D02*
X204140475Y-128715475D01*
X204045237Y-128905951D01*
X203854761Y-129001189D01*
X203664284Y-129001189D01*
X202997618Y-129001189D02*
X202997618Y-127001189D01*
X202140475Y-129001189D02*
X202140475Y-127953570D01*
X202235713Y-127763094D01*
X202426189Y-127667856D01*
X202711903Y-127667856D01*
X202902380Y-127763094D01*
X202997618Y-127858332D01*
X200426189Y-128905951D02*
X200616665Y-129001189D01*
X200997618Y-129001189D01*
X201188094Y-128905951D01*
X201283332Y-128715475D01*
X201283332Y-127953570D01*
X201188094Y-127763094D01*
X200997618Y-127667856D01*
X200616665Y-127667856D01*
X200426189Y-127763094D01*
X200330951Y-127953570D01*
X200330951Y-128144047D01*
X201283332Y-128334523D01*
X197092856Y-129001189D02*
X197092856Y-127953570D01*
X197188094Y-127763094D01*
X197378570Y-127667856D01*
X197759522Y-127667856D01*
X197949999Y-127763094D01*
X197092856Y-128905951D02*
X197283332Y-129001189D01*
X197759522Y-129001189D01*
X197949999Y-128905951D01*
X198045237Y-128715475D01*
X198045237Y-128524999D01*
X197949999Y-128334523D01*
X197759522Y-128239285D01*
X197283332Y-128239285D01*
X197092856Y-128144047D01*
X195854761Y-129001189D02*
X196045237Y-128905951D01*
X196140475Y-128715475D01*
X196140475Y-127001189D01*
X194235713Y-127667856D02*
X194235713Y-129286904D01*
X194330951Y-129477380D01*
X194426189Y-129572618D01*
X194616665Y-129667856D01*
X194902380Y-129667856D01*
X195092856Y-129572618D01*
X194235713Y-128905951D02*
X194426189Y-129001189D01*
X194807142Y-129001189D01*
X194997618Y-128905951D01*
X195092856Y-128810713D01*
X195188094Y-128620237D01*
X195188094Y-128048808D01*
X195092856Y-127858332D01*
X194997618Y-127763094D01*
X194807142Y-127667856D01*
X194426189Y-127667856D01*
X194235713Y-127763094D01*
X192997618Y-129001189D02*
X193188094Y-128905951D01*
X193283332Y-128810713D01*
X193378570Y-128620237D01*
X193378570Y-128048808D01*
X193283332Y-127858332D01*
X193188094Y-127763094D01*
X192997618Y-127667856D01*
X192711903Y-127667856D01*
X192521427Y-127763094D01*
X192426189Y-127858332D01*
X192330951Y-128048808D01*
X192330951Y-128620237D01*
X192426189Y-128810713D01*
X192521427Y-128905951D01*
X192711903Y-129001189D01*
X192997618Y-129001189D01*
X191473808Y-129001189D02*
X191473808Y-127667856D01*
X191473808Y-128048808D02*
X191378570Y-127858332D01*
X191283332Y-127763094D01*
X191092856Y-127667856D01*
X190902380Y-127667856D01*
X190235713Y-129001189D02*
X190235713Y-127667856D01*
X190235713Y-127001189D02*
X190330951Y-127096428D01*
X190235713Y-127191666D01*
X190140475Y-127096428D01*
X190235713Y-127001189D01*
X190235713Y-127191666D01*
X189569046Y-127667856D02*
X188807142Y-127667856D01*
X189283332Y-127001189D02*
X189283332Y-128715475D01*
X189188094Y-128905951D01*
X188997618Y-129001189D01*
X188807142Y-129001189D01*
X188140475Y-129001189D02*
X188140475Y-127001189D01*
X187283332Y-129001189D02*
X187283332Y-127953570D01*
X187378570Y-127763094D01*
X187569046Y-127667856D01*
X187854761Y-127667856D01*
X188045237Y-127763094D01*
X188140475Y-127858332D01*
X186330951Y-129001189D02*
X186330951Y-127667856D01*
X186330951Y-127858332D02*
X186235713Y-127763094D01*
X186045237Y-127667856D01*
X185759522Y-127667856D01*
X185569046Y-127763094D01*
X185473808Y-127953570D01*
X185473808Y-129001189D01*
X185473808Y-127953570D02*
X185378570Y-127763094D01*
X185188094Y-127667856D01*
X184902380Y-127667856D01*
X184711903Y-127763094D01*
X184616665Y-127953570D01*
X184616665Y-129001189D01*
D12*
X108778571Y-60978571D02*
X108778571Y-59478571D01*
X108064285Y-59978571D02*
X108064285Y-60978571D01*
X108064285Y-60121428D02*
X107992857Y-60050000D01*
X107850000Y-59978571D01*
X107635714Y-59978571D01*
X107492857Y-60050000D01*
X107421428Y-60192857D01*
X107421428Y-60978571D01*
D11*
X218254760Y-120465475D02*
X217111903Y-120465475D01*
X217683331Y-122465475D02*
X217683331Y-120465475D01*
X216445236Y-122465475D02*
X216445236Y-121132142D01*
X216445236Y-121513094D02*
X216349998Y-121322618D01*
X216254760Y-121227380D01*
X216064284Y-121132142D01*
X215873808Y-121132142D01*
X214349998Y-121132142D02*
X214349998Y-122465475D01*
X215207141Y-121132142D02*
X215207141Y-122179761D01*
X215111903Y-122370237D01*
X214921427Y-122465475D01*
X214635712Y-122465475D01*
X214445236Y-122370237D01*
X214349998Y-122274999D01*
X213492855Y-122370237D02*
X213302379Y-122465475D01*
X212921427Y-122465475D01*
X212730950Y-122370237D01*
X212635712Y-122179761D01*
X212635712Y-122084523D01*
X212730950Y-121894047D01*
X212921427Y-121798809D01*
X213207141Y-121798809D01*
X213397617Y-121703571D01*
X213492855Y-121513094D01*
X213492855Y-121417856D01*
X213397617Y-121227380D01*
X213207141Y-121132142D01*
X212921427Y-121132142D01*
X212730950Y-121227380D01*
X212064284Y-121132142D02*
X211302379Y-121132142D01*
X211778570Y-120465475D02*
X211778570Y-122179761D01*
X211683331Y-122370237D01*
X211492855Y-122465475D01*
X211302379Y-122465475D01*
X209397617Y-121132142D02*
X208635712Y-121132142D01*
X209111903Y-120465475D02*
X209111903Y-122179761D01*
X209016665Y-122370237D01*
X208826189Y-122465475D01*
X208635712Y-122465475D01*
X207969046Y-122465475D02*
X207969046Y-120465475D01*
X207111903Y-122465475D02*
X207111903Y-121417856D01*
X207207141Y-121227380D01*
X207397617Y-121132142D01*
X207683331Y-121132142D01*
X207873808Y-121227380D01*
X207969046Y-121322618D01*
X205397617Y-122370237D02*
X205588093Y-122465475D01*
X205969046Y-122465475D01*
X206159522Y-122370237D01*
X206254760Y-122179761D01*
X206254760Y-121417856D01*
X206159522Y-121227380D01*
X205969046Y-121132142D01*
X205588093Y-121132142D01*
X205397617Y-121227380D01*
X205302379Y-121417856D01*
X205302379Y-121608333D01*
X206254760Y-121798809D01*
X202064284Y-122465475D02*
X202064284Y-121417856D01*
X202159522Y-121227380D01*
X202349998Y-121132142D01*
X202730950Y-121132142D01*
X202921427Y-121227380D01*
X202064284Y-122370237D02*
X202254760Y-122465475D01*
X202730950Y-122465475D01*
X202921427Y-122370237D01*
X203016665Y-122179761D01*
X203016665Y-121989285D01*
X202921427Y-121798809D01*
X202730950Y-121703571D01*
X202254760Y-121703571D01*
X202064284Y-121608333D01*
X200826189Y-122465475D02*
X201016665Y-122370237D01*
X201111903Y-122179761D01*
X201111903Y-120465475D01*
X199207141Y-121132142D02*
X199207141Y-122751190D01*
X199302379Y-122941666D01*
X199397617Y-123036904D01*
X199588093Y-123132142D01*
X199873808Y-123132142D01*
X200064284Y-123036904D01*
X199207141Y-122370237D02*
X199397617Y-122465475D01*
X199778570Y-122465475D01*
X199969046Y-122370237D01*
X200064284Y-122274999D01*
X200159522Y-122084523D01*
X200159522Y-121513094D01*
X200064284Y-121322618D01*
X199969046Y-121227380D01*
X199778570Y-121132142D01*
X199397617Y-121132142D01*
X199207141Y-121227380D01*
X197969046Y-122465475D02*
X198159522Y-122370237D01*
X198254760Y-122274999D01*
X198349998Y-122084523D01*
X198349998Y-121513094D01*
X198254760Y-121322618D01*
X198159522Y-121227380D01*
X197969046Y-121132142D01*
X197683331Y-121132142D01*
X197492855Y-121227380D01*
X197397617Y-121322618D01*
X197302379Y-121513094D01*
X197302379Y-122084523D01*
X197397617Y-122274999D01*
X197492855Y-122370237D01*
X197683331Y-122465475D01*
X197969046Y-122465475D01*
X196445236Y-122465475D02*
X196445236Y-121132142D01*
X196445236Y-121513094D02*
X196349998Y-121322618D01*
X196254760Y-121227380D01*
X196064284Y-121132142D01*
X195873808Y-121132142D01*
X195207141Y-122465475D02*
X195207141Y-121132142D01*
X195207141Y-120465475D02*
X195302379Y-120560714D01*
X195207141Y-120655952D01*
X195111903Y-120560714D01*
X195207141Y-120465475D01*
X195207141Y-120655952D01*
X194540474Y-121132142D02*
X193778570Y-121132142D01*
X194254760Y-120465475D02*
X194254760Y-122179761D01*
X194159522Y-122370237D01*
X193969046Y-122465475D01*
X193778570Y-122465475D01*
X193111903Y-122465475D02*
X193111903Y-120465475D01*
X192254760Y-122465475D02*
X192254760Y-121417856D01*
X192349998Y-121227380D01*
X192540474Y-121132142D01*
X192826189Y-121132142D01*
X193016665Y-121227380D01*
X193111903Y-121322618D01*
X191302379Y-122465475D02*
X191302379Y-121132142D01*
X191302379Y-121322618D02*
X191207141Y-121227380D01*
X191016665Y-121132142D01*
X190730950Y-121132142D01*
X190540474Y-121227380D01*
X190445236Y-121417856D01*
X190445236Y-122465475D01*
X190445236Y-121417856D02*
X190349998Y-121227380D01*
X190159522Y-121132142D01*
X189873808Y-121132142D01*
X189683331Y-121227380D01*
X189588093Y-121417856D01*
X189588093Y-122465475D01*
D12*
X156650000Y-60550000D02*
X155935714Y-60550000D01*
X156792857Y-60978571D02*
X156292857Y-59478571D01*
X155792857Y-60978571D01*
X154650000Y-59978571D02*
X154650000Y-60978571D01*
X155292857Y-59978571D02*
X155292857Y-60764285D01*
X155221428Y-60907142D01*
X155078571Y-60978571D01*
X154864285Y-60978571D01*
X154721428Y-60907142D01*
X154650000Y-60835714D01*
X153292857Y-60978571D02*
X153292857Y-59478571D01*
X153292857Y-60907142D02*
X153435714Y-60978571D01*
X153721428Y-60978571D01*
X153864285Y-60907142D01*
X153935714Y-60835714D01*
X154007142Y-60692857D01*
X154007142Y-60264285D01*
X153935714Y-60121428D01*
X153864285Y-60050000D01*
X153721428Y-59978571D01*
X153435714Y-59978571D01*
X153292857Y-60050000D01*
X152578571Y-60978571D02*
X152578571Y-59978571D01*
X152578571Y-59478571D02*
X152650000Y-59550000D01*
X152578571Y-59621428D01*
X152507142Y-59550000D01*
X152578571Y-59478571D01*
X152578571Y-59621428D01*
X151650000Y-60978571D02*
X151792857Y-60907142D01*
X151864285Y-60835714D01*
X151935714Y-60692857D01*
X151935714Y-60264285D01*
X151864285Y-60121428D01*
X151792857Y-60050000D01*
X151650000Y-59978571D01*
X151435714Y-59978571D01*
X151292857Y-60050000D01*
X151221428Y-60121428D01*
X151150000Y-60264285D01*
X151150000Y-60692857D01*
X151221428Y-60835714D01*
X151292857Y-60907142D01*
X151435714Y-60978571D01*
X151650000Y-60978571D01*
D11*
X208311904Y-133536903D02*
X207169047Y-133536903D01*
X207740475Y-135536903D02*
X207740475Y-133536903D01*
X206502380Y-135536903D02*
X206502380Y-134203570D01*
X206502380Y-134584522D02*
X206407142Y-134394046D01*
X206311904Y-134298808D01*
X206121428Y-134203570D01*
X205930952Y-134203570D01*
X204407142Y-134203570D02*
X204407142Y-135536903D01*
X205264285Y-134203570D02*
X205264285Y-135251189D01*
X205169047Y-135441665D01*
X204978571Y-135536903D01*
X204692856Y-135536903D01*
X204502380Y-135441665D01*
X204407142Y-135346427D01*
X203549999Y-135441665D02*
X203359523Y-135536903D01*
X202978571Y-135536903D01*
X202788094Y-135441665D01*
X202692856Y-135251189D01*
X202692856Y-135155951D01*
X202788094Y-134965475D01*
X202978571Y-134870237D01*
X203264285Y-134870237D01*
X203454761Y-134774999D01*
X203549999Y-134584522D01*
X203549999Y-134489284D01*
X203454761Y-134298808D01*
X203264285Y-134203570D01*
X202978571Y-134203570D01*
X202788094Y-134298808D01*
X202121428Y-134203570D02*
X201359523Y-134203570D01*
X201835714Y-133536903D02*
X201835714Y-135251189D01*
X201740475Y-135441665D01*
X201549999Y-135536903D01*
X201359523Y-135536903D01*
X199454761Y-134203570D02*
X198692856Y-134203570D01*
X199169047Y-133536903D02*
X199169047Y-135251189D01*
X199073809Y-135441665D01*
X198883333Y-135536903D01*
X198692856Y-135536903D01*
X198026190Y-135536903D02*
X198026190Y-133536903D01*
X197169047Y-135536903D02*
X197169047Y-134489284D01*
X197264285Y-134298808D01*
X197454761Y-134203570D01*
X197740475Y-134203570D01*
X197930952Y-134298808D01*
X198026190Y-134394046D01*
X195454761Y-135441665D02*
X195645237Y-135536903D01*
X196026190Y-135536903D01*
X196216666Y-135441665D01*
X196311904Y-135251189D01*
X196311904Y-134489284D01*
X196216666Y-134298808D01*
X196026190Y-134203570D01*
X195645237Y-134203570D01*
X195454761Y-134298808D01*
X195359523Y-134489284D01*
X195359523Y-134679761D01*
X196311904Y-134870237D01*
X192121428Y-135536903D02*
X192121428Y-134489284D01*
X192216666Y-134298808D01*
X192407142Y-134203570D01*
X192788094Y-134203570D01*
X192978571Y-134298808D01*
X192121428Y-135441665D02*
X192311904Y-135536903D01*
X192788094Y-135536903D01*
X192978571Y-135441665D01*
X193073809Y-135251189D01*
X193073809Y-135060713D01*
X192978571Y-134870237D01*
X192788094Y-134774999D01*
X192311904Y-134774999D01*
X192121428Y-134679761D01*
X190883333Y-135536903D02*
X191073809Y-135441665D01*
X191169047Y-135251189D01*
X191169047Y-133536903D01*
X189264285Y-134203570D02*
X189264285Y-135822618D01*
X189359523Y-136013094D01*
X189454761Y-136108332D01*
X189645237Y-136203570D01*
X189930952Y-136203570D01*
X190121428Y-136108332D01*
X189264285Y-135441665D02*
X189454761Y-135536903D01*
X189835714Y-135536903D01*
X190026190Y-135441665D01*
X190121428Y-135346427D01*
X190216666Y-135155951D01*
X190216666Y-134584522D01*
X190121428Y-134394046D01*
X190026190Y-134298808D01*
X189835714Y-134203570D01*
X189454761Y-134203570D01*
X189264285Y-134298808D01*
X188026190Y-135536903D02*
X188216666Y-135441665D01*
X188311904Y-135346427D01*
X188407142Y-135155951D01*
X188407142Y-134584522D01*
X188311904Y-134394046D01*
X188216666Y-134298808D01*
X188026190Y-134203570D01*
X187740475Y-134203570D01*
X187549999Y-134298808D01*
X187454761Y-134394046D01*
X187359523Y-134584522D01*
X187359523Y-135155951D01*
X187454761Y-135346427D01*
X187549999Y-135441665D01*
X187740475Y-135536903D01*
X188026190Y-135536903D01*
X186502380Y-135536903D02*
X186502380Y-134203570D01*
X186502380Y-134584522D02*
X186407142Y-134394046D01*
X186311904Y-134298808D01*
X186121428Y-134203570D01*
X185930952Y-134203570D01*
X185264285Y-135536903D02*
X185264285Y-134203570D01*
X185264285Y-133536903D02*
X185359523Y-133632142D01*
X185264285Y-133727380D01*
X185169047Y-133632142D01*
X185264285Y-133536903D01*
X185264285Y-133727380D01*
X184597618Y-134203570D02*
X183835714Y-134203570D01*
X184311904Y-133536903D02*
X184311904Y-135251189D01*
X184216666Y-135441665D01*
X184026190Y-135536903D01*
X183835714Y-135536903D01*
X183169047Y-135536903D02*
X183169047Y-133536903D01*
X182311904Y-135536903D02*
X182311904Y-134489284D01*
X182407142Y-134298808D01*
X182597618Y-134203570D01*
X182883333Y-134203570D01*
X183073809Y-134298808D01*
X183169047Y-134394046D01*
X181359523Y-135536903D02*
X181359523Y-134203570D01*
X181359523Y-134394046D02*
X181264285Y-134298808D01*
X181073809Y-134203570D01*
X180788094Y-134203570D01*
X180597618Y-134298808D01*
X180502380Y-134489284D01*
X180502380Y-135536903D01*
X180502380Y-134489284D02*
X180407142Y-134298808D01*
X180216666Y-134203570D01*
X179930952Y-134203570D01*
X179740475Y-134298808D01*
X179645237Y-134489284D01*
X179645237Y-135536903D01*
D12*
X137550000Y-59478571D02*
X137264285Y-59478571D01*
X137121428Y-59550000D01*
X136978571Y-59692857D01*
X136907142Y-59978571D01*
X136907142Y-60478571D01*
X136978571Y-60764285D01*
X137121428Y-60907142D01*
X137264285Y-60978571D01*
X137550000Y-60978571D01*
X137692857Y-60907142D01*
X137835714Y-60764285D01*
X137907142Y-60478571D01*
X137907142Y-59978571D01*
X137835714Y-59692857D01*
X137692857Y-59550000D01*
X137550000Y-59478571D01*
X135621428Y-59978571D02*
X135621428Y-60978571D01*
X136264285Y-59978571D02*
X136264285Y-60764285D01*
X136192857Y-60907142D01*
X136050000Y-60978571D01*
X135835714Y-60978571D01*
X135692857Y-60907142D01*
X135621428Y-60835714D01*
X135121428Y-59978571D02*
X134550000Y-59978571D01*
X134907142Y-59478571D02*
X134907142Y-60764285D01*
X134835714Y-60907142D01*
X134692857Y-60978571D01*
X134550000Y-60978571D01*
D11*
X215769046Y-123733332D02*
X214626189Y-123733332D01*
X215197617Y-125733332D02*
X215197617Y-123733332D01*
X213959522Y-125733332D02*
X213959522Y-124399999D01*
X213959522Y-124780951D02*
X213864284Y-124590475D01*
X213769046Y-124495237D01*
X213578570Y-124399999D01*
X213388094Y-124399999D01*
X211864284Y-124399999D02*
X211864284Y-125733332D01*
X212721427Y-124399999D02*
X212721427Y-125447618D01*
X212626189Y-125638094D01*
X212435713Y-125733332D01*
X212149998Y-125733332D01*
X211959522Y-125638094D01*
X211864284Y-125542856D01*
X211007141Y-125638094D02*
X210816665Y-125733332D01*
X210435713Y-125733332D01*
X210245236Y-125638094D01*
X210149998Y-125447618D01*
X210149998Y-125352380D01*
X210245236Y-125161904D01*
X210435713Y-125066666D01*
X210721427Y-125066666D01*
X210911903Y-124971428D01*
X211007141Y-124780951D01*
X211007141Y-124685713D01*
X210911903Y-124495237D01*
X210721427Y-124399999D01*
X210435713Y-124399999D01*
X210245236Y-124495237D01*
X209578570Y-124399999D02*
X208816665Y-124399999D01*
X209292856Y-123733332D02*
X209292856Y-125447618D01*
X209197617Y-125638094D01*
X209007141Y-125733332D01*
X208816665Y-125733332D01*
X206911903Y-124399999D02*
X206149998Y-124399999D01*
X206626189Y-123733332D02*
X206626189Y-125447618D01*
X206530951Y-125638094D01*
X206340475Y-125733332D01*
X206149998Y-125733332D01*
X205483332Y-125733332D02*
X205483332Y-123733332D01*
X204626189Y-125733332D02*
X204626189Y-124685713D01*
X204721427Y-124495237D01*
X204911903Y-124399999D01*
X205197617Y-124399999D01*
X205388094Y-124495237D01*
X205483332Y-124590475D01*
X202911903Y-125638094D02*
X203102379Y-125733332D01*
X203483332Y-125733332D01*
X203673808Y-125638094D01*
X203769046Y-125447618D01*
X203769046Y-124685713D01*
X203673808Y-124495237D01*
X203483332Y-124399999D01*
X203102379Y-124399999D01*
X202911903Y-124495237D01*
X202816665Y-124685713D01*
X202816665Y-124876190D01*
X203769046Y-125066666D01*
X199578570Y-125733332D02*
X199578570Y-124685713D01*
X199673808Y-124495237D01*
X199864284Y-124399999D01*
X200245236Y-124399999D01*
X200435713Y-124495237D01*
X199578570Y-125638094D02*
X199769046Y-125733332D01*
X200245236Y-125733332D01*
X200435713Y-125638094D01*
X200530951Y-125447618D01*
X200530951Y-125257142D01*
X200435713Y-125066666D01*
X200245236Y-124971428D01*
X199769046Y-124971428D01*
X199578570Y-124876190D01*
X198340475Y-125733332D02*
X198530951Y-125638094D01*
X198626189Y-125447618D01*
X198626189Y-123733332D01*
X196721427Y-124399999D02*
X196721427Y-126019047D01*
X196816665Y-126209523D01*
X196911903Y-126304761D01*
X197102379Y-126399999D01*
X197388094Y-126399999D01*
X197578570Y-126304761D01*
X196721427Y-125638094D02*
X196911903Y-125733332D01*
X197292856Y-125733332D01*
X197483332Y-125638094D01*
X197578570Y-125542856D01*
X197673808Y-125352380D01*
X197673808Y-124780951D01*
X197578570Y-124590475D01*
X197483332Y-124495237D01*
X197292856Y-124399999D01*
X196911903Y-124399999D01*
X196721427Y-124495237D01*
X195483332Y-125733332D02*
X195673808Y-125638094D01*
X195769046Y-125542856D01*
X195864284Y-125352380D01*
X195864284Y-124780951D01*
X195769046Y-124590475D01*
X195673808Y-124495237D01*
X195483332Y-124399999D01*
X195197617Y-124399999D01*
X195007141Y-124495237D01*
X194911903Y-124590475D01*
X194816665Y-124780951D01*
X194816665Y-125352380D01*
X194911903Y-125542856D01*
X195007141Y-125638094D01*
X195197617Y-125733332D01*
X195483332Y-125733332D01*
X193959522Y-125733332D02*
X193959522Y-124399999D01*
X193959522Y-124780951D02*
X193864284Y-124590475D01*
X193769046Y-124495237D01*
X193578570Y-124399999D01*
X193388094Y-124399999D01*
X192721427Y-125733332D02*
X192721427Y-124399999D01*
X192721427Y-123733332D02*
X192816665Y-123828571D01*
X192721427Y-123923809D01*
X192626189Y-123828571D01*
X192721427Y-123733332D01*
X192721427Y-123923809D01*
X192054760Y-124399999D02*
X191292856Y-124399999D01*
X191769046Y-123733332D02*
X191769046Y-125447618D01*
X191673808Y-125638094D01*
X191483332Y-125733332D01*
X191292856Y-125733332D01*
X190626189Y-125733332D02*
X190626189Y-123733332D01*
X189769046Y-125733332D02*
X189769046Y-124685713D01*
X189864284Y-124495237D01*
X190054760Y-124399999D01*
X190340475Y-124399999D01*
X190530951Y-124495237D01*
X190626189Y-124590475D01*
X188816665Y-125733332D02*
X188816665Y-124399999D01*
X188816665Y-124590475D02*
X188721427Y-124495237D01*
X188530951Y-124399999D01*
X188245236Y-124399999D01*
X188054760Y-124495237D01*
X187959522Y-124685713D01*
X187959522Y-125733332D01*
X187959522Y-124685713D02*
X187864284Y-124495237D01*
X187673808Y-124399999D01*
X187388094Y-124399999D01*
X187197617Y-124495237D01*
X187102379Y-124685713D01*
X187102379Y-125733332D01*
D10*
X135517380Y-137997619D02*
X135469761Y-137950000D01*
X135374523Y-137902380D01*
X135136428Y-137902380D01*
X135041190Y-137950000D01*
X134993571Y-137997619D01*
X134945952Y-138092857D01*
X134945952Y-138188095D01*
X134993571Y-138330952D01*
X135564999Y-138902380D01*
X134945952Y-138902380D01*
X134326904Y-137902380D02*
X134231666Y-137902380D01*
X134136428Y-137950000D01*
X134088809Y-137997619D01*
X134041190Y-138092857D01*
X133993571Y-138283333D01*
X133993571Y-138521428D01*
X134041190Y-138711904D01*
X134088809Y-138807142D01*
X134136428Y-138854761D01*
X134231666Y-138902380D01*
X134326904Y-138902380D01*
X134422142Y-138854761D01*
X134469761Y-138807142D01*
X134517380Y-138711904D01*
X134564999Y-138521428D01*
X134564999Y-138283333D01*
X134517380Y-138092857D01*
X134469761Y-137997619D01*
X134422142Y-137950000D01*
X134326904Y-137902380D01*
X133612618Y-137997619D02*
X133564999Y-137950000D01*
X133469761Y-137902380D01*
X133231666Y-137902380D01*
X133136428Y-137950000D01*
X133088809Y-137997619D01*
X133041190Y-138092857D01*
X133041190Y-138188095D01*
X133088809Y-138330952D01*
X133660237Y-138902380D01*
X133041190Y-138902380D01*
X132184047Y-138235714D02*
X132184047Y-138902380D01*
X132422142Y-137854761D02*
X132660237Y-138569047D01*
X132041190Y-138569047D01*
X131469761Y-137902380D02*
X131374523Y-137902380D01*
X131279285Y-137950000D01*
X131231666Y-137997619D01*
X131184047Y-138092857D01*
X131136428Y-138283333D01*
X131136428Y-138521428D01*
X131184047Y-138711904D01*
X131231666Y-138807142D01*
X131279285Y-138854761D01*
X131374523Y-138902380D01*
X131469761Y-138902380D01*
X131564999Y-138854761D01*
X131612618Y-138807142D01*
X131660237Y-138711904D01*
X131707857Y-138521428D01*
X131707857Y-138283333D01*
X131660237Y-138092857D01*
X131612618Y-137997619D01*
X131564999Y-137950000D01*
X131469761Y-137902380D01*
X130803095Y-137902380D02*
X130136428Y-137902380D01*
X130564999Y-138902380D01*
X129803095Y-137997619D02*
X129755476Y-137950000D01*
X129660237Y-137902380D01*
X129422142Y-137902380D01*
X129326904Y-137950000D01*
X129279285Y-137997619D01*
X129231666Y-138092857D01*
X129231666Y-138188095D01*
X129279285Y-138330952D01*
X129850714Y-138902380D01*
X129231666Y-138902380D01*
X128898333Y-137902380D02*
X128231666Y-137902380D01*
X128660237Y-138902380D01*
X107141547Y-138902380D02*
X107141547Y-137902380D01*
X106712976Y-138902380D02*
X106712976Y-138378571D01*
X106760595Y-138283333D01*
X106855833Y-138235714D01*
X106998690Y-138235714D01*
X107093928Y-138283333D01*
X107141547Y-138330952D01*
X106236785Y-138521428D02*
X105474880Y-138521428D01*
X104617738Y-138854761D02*
X104712976Y-138902380D01*
X104903452Y-138902380D01*
X104998690Y-138854761D01*
X105046309Y-138759523D01*
X105046309Y-138378571D01*
X104998690Y-138283333D01*
X104903452Y-138235714D01*
X104712976Y-138235714D01*
X104617738Y-138283333D01*
X104570119Y-138378571D01*
X104570119Y-138473809D01*
X105046309Y-138569047D01*
X104141547Y-138807142D02*
X104093928Y-138854761D01*
X104141547Y-138902380D01*
X104189166Y-138854761D01*
X104141547Y-138807142D01*
X104141547Y-138902380D01*
X103665357Y-138902380D02*
X103665357Y-138235714D01*
X103665357Y-137902380D02*
X103712976Y-137950000D01*
X103665357Y-137997619D01*
X103617738Y-137950000D01*
X103665357Y-137902380D01*
X103665357Y-137997619D01*
X103046309Y-138902380D02*
X103141547Y-138854761D01*
X103189166Y-138807142D01*
X103236785Y-138711904D01*
X103236785Y-138426190D01*
X103189166Y-138330952D01*
X103141547Y-138283333D01*
X103046309Y-138235714D01*
X102903452Y-138235714D01*
X102808214Y-138283333D01*
X102760595Y-138330952D01*
X102712976Y-138426190D01*
X102712976Y-138711904D01*
X102760595Y-138807142D01*
X102808214Y-138854761D01*
X102903452Y-138902380D01*
X103046309Y-138902380D01*
D11*
X223226188Y-113929761D02*
X222083331Y-113929761D01*
X222654759Y-115929761D02*
X222654759Y-113929761D01*
X221416664Y-115929761D02*
X221416664Y-114596428D01*
X221416664Y-114977380D02*
X221321426Y-114786904D01*
X221226188Y-114691666D01*
X221035712Y-114596428D01*
X220845236Y-114596428D01*
X219321426Y-114596428D02*
X219321426Y-115929761D01*
X220178569Y-114596428D02*
X220178569Y-115644047D01*
X220083331Y-115834523D01*
X219892855Y-115929761D01*
X219607140Y-115929761D01*
X219416664Y-115834523D01*
X219321426Y-115739285D01*
X218464283Y-115834523D02*
X218273807Y-115929761D01*
X217892855Y-115929761D01*
X217702378Y-115834523D01*
X217607140Y-115644047D01*
X217607140Y-115548809D01*
X217702378Y-115358333D01*
X217892855Y-115263095D01*
X218178569Y-115263095D01*
X218369045Y-115167857D01*
X218464283Y-114977380D01*
X218464283Y-114882142D01*
X218369045Y-114691666D01*
X218178569Y-114596428D01*
X217892855Y-114596428D01*
X217702378Y-114691666D01*
X217035712Y-114596428D02*
X216273807Y-114596428D01*
X216749998Y-113929761D02*
X216749998Y-115644047D01*
X216654759Y-115834523D01*
X216464283Y-115929761D01*
X216273807Y-115929761D01*
X214369045Y-114596428D02*
X213607140Y-114596428D01*
X214083331Y-113929761D02*
X214083331Y-115644047D01*
X213988093Y-115834523D01*
X213797617Y-115929761D01*
X213607140Y-115929761D01*
X212940474Y-115929761D02*
X212940474Y-113929761D01*
X212083331Y-115929761D02*
X212083331Y-114882142D01*
X212178569Y-114691666D01*
X212369045Y-114596428D01*
X212654759Y-114596428D01*
X212845236Y-114691666D01*
X212940474Y-114786904D01*
X210369045Y-115834523D02*
X210559521Y-115929761D01*
X210940474Y-115929761D01*
X211130950Y-115834523D01*
X211226188Y-115644047D01*
X211226188Y-114882142D01*
X211130950Y-114691666D01*
X210940474Y-114596428D01*
X210559521Y-114596428D01*
X210369045Y-114691666D01*
X210273807Y-114882142D01*
X210273807Y-115072619D01*
X211226188Y-115263095D01*
X207035712Y-115929761D02*
X207035712Y-114882142D01*
X207130950Y-114691666D01*
X207321426Y-114596428D01*
X207702378Y-114596428D01*
X207892855Y-114691666D01*
X207035712Y-115834523D02*
X207226188Y-115929761D01*
X207702378Y-115929761D01*
X207892855Y-115834523D01*
X207988093Y-115644047D01*
X207988093Y-115453571D01*
X207892855Y-115263095D01*
X207702378Y-115167857D01*
X207226188Y-115167857D01*
X207035712Y-115072619D01*
X205797617Y-115929761D02*
X205988093Y-115834523D01*
X206083331Y-115644047D01*
X206083331Y-113929761D01*
X204178569Y-114596428D02*
X204178569Y-116215476D01*
X204273807Y-116405952D01*
X204369045Y-116501190D01*
X204559521Y-116596428D01*
X204845236Y-116596428D01*
X205035712Y-116501190D01*
X204178569Y-115834523D02*
X204369045Y-115929761D01*
X204749998Y-115929761D01*
X204940474Y-115834523D01*
X205035712Y-115739285D01*
X205130950Y-115548809D01*
X205130950Y-114977380D01*
X205035712Y-114786904D01*
X204940474Y-114691666D01*
X204749998Y-114596428D01*
X204369045Y-114596428D01*
X204178569Y-114691666D01*
X202940474Y-115929761D02*
X203130950Y-115834523D01*
X203226188Y-115739285D01*
X203321426Y-115548809D01*
X203321426Y-114977380D01*
X203226188Y-114786904D01*
X203130950Y-114691666D01*
X202940474Y-114596428D01*
X202654759Y-114596428D01*
X202464283Y-114691666D01*
X202369045Y-114786904D01*
X202273807Y-114977380D01*
X202273807Y-115548809D01*
X202369045Y-115739285D01*
X202464283Y-115834523D01*
X202654759Y-115929761D01*
X202940474Y-115929761D01*
X201416664Y-115929761D02*
X201416664Y-114596428D01*
X201416664Y-114977380D02*
X201321426Y-114786904D01*
X201226188Y-114691666D01*
X201035712Y-114596428D01*
X200845236Y-114596428D01*
X200178569Y-115929761D02*
X200178569Y-114596428D01*
X200178569Y-113929761D02*
X200273807Y-114025000D01*
X200178569Y-114120238D01*
X200083331Y-114025000D01*
X200178569Y-113929761D01*
X200178569Y-114120238D01*
X199511902Y-114596428D02*
X198749998Y-114596428D01*
X199226188Y-113929761D02*
X199226188Y-115644047D01*
X199130950Y-115834523D01*
X198940474Y-115929761D01*
X198749998Y-115929761D01*
X198083331Y-115929761D02*
X198083331Y-113929761D01*
X197226188Y-115929761D02*
X197226188Y-114882142D01*
X197321426Y-114691666D01*
X197511902Y-114596428D01*
X197797617Y-114596428D01*
X197988093Y-114691666D01*
X198083331Y-114786904D01*
X196273807Y-115929761D02*
X196273807Y-114596428D01*
X196273807Y-114786904D02*
X196178569Y-114691666D01*
X195988093Y-114596428D01*
X195702378Y-114596428D01*
X195511902Y-114691666D01*
X195416664Y-114882142D01*
X195416664Y-115929761D01*
X195416664Y-114882142D02*
X195321426Y-114691666D01*
X195130950Y-114596428D01*
X194845236Y-114596428D01*
X194654759Y-114691666D01*
X194559521Y-114882142D01*
X194559521Y-115929761D01*
D10*
X167414404Y-138902380D02*
X167414404Y-137902380D01*
X167081071Y-138616666D01*
X166747738Y-137902380D01*
X166747738Y-138902380D01*
X166271547Y-138902380D02*
X166271547Y-138235714D01*
X166271547Y-137902380D02*
X166319166Y-137950000D01*
X166271547Y-137997619D01*
X166223928Y-137950000D01*
X166271547Y-137902380D01*
X166271547Y-137997619D01*
X165795357Y-138235714D02*
X165795357Y-138902380D01*
X165795357Y-138330952D02*
X165747738Y-138283333D01*
X165652500Y-138235714D01*
X165509642Y-138235714D01*
X165414404Y-138283333D01*
X165366785Y-138378571D01*
X165366785Y-138902380D01*
X164890595Y-138902380D02*
X164890595Y-138235714D01*
X164890595Y-137902380D02*
X164938214Y-137950000D01*
X164890595Y-137997619D01*
X164842976Y-137950000D01*
X164890595Y-137902380D01*
X164890595Y-137997619D01*
X164414404Y-138902380D02*
X164414404Y-137902380D01*
X164176309Y-137902380D01*
X164033452Y-137950000D01*
X163938214Y-138045238D01*
X163890595Y-138140476D01*
X163842976Y-138330952D01*
X163842976Y-138473809D01*
X163890595Y-138664285D01*
X163938214Y-138759523D01*
X164033452Y-138854761D01*
X164176309Y-138902380D01*
X164414404Y-138902380D01*
X163033452Y-138854761D02*
X163128690Y-138902380D01*
X163319166Y-138902380D01*
X163414404Y-138854761D01*
X163462023Y-138759523D01*
X163462023Y-138378571D01*
X163414404Y-138283333D01*
X163319166Y-138235714D01*
X163128690Y-138235714D01*
X163033452Y-138283333D01*
X162985833Y-138378571D01*
X162985833Y-138473809D01*
X163462023Y-138569047D01*
X162652500Y-138902380D02*
X162128690Y-138235714D01*
X162652500Y-138235714D02*
X162128690Y-138902380D01*
X161366785Y-138854761D02*
X161462023Y-138902380D01*
X161652500Y-138902380D01*
X161747738Y-138854761D01*
X161795357Y-138759523D01*
X161795357Y-138378571D01*
X161747738Y-138283333D01*
X161652500Y-138235714D01*
X161462023Y-138235714D01*
X161366785Y-138283333D01*
X161319166Y-138378571D01*
X161319166Y-138473809D01*
X161795357Y-138569047D01*
X160462023Y-138902380D02*
X160462023Y-137902380D01*
X160462023Y-138854761D02*
X160557261Y-138902380D01*
X160747738Y-138902380D01*
X160842976Y-138854761D01*
X160890595Y-138807142D01*
X160938214Y-138711904D01*
X160938214Y-138426190D01*
X160890595Y-138330952D01*
X160842976Y-138283333D01*
X160747738Y-138235714D01*
X160557261Y-138235714D01*
X160462023Y-138283333D01*
X159223928Y-138902380D02*
X159223928Y-137902380D01*
X158842976Y-137902380D01*
X158747738Y-137950000D01*
X158700119Y-137997619D01*
X158652500Y-138092857D01*
X158652500Y-138235714D01*
X158700119Y-138330952D01*
X158747738Y-138378571D01*
X158842976Y-138426190D01*
X159223928Y-138426190D01*
X157652500Y-138807142D02*
X157700119Y-138854761D01*
X157842976Y-138902380D01*
X157938214Y-138902380D01*
X158081071Y-138854761D01*
X158176309Y-138759523D01*
X158223928Y-138664285D01*
X158271547Y-138473809D01*
X158271547Y-138330952D01*
X158223928Y-138140476D01*
X158176309Y-138045238D01*
X158081071Y-137950000D01*
X157938214Y-137902380D01*
X157842976Y-137902380D01*
X157700119Y-137950000D01*
X157652500Y-137997619D01*
X156890595Y-138378571D02*
X156747738Y-138426190D01*
X156700119Y-138473809D01*
X156652500Y-138569047D01*
X156652500Y-138711904D01*
X156700119Y-138807142D01*
X156747738Y-138854761D01*
X156842976Y-138902380D01*
X157223928Y-138902380D01*
X157223928Y-137902380D01*
X156890595Y-137902380D01*
X156795357Y-137950000D01*
X156747738Y-137997619D01*
X156700119Y-138092857D01*
X156700119Y-138188095D01*
X156747738Y-138283333D01*
X156795357Y-138330952D01*
X156890595Y-138378571D01*
X157223928Y-138378571D01*
D11*
X210797618Y-130269046D02*
X209654761Y-130269046D01*
X210226189Y-132269046D02*
X210226189Y-130269046D01*
X208988094Y-132269046D02*
X208988094Y-130935713D01*
X208988094Y-131316665D02*
X208892856Y-131126189D01*
X208797618Y-131030951D01*
X208607142Y-130935713D01*
X208416666Y-130935713D01*
X206892856Y-130935713D02*
X206892856Y-132269046D01*
X207749999Y-130935713D02*
X207749999Y-131983332D01*
X207654761Y-132173808D01*
X207464285Y-132269046D01*
X207178570Y-132269046D01*
X206988094Y-132173808D01*
X206892856Y-132078570D01*
X206035713Y-132173808D02*
X205845237Y-132269046D01*
X205464285Y-132269046D01*
X205273808Y-132173808D01*
X205178570Y-131983332D01*
X205178570Y-131888094D01*
X205273808Y-131697618D01*
X205464285Y-131602380D01*
X205749999Y-131602380D01*
X205940475Y-131507142D01*
X206035713Y-131316665D01*
X206035713Y-131221427D01*
X205940475Y-131030951D01*
X205749999Y-130935713D01*
X205464285Y-130935713D01*
X205273808Y-131030951D01*
X204607142Y-130935713D02*
X203845237Y-130935713D01*
X204321428Y-130269046D02*
X204321428Y-131983332D01*
X204226189Y-132173808D01*
X204035713Y-132269046D01*
X203845237Y-132269046D01*
X201940475Y-130935713D02*
X201178570Y-130935713D01*
X201654761Y-130269046D02*
X201654761Y-131983332D01*
X201559523Y-132173808D01*
X201369047Y-132269046D01*
X201178570Y-132269046D01*
X200511904Y-132269046D02*
X200511904Y-130269046D01*
X199654761Y-132269046D02*
X199654761Y-131221427D01*
X199749999Y-131030951D01*
X199940475Y-130935713D01*
X200226189Y-130935713D01*
X200416666Y-131030951D01*
X200511904Y-131126189D01*
X197940475Y-132173808D02*
X198130951Y-132269046D01*
X198511904Y-132269046D01*
X198702380Y-132173808D01*
X198797618Y-131983332D01*
X198797618Y-131221427D01*
X198702380Y-131030951D01*
X198511904Y-130935713D01*
X198130951Y-130935713D01*
X197940475Y-131030951D01*
X197845237Y-131221427D01*
X197845237Y-131411904D01*
X198797618Y-131602380D01*
X194607142Y-132269046D02*
X194607142Y-131221427D01*
X194702380Y-131030951D01*
X194892856Y-130935713D01*
X195273808Y-130935713D01*
X195464285Y-131030951D01*
X194607142Y-132173808D02*
X194797618Y-132269046D01*
X195273808Y-132269046D01*
X195464285Y-132173808D01*
X195559523Y-131983332D01*
X195559523Y-131792856D01*
X195464285Y-131602380D01*
X195273808Y-131507142D01*
X194797618Y-131507142D01*
X194607142Y-131411904D01*
X193369047Y-132269046D02*
X193559523Y-132173808D01*
X193654761Y-131983332D01*
X193654761Y-130269046D01*
X191749999Y-130935713D02*
X191749999Y-132554761D01*
X191845237Y-132745237D01*
X191940475Y-132840475D01*
X192130951Y-132935713D01*
X192416666Y-132935713D01*
X192607142Y-132840475D01*
X191749999Y-132173808D02*
X191940475Y-132269046D01*
X192321428Y-132269046D01*
X192511904Y-132173808D01*
X192607142Y-132078570D01*
X192702380Y-131888094D01*
X192702380Y-131316665D01*
X192607142Y-131126189D01*
X192511904Y-131030951D01*
X192321428Y-130935713D01*
X191940475Y-130935713D01*
X191749999Y-131030951D01*
X190511904Y-132269046D02*
X190702380Y-132173808D01*
X190797618Y-132078570D01*
X190892856Y-131888094D01*
X190892856Y-131316665D01*
X190797618Y-131126189D01*
X190702380Y-131030951D01*
X190511904Y-130935713D01*
X190226189Y-130935713D01*
X190035713Y-131030951D01*
X189940475Y-131126189D01*
X189845237Y-131316665D01*
X189845237Y-131888094D01*
X189940475Y-132078570D01*
X190035713Y-132173808D01*
X190226189Y-132269046D01*
X190511904Y-132269046D01*
X188988094Y-132269046D02*
X188988094Y-130935713D01*
X188988094Y-131316665D02*
X188892856Y-131126189D01*
X188797618Y-131030951D01*
X188607142Y-130935713D01*
X188416666Y-130935713D01*
X187749999Y-132269046D02*
X187749999Y-130935713D01*
X187749999Y-130269046D02*
X187845237Y-130364285D01*
X187749999Y-130459523D01*
X187654761Y-130364285D01*
X187749999Y-130269046D01*
X187749999Y-130459523D01*
X187083332Y-130935713D02*
X186321428Y-130935713D01*
X186797618Y-130269046D02*
X186797618Y-131983332D01*
X186702380Y-132173808D01*
X186511904Y-132269046D01*
X186321428Y-132269046D01*
X185654761Y-132269046D02*
X185654761Y-130269046D01*
X184797618Y-132269046D02*
X184797618Y-131221427D01*
X184892856Y-131030951D01*
X185083332Y-130935713D01*
X185369047Y-130935713D01*
X185559523Y-131030951D01*
X185654761Y-131126189D01*
X183845237Y-132269046D02*
X183845237Y-130935713D01*
X183845237Y-131126189D02*
X183749999Y-131030951D01*
X183559523Y-130935713D01*
X183273808Y-130935713D01*
X183083332Y-131030951D01*
X182988094Y-131221427D01*
X182988094Y-132269046D01*
X182988094Y-131221427D02*
X182892856Y-131030951D01*
X182702380Y-130935713D01*
X182416666Y-130935713D01*
X182226189Y-131030951D01*
X182130951Y-131221427D01*
X182130951Y-132269046D01*
D10*
X153052380Y-86738095D02*
X153861904Y-86738095D01*
X153957142Y-86785714D01*
X154004761Y-86833333D01*
X154052380Y-86928571D01*
X154052380Y-87119047D01*
X154004761Y-87214285D01*
X153957142Y-87261904D01*
X153861904Y-87309523D01*
X153052380Y-87309523D01*
X153147619Y-87738095D02*
X153100000Y-87785714D01*
X153052380Y-87880952D01*
X153052380Y-88119047D01*
X153100000Y-88214285D01*
X153147619Y-88261904D01*
X153242857Y-88309523D01*
X153338095Y-88309523D01*
X153480952Y-88261904D01*
X154052380Y-87690476D01*
X154052380Y-88309523D01*
X141861904Y-87452380D02*
X141290476Y-87452380D01*
X141576190Y-88452380D02*
X141576190Y-87452380D01*
X140957142Y-88452380D02*
X140957142Y-87452380D01*
X140576190Y-87452380D01*
X140480952Y-87500000D01*
X140433333Y-87547619D01*
X140385714Y-87642857D01*
X140385714Y-87785714D01*
X140433333Y-87880952D01*
X140480952Y-87928571D01*
X140576190Y-87976190D01*
X140957142Y-87976190D01*
X139814285Y-87880952D02*
X139909523Y-87833333D01*
X139957142Y-87785714D01*
X140004761Y-87690476D01*
X140004761Y-87642857D01*
X139957142Y-87547619D01*
X139909523Y-87500000D01*
X139814285Y-87452380D01*
X139623809Y-87452380D01*
X139528571Y-87500000D01*
X139480952Y-87547619D01*
X139433333Y-87642857D01*
X139433333Y-87690476D01*
X139480952Y-87785714D01*
X139528571Y-87833333D01*
X139623809Y-87880952D01*
X139814285Y-87880952D01*
X139909523Y-87928571D01*
X139957142Y-87976190D01*
X140004761Y-88071428D01*
X140004761Y-88261904D01*
X139957142Y-88357142D01*
X139909523Y-88404761D01*
X139814285Y-88452380D01*
X139623809Y-88452380D01*
X139528571Y-88404761D01*
X139480952Y-88357142D01*
X139433333Y-88261904D01*
X139433333Y-88071428D01*
X139480952Y-87976190D01*
X139528571Y-87928571D01*
X139623809Y-87880952D01*
X130557142Y-92157142D02*
X130604761Y-92109523D01*
X130652380Y-91966666D01*
X130652380Y-91871428D01*
X130604761Y-91728571D01*
X130509523Y-91633333D01*
X130414285Y-91585714D01*
X130223809Y-91538095D01*
X130080952Y-91538095D01*
X129890476Y-91585714D01*
X129795238Y-91633333D01*
X129700000Y-91728571D01*
X129652380Y-91871428D01*
X129652380Y-91966666D01*
X129700000Y-92109523D01*
X129747619Y-92157142D01*
X130652380Y-93109523D02*
X130652380Y-92538095D01*
X130652380Y-92823809D02*
X129652380Y-92823809D01*
X129795238Y-92728571D01*
X129890476Y-92633333D01*
X129938095Y-92538095D01*
X129652380Y-93966666D02*
X129652380Y-93776190D01*
X129700000Y-93680952D01*
X129747619Y-93633333D01*
X129890476Y-93538095D01*
X130080952Y-93490476D01*
X130461904Y-93490476D01*
X130557142Y-93538095D01*
X130604761Y-93585714D01*
X130652380Y-93680952D01*
X130652380Y-93871428D01*
X130604761Y-93966666D01*
X130557142Y-94014285D01*
X130461904Y-94061904D01*
X130223809Y-94061904D01*
X130128571Y-94014285D01*
X130080952Y-93966666D01*
X130033333Y-93871428D01*
X130033333Y-93680952D01*
X130080952Y-93585714D01*
X130128571Y-93538095D01*
X130223809Y-93490476D01*
X162057142Y-78995833D02*
X162104761Y-78948214D01*
X162152380Y-78805357D01*
X162152380Y-78710119D01*
X162104761Y-78567261D01*
X162009523Y-78472023D01*
X161914285Y-78424404D01*
X161723809Y-78376785D01*
X161580952Y-78376785D01*
X161390476Y-78424404D01*
X161295238Y-78472023D01*
X161200000Y-78567261D01*
X161152380Y-78710119D01*
X161152380Y-78805357D01*
X161200000Y-78948214D01*
X161247619Y-78995833D01*
X161152380Y-79329166D02*
X161152380Y-79995833D01*
X162152380Y-79567261D01*
X190047380Y-110033333D02*
X189571190Y-109700000D01*
X190047380Y-109461904D02*
X189047380Y-109461904D01*
X189047380Y-109842857D01*
X189095000Y-109938095D01*
X189142619Y-109985714D01*
X189237857Y-110033333D01*
X189380714Y-110033333D01*
X189475952Y-109985714D01*
X189523571Y-109938095D01*
X189571190Y-109842857D01*
X189571190Y-109461904D01*
X189047380Y-110938095D02*
X189047380Y-110461904D01*
X189523571Y-110414285D01*
X189475952Y-110461904D01*
X189428333Y-110557142D01*
X189428333Y-110795238D01*
X189475952Y-110890476D01*
X189523571Y-110938095D01*
X189618809Y-110985714D01*
X189856904Y-110985714D01*
X189952142Y-110938095D01*
X189999761Y-110890476D01*
X190047380Y-110795238D01*
X190047380Y-110557142D01*
X189999761Y-110461904D01*
X189952142Y-110414285D01*
X103007580Y-72883333D02*
X102531390Y-72550000D01*
X103007580Y-72311904D02*
X102007580Y-72311904D01*
X102007580Y-72692857D01*
X102055200Y-72788095D01*
X102102819Y-72835714D01*
X102198057Y-72883333D01*
X102340914Y-72883333D01*
X102436152Y-72835714D01*
X102483771Y-72788095D01*
X102531390Y-72692857D01*
X102531390Y-72311904D01*
X102007580Y-73740476D02*
X102007580Y-73550000D01*
X102055200Y-73454761D01*
X102102819Y-73407142D01*
X102245676Y-73311904D01*
X102436152Y-73264285D01*
X102817104Y-73264285D01*
X102912342Y-73311904D01*
X102959961Y-73359523D01*
X103007580Y-73454761D01*
X103007580Y-73645238D01*
X102959961Y-73740476D01*
X102912342Y-73788095D01*
X102817104Y-73835714D01*
X102579009Y-73835714D01*
X102483771Y-73788095D01*
X102436152Y-73740476D01*
X102388533Y-73645238D01*
X102388533Y-73454761D01*
X102436152Y-73359523D01*
X102483771Y-73311904D01*
X102579009Y-73264285D01*
X147277142Y-72419642D02*
X147324761Y-72372023D01*
X147372380Y-72229166D01*
X147372380Y-72133928D01*
X147324761Y-71991071D01*
X147229523Y-71895833D01*
X147134285Y-71848214D01*
X146943809Y-71800595D01*
X146800952Y-71800595D01*
X146610476Y-71848214D01*
X146515238Y-71895833D01*
X146420000Y-71991071D01*
X146372380Y-72133928D01*
X146372380Y-72229166D01*
X146420000Y-72372023D01*
X146467619Y-72419642D01*
X147372380Y-73372023D02*
X147372380Y-72800595D01*
X147372380Y-73086309D02*
X146372380Y-73086309D01*
X146515238Y-72991071D01*
X146610476Y-72895833D01*
X146658095Y-72800595D01*
X146372380Y-74276785D02*
X146372380Y-73800595D01*
X146848571Y-73752976D01*
X146800952Y-73800595D01*
X146753333Y-73895833D01*
X146753333Y-74133928D01*
X146800952Y-74229166D01*
X146848571Y-74276785D01*
X146943809Y-74324404D01*
X147181904Y-74324404D01*
X147277142Y-74276785D01*
X147324761Y-74229166D01*
X147372380Y-74133928D01*
X147372380Y-73895833D01*
X147324761Y-73800595D01*
X147277142Y-73752976D01*
X214557142Y-97269642D02*
X214604761Y-97222023D01*
X214652380Y-97079166D01*
X214652380Y-96983928D01*
X214604761Y-96841071D01*
X214509523Y-96745833D01*
X214414285Y-96698214D01*
X214223809Y-96650595D01*
X214080952Y-96650595D01*
X213890476Y-96698214D01*
X213795238Y-96745833D01*
X213700000Y-96841071D01*
X213652380Y-96983928D01*
X213652380Y-97079166D01*
X213700000Y-97222023D01*
X213747619Y-97269642D01*
X214652380Y-98222023D02*
X214652380Y-97650595D01*
X214652380Y-97936309D02*
X213652380Y-97936309D01*
X213795238Y-97841071D01*
X213890476Y-97745833D01*
X213938095Y-97650595D01*
X214652380Y-99174404D02*
X214652380Y-98602976D01*
X214652380Y-98888690D02*
X213652380Y-98888690D01*
X213795238Y-98793452D01*
X213890476Y-98698214D01*
X213938095Y-98602976D01*
X214537142Y-90169642D02*
X214584761Y-90122023D01*
X214632380Y-89979166D01*
X214632380Y-89883928D01*
X214584761Y-89741071D01*
X214489523Y-89645833D01*
X214394285Y-89598214D01*
X214203809Y-89550595D01*
X214060952Y-89550595D01*
X213870476Y-89598214D01*
X213775238Y-89645833D01*
X213680000Y-89741071D01*
X213632380Y-89883928D01*
X213632380Y-89979166D01*
X213680000Y-90122023D01*
X213727619Y-90169642D01*
X214632380Y-91122023D02*
X214632380Y-90550595D01*
X214632380Y-90836309D02*
X213632380Y-90836309D01*
X213775238Y-90741071D01*
X213870476Y-90645833D01*
X213918095Y-90550595D01*
X213727619Y-91502976D02*
X213680000Y-91550595D01*
X213632380Y-91645833D01*
X213632380Y-91883928D01*
X213680000Y-91979166D01*
X213727619Y-92026785D01*
X213822857Y-92074404D01*
X213918095Y-92074404D01*
X214060952Y-92026785D01*
X214632380Y-91455357D01*
X214632380Y-92074404D01*
X165657142Y-78519642D02*
X165704761Y-78472023D01*
X165752380Y-78329166D01*
X165752380Y-78233928D01*
X165704761Y-78091071D01*
X165609523Y-77995833D01*
X165514285Y-77948214D01*
X165323809Y-77900595D01*
X165180952Y-77900595D01*
X164990476Y-77948214D01*
X164895238Y-77995833D01*
X164800000Y-78091071D01*
X164752380Y-78233928D01*
X164752380Y-78329166D01*
X164800000Y-78472023D01*
X164847619Y-78519642D01*
X165752380Y-79472023D02*
X165752380Y-78900595D01*
X165752380Y-79186309D02*
X164752380Y-79186309D01*
X164895238Y-79091071D01*
X164990476Y-78995833D01*
X165038095Y-78900595D01*
X164752380Y-80091071D02*
X164752380Y-80186309D01*
X164800000Y-80281547D01*
X164847619Y-80329166D01*
X164942857Y-80376785D01*
X165133333Y-80424404D01*
X165371428Y-80424404D01*
X165561904Y-80376785D01*
X165657142Y-80329166D01*
X165704761Y-80281547D01*
X165752380Y-80186309D01*
X165752380Y-80091071D01*
X165704761Y-79995833D01*
X165657142Y-79948214D01*
X165561904Y-79900595D01*
X165371428Y-79852976D01*
X165133333Y-79852976D01*
X164942857Y-79900595D01*
X164847619Y-79948214D01*
X164800000Y-79995833D01*
X164752380Y-80091071D01*
X168472380Y-91583333D02*
X167996190Y-91250000D01*
X168472380Y-91011904D02*
X167472380Y-91011904D01*
X167472380Y-91392857D01*
X167520000Y-91488095D01*
X167567619Y-91535714D01*
X167662857Y-91583333D01*
X167805714Y-91583333D01*
X167900952Y-91535714D01*
X167948571Y-91488095D01*
X167996190Y-91392857D01*
X167996190Y-91011904D01*
X167900952Y-92154761D02*
X167853333Y-92059523D01*
X167805714Y-92011904D01*
X167710476Y-91964285D01*
X167662857Y-91964285D01*
X167567619Y-92011904D01*
X167520000Y-92059523D01*
X167472380Y-92154761D01*
X167472380Y-92345238D01*
X167520000Y-92440476D01*
X167567619Y-92488095D01*
X167662857Y-92535714D01*
X167710476Y-92535714D01*
X167805714Y-92488095D01*
X167853333Y-92440476D01*
X167900952Y-92345238D01*
X167900952Y-92154761D01*
X167948571Y-92059523D01*
X167996190Y-92011904D01*
X168091428Y-91964285D01*
X168281904Y-91964285D01*
X168377142Y-92011904D01*
X168424761Y-92059523D01*
X168472380Y-92154761D01*
X168472380Y-92345238D01*
X168424761Y-92440476D01*
X168377142Y-92488095D01*
X168281904Y-92535714D01*
X168091428Y-92535714D01*
X167996190Y-92488095D01*
X167948571Y-92440476D01*
X167900952Y-92345238D01*
X116977780Y-97065542D02*
X116501590Y-96732209D01*
X116977780Y-96494114D02*
X115977780Y-96494114D01*
X115977780Y-96875066D01*
X116025400Y-96970304D01*
X116073019Y-97017923D01*
X116168257Y-97065542D01*
X116311114Y-97065542D01*
X116406352Y-97017923D01*
X116453971Y-96970304D01*
X116501590Y-96875066D01*
X116501590Y-96494114D01*
X116977780Y-98017923D02*
X116977780Y-97446495D01*
X116977780Y-97732209D02*
X115977780Y-97732209D01*
X116120638Y-97636971D01*
X116215876Y-97541733D01*
X116263495Y-97446495D01*
X116073019Y-98398876D02*
X116025400Y-98446495D01*
X115977780Y-98541733D01*
X115977780Y-98779828D01*
X116025400Y-98875066D01*
X116073019Y-98922685D01*
X116168257Y-98970304D01*
X116263495Y-98970304D01*
X116406352Y-98922685D01*
X116977780Y-98351257D01*
X116977780Y-98970304D01*
X128719420Y-72407142D02*
X128243230Y-72073809D01*
X128719420Y-71835714D02*
X127719420Y-71835714D01*
X127719420Y-72216666D01*
X127767040Y-72311904D01*
X127814659Y-72359523D01*
X127909897Y-72407142D01*
X128052754Y-72407142D01*
X128147992Y-72359523D01*
X128195611Y-72311904D01*
X128243230Y-72216666D01*
X128243230Y-71835714D01*
X128719420Y-73359523D02*
X128719420Y-72788095D01*
X128719420Y-73073809D02*
X127719420Y-73073809D01*
X127862278Y-72978571D01*
X127957516Y-72883333D01*
X128005135Y-72788095D01*
X128052754Y-74216666D02*
X128719420Y-74216666D01*
X127671801Y-73978571D02*
X128386087Y-73740476D01*
X128386087Y-74359523D01*
X142734504Y-81436980D02*
X142163076Y-81436980D01*
X142448790Y-82436980D02*
X142448790Y-81436980D01*
X141829742Y-82436980D02*
X141829742Y-81436980D01*
X141448790Y-81436980D01*
X141353552Y-81484600D01*
X141305933Y-81532219D01*
X141258314Y-81627457D01*
X141258314Y-81770314D01*
X141305933Y-81865552D01*
X141353552Y-81913171D01*
X141448790Y-81960790D01*
X141829742Y-81960790D01*
X140353552Y-81436980D02*
X140829742Y-81436980D01*
X140877361Y-81913171D01*
X140829742Y-81865552D01*
X140734504Y-81817933D01*
X140496409Y-81817933D01*
X140401171Y-81865552D01*
X140353552Y-81913171D01*
X140305933Y-82008409D01*
X140305933Y-82246504D01*
X140353552Y-82341742D01*
X140401171Y-82389361D01*
X140496409Y-82436980D01*
X140734504Y-82436980D01*
X140829742Y-82389361D01*
X140877361Y-82341742D01*
X208197380Y-110033333D02*
X207721190Y-109700000D01*
X208197380Y-109461904D02*
X207197380Y-109461904D01*
X207197380Y-109842857D01*
X207245000Y-109938095D01*
X207292619Y-109985714D01*
X207387857Y-110033333D01*
X207530714Y-110033333D01*
X207625952Y-109985714D01*
X207673571Y-109938095D01*
X207721190Y-109842857D01*
X207721190Y-109461904D01*
X207292619Y-110414285D02*
X207245000Y-110461904D01*
X207197380Y-110557142D01*
X207197380Y-110795238D01*
X207245000Y-110890476D01*
X207292619Y-110938095D01*
X207387857Y-110985714D01*
X207483095Y-110985714D01*
X207625952Y-110938095D01*
X208197380Y-110366666D01*
X208197380Y-110985714D01*
X168552380Y-113483333D02*
X168076190Y-113150000D01*
X168552380Y-112911904D02*
X167552380Y-112911904D01*
X167552380Y-113292857D01*
X167600000Y-113388095D01*
X167647619Y-113435714D01*
X167742857Y-113483333D01*
X167885714Y-113483333D01*
X167980952Y-113435714D01*
X168028571Y-113388095D01*
X168076190Y-113292857D01*
X168076190Y-112911904D01*
X167552380Y-113816666D02*
X167552380Y-114483333D01*
X168552380Y-114054761D01*
X199122380Y-110033333D02*
X198646190Y-109700000D01*
X199122380Y-109461904D02*
X198122380Y-109461904D01*
X198122380Y-109842857D01*
X198170000Y-109938095D01*
X198217619Y-109985714D01*
X198312857Y-110033333D01*
X198455714Y-110033333D01*
X198550952Y-109985714D01*
X198598571Y-109938095D01*
X198646190Y-109842857D01*
X198646190Y-109461904D01*
X198122380Y-110366666D02*
X198122380Y-110985714D01*
X198503333Y-110652380D01*
X198503333Y-110795238D01*
X198550952Y-110890476D01*
X198598571Y-110938095D01*
X198693809Y-110985714D01*
X198931904Y-110985714D01*
X199027142Y-110938095D01*
X199074761Y-110890476D01*
X199122380Y-110795238D01*
X199122380Y-110509523D01*
X199074761Y-110414285D01*
X199027142Y-110366666D01*
X118091666Y-60431619D02*
X118091666Y-59717333D01*
X118044047Y-59574476D01*
X117948809Y-59479238D01*
X117805952Y-59431619D01*
X117710714Y-59431619D01*
X118996428Y-60098285D02*
X118996428Y-59431619D01*
X118758333Y-60479238D02*
X118520238Y-59764952D01*
X119139285Y-59764952D01*
X127089285Y-66281619D02*
X127660714Y-66281619D01*
X127375000Y-65281619D02*
X127375000Y-66281619D01*
X121839285Y-63829238D02*
X121982142Y-63781619D01*
X122220238Y-63781619D01*
X122315476Y-63829238D01*
X122363095Y-63876857D01*
X122410714Y-63972095D01*
X122410714Y-64067333D01*
X122363095Y-64162571D01*
X122315476Y-64210190D01*
X122220238Y-64257809D01*
X122029761Y-64305428D01*
X121934523Y-64353047D01*
X121886904Y-64400666D01*
X121839285Y-64495904D01*
X121839285Y-64591142D01*
X121886904Y-64686380D01*
X121934523Y-64734000D01*
X122029761Y-64781619D01*
X122267857Y-64781619D01*
X122410714Y-64734000D01*
X117434523Y-65281619D02*
X117101190Y-65757809D01*
X116863095Y-65281619D02*
X116863095Y-66281619D01*
X117244047Y-66281619D01*
X117339285Y-66234000D01*
X117386904Y-66186380D01*
X117434523Y-66091142D01*
X117434523Y-65948285D01*
X117386904Y-65853047D01*
X117339285Y-65805428D01*
X117244047Y-65757809D01*
X116863095Y-65757809D01*
X144677142Y-90370833D02*
X144724761Y-90323214D01*
X144772380Y-90180357D01*
X144772380Y-90085119D01*
X144724761Y-89942261D01*
X144629523Y-89847023D01*
X144534285Y-89799404D01*
X144343809Y-89751785D01*
X144200952Y-89751785D01*
X144010476Y-89799404D01*
X143915238Y-89847023D01*
X143820000Y-89942261D01*
X143772380Y-90085119D01*
X143772380Y-90180357D01*
X143820000Y-90323214D01*
X143867619Y-90370833D01*
X144105714Y-91227976D02*
X144772380Y-91227976D01*
X143724761Y-90989880D02*
X144439047Y-90751785D01*
X144439047Y-91370833D01*
X100095238Y-89252380D02*
X100428571Y-88776190D01*
X100666666Y-89252380D02*
X100666666Y-88252380D01*
X100285714Y-88252380D01*
X100190476Y-88300000D01*
X100142857Y-88347619D01*
X100095238Y-88442857D01*
X100095238Y-88585714D01*
X100142857Y-88680952D01*
X100190476Y-88728571D01*
X100285714Y-88776190D01*
X100666666Y-88776190D01*
X99809523Y-88252380D02*
X99476190Y-89252380D01*
X99142857Y-88252380D01*
X98285714Y-89252380D02*
X98857142Y-89252380D01*
X98571428Y-89252380D02*
X98571428Y-88252380D01*
X98666666Y-88395238D01*
X98761904Y-88490476D01*
X98857142Y-88538095D01*
X152152380Y-72933333D02*
X151676190Y-72600000D01*
X152152380Y-72361904D02*
X151152380Y-72361904D01*
X151152380Y-72742857D01*
X151200000Y-72838095D01*
X151247619Y-72885714D01*
X151342857Y-72933333D01*
X151485714Y-72933333D01*
X151580952Y-72885714D01*
X151628571Y-72838095D01*
X151676190Y-72742857D01*
X151676190Y-72361904D01*
X151485714Y-73790476D02*
X152152380Y-73790476D01*
X151104761Y-73552380D02*
X151819047Y-73314285D01*
X151819047Y-73933333D01*
X135232380Y-72407142D02*
X134756190Y-72073809D01*
X135232380Y-71835714D02*
X134232380Y-71835714D01*
X134232380Y-72216666D01*
X134280000Y-72311904D01*
X134327619Y-72359523D01*
X134422857Y-72407142D01*
X134565714Y-72407142D01*
X134660952Y-72359523D01*
X134708571Y-72311904D01*
X134756190Y-72216666D01*
X134756190Y-71835714D01*
X135232380Y-73359523D02*
X135232380Y-72788095D01*
X135232380Y-73073809D02*
X134232380Y-73073809D01*
X134375238Y-72978571D01*
X134470476Y-72883333D01*
X134518095Y-72788095D01*
X135232380Y-74311904D02*
X135232380Y-73740476D01*
X135232380Y-74026190D02*
X134232380Y-74026190D01*
X134375238Y-73930952D01*
X134470476Y-73835714D01*
X134518095Y-73740476D01*
X157447380Y-103966666D02*
X158161666Y-103966666D01*
X158304523Y-103919047D01*
X158399761Y-103823809D01*
X158447380Y-103680952D01*
X158447380Y-103585714D01*
X157447380Y-104871428D02*
X157447380Y-104680952D01*
X157495000Y-104585714D01*
X157542619Y-104538095D01*
X157685476Y-104442857D01*
X157875952Y-104395238D01*
X158256904Y-104395238D01*
X158352142Y-104442857D01*
X158399761Y-104490476D01*
X158447380Y-104585714D01*
X158447380Y-104776190D01*
X158399761Y-104871428D01*
X158352142Y-104919047D01*
X158256904Y-104966666D01*
X158018809Y-104966666D01*
X157923571Y-104919047D01*
X157875952Y-104871428D01*
X157828333Y-104776190D01*
X157828333Y-104585714D01*
X157875952Y-104490476D01*
X157923571Y-104442857D01*
X158018809Y-104395238D01*
X157697142Y-93994642D02*
X157744761Y-93947023D01*
X157792380Y-93804166D01*
X157792380Y-93708928D01*
X157744761Y-93566071D01*
X157649523Y-93470833D01*
X157554285Y-93423214D01*
X157363809Y-93375595D01*
X157220952Y-93375595D01*
X157030476Y-93423214D01*
X156935238Y-93470833D01*
X156840000Y-93566071D01*
X156792380Y-93708928D01*
X156792380Y-93804166D01*
X156840000Y-93947023D01*
X156887619Y-93994642D01*
X157792380Y-94947023D02*
X157792380Y-94375595D01*
X157792380Y-94661309D02*
X156792380Y-94661309D01*
X156935238Y-94566071D01*
X157030476Y-94470833D01*
X157078095Y-94375595D01*
X156792380Y-95280357D02*
X156792380Y-95899404D01*
X157173333Y-95566071D01*
X157173333Y-95708928D01*
X157220952Y-95804166D01*
X157268571Y-95851785D01*
X157363809Y-95899404D01*
X157601904Y-95899404D01*
X157697142Y-95851785D01*
X157744761Y-95804166D01*
X157792380Y-95708928D01*
X157792380Y-95423214D01*
X157744761Y-95327976D01*
X157697142Y-95280357D01*
X148199404Y-86902380D02*
X148199404Y-87711904D01*
X148151785Y-87807142D01*
X148104166Y-87854761D01*
X148008928Y-87902380D01*
X147818452Y-87902380D01*
X147723214Y-87854761D01*
X147675595Y-87807142D01*
X147627976Y-87711904D01*
X147627976Y-86902380D01*
X146627976Y-87902380D02*
X147199404Y-87902380D01*
X146913690Y-87902380D02*
X146913690Y-86902380D01*
X147008928Y-87045238D01*
X147104166Y-87140476D01*
X147199404Y-87188095D01*
X148377142Y-90370833D02*
X148424761Y-90323214D01*
X148472380Y-90180357D01*
X148472380Y-90085119D01*
X148424761Y-89942261D01*
X148329523Y-89847023D01*
X148234285Y-89799404D01*
X148043809Y-89751785D01*
X147900952Y-89751785D01*
X147710476Y-89799404D01*
X147615238Y-89847023D01*
X147520000Y-89942261D01*
X147472380Y-90085119D01*
X147472380Y-90180357D01*
X147520000Y-90323214D01*
X147567619Y-90370833D01*
X147472380Y-91275595D02*
X147472380Y-90799404D01*
X147948571Y-90751785D01*
X147900952Y-90799404D01*
X147853333Y-90894642D01*
X147853333Y-91132738D01*
X147900952Y-91227976D01*
X147948571Y-91275595D01*
X148043809Y-91323214D01*
X148281904Y-91323214D01*
X148377142Y-91275595D01*
X148424761Y-91227976D01*
X148472380Y-91132738D01*
X148472380Y-90894642D01*
X148424761Y-90799404D01*
X148377142Y-90751785D01*
X108452380Y-85038095D02*
X109261904Y-85038095D01*
X109357142Y-85085714D01*
X109404761Y-85133333D01*
X109452380Y-85228571D01*
X109452380Y-85419047D01*
X109404761Y-85514285D01*
X109357142Y-85561904D01*
X109261904Y-85609523D01*
X108452380Y-85609523D01*
X108785714Y-86514285D02*
X109452380Y-86514285D01*
X108404761Y-86276190D02*
X109119047Y-86038095D01*
X109119047Y-86657142D01*
X109452380Y-72311904D02*
X108452380Y-72311904D01*
X108452380Y-72550000D01*
X108500000Y-72692857D01*
X108595238Y-72788095D01*
X108690476Y-72835714D01*
X108880952Y-72883333D01*
X109023809Y-72883333D01*
X109214285Y-72835714D01*
X109309523Y-72788095D01*
X109404761Y-72692857D01*
X109452380Y-72550000D01*
X109452380Y-72311904D01*
X109452380Y-73835714D02*
X109452380Y-73264285D01*
X109452380Y-73550000D02*
X108452380Y-73550000D01*
X108595238Y-73454761D01*
X108690476Y-73359523D01*
X108738095Y-73264285D01*
X144357142Y-78933333D02*
X144404761Y-78885714D01*
X144452380Y-78742857D01*
X144452380Y-78647619D01*
X144404761Y-78504761D01*
X144309523Y-78409523D01*
X144214285Y-78361904D01*
X144023809Y-78314285D01*
X143880952Y-78314285D01*
X143690476Y-78361904D01*
X143595238Y-78409523D01*
X143500000Y-78504761D01*
X143452380Y-78647619D01*
X143452380Y-78742857D01*
X143500000Y-78885714D01*
X143547619Y-78933333D01*
X144452380Y-79885714D02*
X144452380Y-79314285D01*
X144452380Y-79600000D02*
X143452380Y-79600000D01*
X143595238Y-79504761D01*
X143690476Y-79409523D01*
X143738095Y-79314285D01*
X132188666Y-60431619D02*
X132188666Y-59717333D01*
X132141047Y-59574476D01*
X132045809Y-59479238D01*
X131902952Y-59431619D01*
X131807714Y-59431619D01*
X133141047Y-60431619D02*
X132664857Y-60431619D01*
X132617238Y-59955428D01*
X132664857Y-60003047D01*
X132760095Y-60050666D01*
X132998190Y-60050666D01*
X133093428Y-60003047D01*
X133141047Y-59955428D01*
X133188666Y-59860190D01*
X133188666Y-59622095D01*
X133141047Y-59526857D01*
X133093428Y-59479238D01*
X132998190Y-59431619D01*
X132760095Y-59431619D01*
X132664857Y-59479238D01*
X132617238Y-59526857D01*
X131531523Y-65281619D02*
X131198190Y-65757809D01*
X130960095Y-65281619D02*
X130960095Y-66281619D01*
X131341047Y-66281619D01*
X131436285Y-66234000D01*
X131483904Y-66186380D01*
X131531523Y-66091142D01*
X131531523Y-65948285D01*
X131483904Y-65853047D01*
X131436285Y-65805428D01*
X131341047Y-65757809D01*
X130960095Y-65757809D01*
X135936285Y-63829238D02*
X136079142Y-63781619D01*
X136317238Y-63781619D01*
X136412476Y-63829238D01*
X136460095Y-63876857D01*
X136507714Y-63972095D01*
X136507714Y-64067333D01*
X136460095Y-64162571D01*
X136412476Y-64210190D01*
X136317238Y-64257809D01*
X136126761Y-64305428D01*
X136031523Y-64353047D01*
X135983904Y-64400666D01*
X135936285Y-64495904D01*
X135936285Y-64591142D01*
X135983904Y-64686380D01*
X136031523Y-64734000D01*
X136126761Y-64781619D01*
X136364857Y-64781619D01*
X136507714Y-64734000D01*
X141186285Y-66281619D02*
X141757714Y-66281619D01*
X141472000Y-65281619D02*
X141472000Y-66281619D01*
X126424404Y-89852380D02*
X126424404Y-90661904D01*
X126376785Y-90757142D01*
X126329166Y-90804761D01*
X126233928Y-90852380D01*
X126043452Y-90852380D01*
X125948214Y-90804761D01*
X125900595Y-90757142D01*
X125852976Y-90661904D01*
X125852976Y-89852380D01*
X125472023Y-89852380D02*
X124852976Y-89852380D01*
X125186309Y-90233333D01*
X125043452Y-90233333D01*
X124948214Y-90280952D01*
X124900595Y-90328571D01*
X124852976Y-90423809D01*
X124852976Y-90661904D01*
X124900595Y-90757142D01*
X124948214Y-90804761D01*
X125043452Y-90852380D01*
X125329166Y-90852380D01*
X125424404Y-90804761D01*
X125472023Y-90757142D01*
X151390474Y-79033333D02*
X151438093Y-78985714D01*
X151485712Y-78842857D01*
X151485712Y-78747619D01*
X151438093Y-78604761D01*
X151342855Y-78509523D01*
X151247617Y-78461904D01*
X151057141Y-78414285D01*
X150914284Y-78414285D01*
X150723808Y-78461904D01*
X150628570Y-78509523D01*
X150533332Y-78604761D01*
X150485712Y-78747619D01*
X150485712Y-78842857D01*
X150533332Y-78985714D01*
X150580951Y-79033333D01*
X150485712Y-79366666D02*
X150485712Y-79985714D01*
X150866665Y-79652380D01*
X150866665Y-79795238D01*
X150914284Y-79890476D01*
X150961903Y-79938095D01*
X151057141Y-79985714D01*
X151295236Y-79985714D01*
X151390474Y-79938095D01*
X151438093Y-79890476D01*
X151485712Y-79795238D01*
X151485712Y-79509523D01*
X151438093Y-79414285D01*
X151390474Y-79366666D01*
X103994666Y-60431619D02*
X103994666Y-59717333D01*
X103947047Y-59574476D01*
X103851809Y-59479238D01*
X103708952Y-59431619D01*
X103613714Y-59431619D01*
X104423238Y-60336380D02*
X104470857Y-60384000D01*
X104566095Y-60431619D01*
X104804190Y-60431619D01*
X104899428Y-60384000D01*
X104947047Y-60336380D01*
X104994666Y-60241142D01*
X104994666Y-60145904D01*
X104947047Y-60003047D01*
X104375619Y-59431619D01*
X104994666Y-59431619D01*
X103337523Y-65281619D02*
X103004190Y-65757809D01*
X102766095Y-65281619D02*
X102766095Y-66281619D01*
X103147047Y-66281619D01*
X103242285Y-66234000D01*
X103289904Y-66186380D01*
X103337523Y-66091142D01*
X103337523Y-65948285D01*
X103289904Y-65853047D01*
X103242285Y-65805428D01*
X103147047Y-65757809D01*
X102766095Y-65757809D01*
X112992285Y-66281619D02*
X113563714Y-66281619D01*
X113278000Y-65281619D02*
X113278000Y-66281619D01*
X107742285Y-63829238D02*
X107885142Y-63781619D01*
X108123238Y-63781619D01*
X108218476Y-63829238D01*
X108266095Y-63876857D01*
X108313714Y-63972095D01*
X108313714Y-64067333D01*
X108266095Y-64162571D01*
X108218476Y-64210190D01*
X108123238Y-64257809D01*
X107932761Y-64305428D01*
X107837523Y-64353047D01*
X107789904Y-64400666D01*
X107742285Y-64495904D01*
X107742285Y-64591142D01*
X107789904Y-64686380D01*
X107837523Y-64734000D01*
X107932761Y-64781619D01*
X108170857Y-64781619D01*
X108313714Y-64734000D01*
X168472380Y-85333333D02*
X167996190Y-85000000D01*
X168472380Y-84761904D02*
X167472380Y-84761904D01*
X167472380Y-85142857D01*
X167520000Y-85238095D01*
X167567619Y-85285714D01*
X167662857Y-85333333D01*
X167805714Y-85333333D01*
X167900952Y-85285714D01*
X167948571Y-85238095D01*
X167996190Y-85142857D01*
X167996190Y-84761904D01*
X168472380Y-85809523D02*
X168472380Y-86000000D01*
X168424761Y-86095238D01*
X168377142Y-86142857D01*
X168234285Y-86238095D01*
X168043809Y-86285714D01*
X167662857Y-86285714D01*
X167567619Y-86238095D01*
X167520000Y-86190476D01*
X167472380Y-86095238D01*
X167472380Y-85904761D01*
X167520000Y-85809523D01*
X167567619Y-85761904D01*
X167662857Y-85714285D01*
X167900952Y-85714285D01*
X167996190Y-85761904D01*
X168043809Y-85809523D01*
X168091428Y-85904761D01*
X168091428Y-86095238D01*
X168043809Y-86190476D01*
X167996190Y-86238095D01*
X167900952Y-86285714D01*
X153161904Y-88652380D02*
X152590476Y-88652380D01*
X152876190Y-89652380D02*
X152876190Y-88652380D01*
X152257142Y-89652380D02*
X152257142Y-88652380D01*
X151876190Y-88652380D01*
X151780952Y-88700000D01*
X151733333Y-88747619D01*
X151685714Y-88842857D01*
X151685714Y-88985714D01*
X151733333Y-89080952D01*
X151780952Y-89128571D01*
X151876190Y-89176190D01*
X152257142Y-89176190D01*
X150828571Y-88652380D02*
X151019047Y-88652380D01*
X151114285Y-88700000D01*
X151161904Y-88747619D01*
X151257142Y-88890476D01*
X151304761Y-89080952D01*
X151304761Y-89461904D01*
X151257142Y-89557142D01*
X151209523Y-89604761D01*
X151114285Y-89652380D01*
X150923809Y-89652380D01*
X150828571Y-89604761D01*
X150780952Y-89557142D01*
X150733333Y-89461904D01*
X150733333Y-89223809D01*
X150780952Y-89128571D01*
X150828571Y-89080952D01*
X150923809Y-89033333D01*
X151114285Y-89033333D01*
X151209523Y-89080952D01*
X151257142Y-89128571D01*
X151304761Y-89223809D01*
X157563808Y-72407142D02*
X157611427Y-72359523D01*
X157659046Y-72216666D01*
X157659046Y-72121428D01*
X157611427Y-71978571D01*
X157516189Y-71883333D01*
X157420951Y-71835714D01*
X157230475Y-71788095D01*
X157087618Y-71788095D01*
X156897142Y-71835714D01*
X156801904Y-71883333D01*
X156706666Y-71978571D01*
X156659046Y-72121428D01*
X156659046Y-72216666D01*
X156706666Y-72359523D01*
X156754285Y-72407142D01*
X157659046Y-73359523D02*
X157659046Y-72788095D01*
X157659046Y-73073809D02*
X156659046Y-73073809D01*
X156801904Y-72978571D01*
X156897142Y-72883333D01*
X156944761Y-72788095D01*
X156992380Y-74216666D02*
X157659046Y-74216666D01*
X156611427Y-73978571D02*
X157325713Y-73740476D01*
X157325713Y-74359523D01*
X122206460Y-72407142D02*
X121730270Y-72073809D01*
X122206460Y-71835714D02*
X121206460Y-71835714D01*
X121206460Y-72216666D01*
X121254080Y-72311904D01*
X121301699Y-72359523D01*
X121396937Y-72407142D01*
X121539794Y-72407142D01*
X121635032Y-72359523D01*
X121682651Y-72311904D01*
X121730270Y-72216666D01*
X121730270Y-71835714D01*
X122206460Y-73359523D02*
X122206460Y-72788095D01*
X122206460Y-73073809D02*
X121206460Y-73073809D01*
X121349318Y-72978571D01*
X121444556Y-72883333D01*
X121492175Y-72788095D01*
X121206460Y-73978571D02*
X121206460Y-74073809D01*
X121254080Y-74169047D01*
X121301699Y-74216666D01*
X121396937Y-74264285D01*
X121587413Y-74311904D01*
X121825508Y-74311904D01*
X122015984Y-74264285D01*
X122111222Y-74216666D01*
X122158841Y-74169047D01*
X122206460Y-74073809D01*
X122206460Y-73978571D01*
X122158841Y-73883333D01*
X122111222Y-73835714D01*
X122015984Y-73788095D01*
X121825508Y-73740476D01*
X121587413Y-73740476D01*
X121396937Y-73788095D01*
X121301699Y-73835714D01*
X121254080Y-73883333D01*
X121206460Y-73978571D01*
X154957140Y-78995833D02*
X155004759Y-78948214D01*
X155052378Y-78805357D01*
X155052378Y-78710119D01*
X155004759Y-78567261D01*
X154909521Y-78472023D01*
X154814283Y-78424404D01*
X154623807Y-78376785D01*
X154480950Y-78376785D01*
X154290474Y-78424404D01*
X154195236Y-78472023D01*
X154099998Y-78567261D01*
X154052378Y-78710119D01*
X154052378Y-78805357D01*
X154099998Y-78948214D01*
X154147617Y-78995833D01*
X154480950Y-79567261D02*
X154433331Y-79472023D01*
X154385712Y-79424404D01*
X154290474Y-79376785D01*
X154242855Y-79376785D01*
X154147617Y-79424404D01*
X154099998Y-79472023D01*
X154052378Y-79567261D01*
X154052378Y-79757738D01*
X154099998Y-79852976D01*
X154147617Y-79900595D01*
X154242855Y-79948214D01*
X154290474Y-79948214D01*
X154385712Y-79900595D01*
X154433331Y-79852976D01*
X154480950Y-79757738D01*
X154480950Y-79567261D01*
X154528569Y-79472023D01*
X154576188Y-79424404D01*
X154671426Y-79376785D01*
X154861902Y-79376785D01*
X154957140Y-79424404D01*
X155004759Y-79472023D01*
X155052378Y-79567261D01*
X155052378Y-79757738D01*
X155004759Y-79852976D01*
X154957140Y-79900595D01*
X154861902Y-79948214D01*
X154671426Y-79948214D01*
X154576188Y-79900595D01*
X154528569Y-79852976D01*
X154480950Y-79757738D01*
X158523806Y-78933333D02*
X158571425Y-78885714D01*
X158619044Y-78742857D01*
X158619044Y-78647619D01*
X158571425Y-78504761D01*
X158476187Y-78409523D01*
X158380949Y-78361904D01*
X158190473Y-78314285D01*
X158047616Y-78314285D01*
X157857140Y-78361904D01*
X157761902Y-78409523D01*
X157666664Y-78504761D01*
X157619044Y-78647619D01*
X157619044Y-78742857D01*
X157666664Y-78885714D01*
X157714283Y-78933333D01*
X157619044Y-79790476D02*
X157619044Y-79600000D01*
X157666664Y-79504761D01*
X157714283Y-79457142D01*
X157857140Y-79361904D01*
X158047616Y-79314285D01*
X158428568Y-79314285D01*
X158523806Y-79361904D01*
X158571425Y-79409523D01*
X158619044Y-79504761D01*
X158619044Y-79695238D01*
X158571425Y-79790476D01*
X158523806Y-79838095D01*
X158428568Y-79885714D01*
X158190473Y-79885714D01*
X158095235Y-79838095D01*
X158047616Y-79790476D01*
X157999997Y-79695238D01*
X157999997Y-79504761D01*
X158047616Y-79409523D01*
X158095235Y-79361904D01*
X158190473Y-79314285D01*
X115693500Y-72407142D02*
X115217310Y-72073809D01*
X115693500Y-71835714D02*
X114693500Y-71835714D01*
X114693500Y-72216666D01*
X114741120Y-72311904D01*
X114788739Y-72359523D01*
X114883977Y-72407142D01*
X115026834Y-72407142D01*
X115122072Y-72359523D01*
X115169691Y-72311904D01*
X115217310Y-72216666D01*
X115217310Y-71835714D01*
X115693500Y-73359523D02*
X115693500Y-72788095D01*
X115693500Y-73073809D02*
X114693500Y-73073809D01*
X114836358Y-72978571D01*
X114931596Y-72883333D01*
X114979215Y-72788095D01*
X114693500Y-73692857D02*
X114693500Y-74311904D01*
X115074453Y-73978571D01*
X115074453Y-74121428D01*
X115122072Y-74216666D01*
X115169691Y-74264285D01*
X115264929Y-74311904D01*
X115503024Y-74311904D01*
X115598262Y-74264285D01*
X115645881Y-74216666D01*
X115693500Y-74121428D01*
X115693500Y-73835714D01*
X115645881Y-73740476D01*
X115598262Y-73692857D01*
X162552380Y-72883333D02*
X162076190Y-72550000D01*
X162552380Y-72311904D02*
X161552380Y-72311904D01*
X161552380Y-72692857D01*
X161600000Y-72788095D01*
X161647619Y-72835714D01*
X161742857Y-72883333D01*
X161885714Y-72883333D01*
X161980952Y-72835714D01*
X162028571Y-72788095D01*
X162076190Y-72692857D01*
X162076190Y-72311904D01*
X162552380Y-73835714D02*
X162552380Y-73264285D01*
X162552380Y-73550000D02*
X161552380Y-73550000D01*
X161695238Y-73454761D01*
X161790476Y-73359523D01*
X161838095Y-73264285D01*
X149791666Y-60447619D02*
X149791666Y-59733333D01*
X149744047Y-59590476D01*
X149648809Y-59495238D01*
X149505952Y-59447619D01*
X149410714Y-59447619D01*
X150791666Y-59447619D02*
X150220238Y-59447619D01*
X150505952Y-59447619D02*
X150505952Y-60447619D01*
X150410714Y-60304761D01*
X150315476Y-60209523D01*
X150220238Y-60161904D01*
X149134523Y-65297619D02*
X148801190Y-65773809D01*
X148563095Y-65297619D02*
X148563095Y-66297619D01*
X148944047Y-66297619D01*
X149039285Y-66250000D01*
X149086904Y-66202380D01*
X149134523Y-66107142D01*
X149134523Y-65964285D01*
X149086904Y-65869047D01*
X149039285Y-65821428D01*
X148944047Y-65773809D01*
X148563095Y-65773809D01*
X153539285Y-63845238D02*
X153682142Y-63797619D01*
X153920238Y-63797619D01*
X154015476Y-63845238D01*
X154063095Y-63892857D01*
X154110714Y-63988095D01*
X154110714Y-64083333D01*
X154063095Y-64178571D01*
X154015476Y-64226190D01*
X153920238Y-64273809D01*
X153729761Y-64321428D01*
X153634523Y-64369047D01*
X153586904Y-64416666D01*
X153539285Y-64511904D01*
X153539285Y-64607142D01*
X153586904Y-64702380D01*
X153634523Y-64750000D01*
X153729761Y-64797619D01*
X153967857Y-64797619D01*
X154110714Y-64750000D01*
X158789285Y-66297619D02*
X159360714Y-66297619D01*
X159075000Y-65297619D02*
X159075000Y-66297619D01*
X147914608Y-78995833D02*
X147962227Y-78948214D01*
X148009846Y-78805357D01*
X148009846Y-78710119D01*
X147962227Y-78567261D01*
X147866989Y-78472023D01*
X147771751Y-78424404D01*
X147581275Y-78376785D01*
X147438418Y-78376785D01*
X147247942Y-78424404D01*
X147152704Y-78472023D01*
X147057466Y-78567261D01*
X147009846Y-78710119D01*
X147009846Y-78805357D01*
X147057466Y-78948214D01*
X147105085Y-78995833D01*
X147105085Y-79376785D02*
X147057466Y-79424404D01*
X147009846Y-79519642D01*
X147009846Y-79757738D01*
X147057466Y-79852976D01*
X147105085Y-79900595D01*
X147200323Y-79948214D01*
X147295561Y-79948214D01*
X147438418Y-79900595D01*
X148009846Y-79329166D01*
X148009846Y-79948214D01*
X154177142Y-94470833D02*
X154224761Y-94423214D01*
X154272380Y-94280357D01*
X154272380Y-94185119D01*
X154224761Y-94042261D01*
X154129523Y-93947023D01*
X154034285Y-93899404D01*
X153843809Y-93851785D01*
X153700952Y-93851785D01*
X153510476Y-93899404D01*
X153415238Y-93947023D01*
X153320000Y-94042261D01*
X153272380Y-94185119D01*
X153272380Y-94280357D01*
X153320000Y-94423214D01*
X153367619Y-94470833D01*
X154272380Y-94947023D02*
X154272380Y-95137500D01*
X154224761Y-95232738D01*
X154177142Y-95280357D01*
X154034285Y-95375595D01*
X153843809Y-95423214D01*
X153462857Y-95423214D01*
X153367619Y-95375595D01*
X153320000Y-95327976D01*
X153272380Y-95232738D01*
X153272380Y-95042261D01*
X153320000Y-94947023D01*
X153367619Y-94899404D01*
X153462857Y-94851785D01*
X153700952Y-94851785D01*
X153796190Y-94899404D01*
X153843809Y-94947023D01*
X153891428Y-95042261D01*
X153891428Y-95232738D01*
X153843809Y-95327976D01*
X153796190Y-95375595D01*
X153700952Y-95423214D01*
D13*
X173918400Y-133372400D02*
X175248400Y-133372400D01*
X172648400Y-130772400D02*
X175248400Y-130772400D01*
X170048400Y-133372400D02*
X172648400Y-133372400D01*
X170048400Y-133372400D02*
X170048400Y-82452400D01*
X170048400Y-82452400D02*
X175248400Y-82452400D01*
X172648400Y-133372400D02*
X172648400Y-130772400D01*
X175248400Y-133372400D02*
X175248400Y-132042400D01*
X175248400Y-130772400D02*
X175248400Y-82452400D01*
X161185000Y-87500000D02*
X161185000Y-85300000D01*
X161185000Y-87500000D02*
X161185000Y-89700000D01*
X154415000Y-87500000D02*
X154415000Y-83900000D01*
X154415000Y-87500000D02*
X154415000Y-89700000D01*
X143700000Y-88000000D02*
G75*
G03*
X143700000Y-88000000I-700000J0D01*
G01*
X127811252Y-93435000D02*
X127288748Y-93435000D01*
X127811252Y-91965000D02*
X127288748Y-91965000D01*
X164168330Y-79423752D02*
X164168330Y-78901248D01*
X162698330Y-79423752D02*
X162698330Y-78901248D01*
X188685000Y-110927064D02*
X188685000Y-109472936D01*
X186865000Y-110927064D02*
X186865000Y-109472936D01*
X105285200Y-72322936D02*
X105285200Y-73777064D01*
X103465200Y-72322936D02*
X103465200Y-73777064D01*
X147865000Y-72801248D02*
X147865000Y-73323752D01*
X149335000Y-72801248D02*
X149335000Y-73323752D01*
X213235000Y-97651248D02*
X213235000Y-98173752D01*
X211765000Y-97651248D02*
X211765000Y-98173752D01*
X211765000Y-91073752D02*
X211765000Y-90551248D01*
X213235000Y-91073752D02*
X213235000Y-90551248D01*
X166265000Y-79423752D02*
X166265000Y-78901248D01*
X167735000Y-79423752D02*
X167735000Y-78901248D01*
X167110000Y-92477064D02*
X167110000Y-91022936D01*
X165290000Y-92477064D02*
X165290000Y-91022936D01*
X112572936Y-98510000D02*
X114027064Y-98510000D01*
X112572936Y-96690000D02*
X114027064Y-96690000D01*
X130997040Y-72322936D02*
X130997040Y-73777064D01*
X129177040Y-72322936D02*
X129177040Y-73777064D01*
X144500000Y-81900000D02*
G75*
G03*
X144500000Y-81900000I-700000J0D01*
G01*
X205015000Y-110927064D02*
X205015000Y-109472936D01*
X206835000Y-110927064D02*
X206835000Y-109472936D01*
X167110000Y-112972936D02*
X167110000Y-114427064D01*
X165290000Y-112972936D02*
X165290000Y-114427064D01*
X197760000Y-110927064D02*
X197760000Y-109472936D01*
X195940000Y-110927064D02*
X195940000Y-109472936D01*
X115775000Y-69484000D02*
X128625000Y-69484000D01*
X145265000Y-90276248D02*
X145265000Y-90798752D01*
X146735000Y-90276248D02*
X146735000Y-90798752D01*
X98090000Y-91260000D02*
G75*
G03*
X99400000Y-92570000I1310000J0D01*
G01*
X103400000Y-92570000D02*
G75*
G03*
X104710000Y-91260000I0J1310000D01*
G01*
X154410000Y-73827064D02*
X154410000Y-72372936D01*
X152590000Y-73827064D02*
X152590000Y-72372936D01*
X135690000Y-72322936D02*
X135690000Y-73777064D01*
X137510000Y-72322936D02*
X137510000Y-73777064D01*
X164195000Y-102970000D02*
X164195000Y-105630000D01*
X161595000Y-102970000D02*
X161595000Y-105630000D01*
X160325000Y-102970000D02*
X158995000Y-102970000D01*
X158995000Y-102970000D02*
X158995000Y-104300000D01*
X161595000Y-105630000D02*
X164195000Y-105630000D01*
X161595000Y-102970000D02*
X164195000Y-102970000D01*
X158285000Y-94376248D02*
X158285000Y-94898752D01*
X159755000Y-94376248D02*
X159755000Y-94898752D01*
X147437500Y-86610000D02*
X148237500Y-86610000D01*
X147437500Y-83490000D02*
X148237500Y-83490000D01*
X147437500Y-86610000D02*
X145637500Y-86610000D01*
X147437500Y-83490000D02*
X146637500Y-83490000D01*
X148965000Y-90276248D02*
X148965000Y-90798752D01*
X150435000Y-90276248D02*
X150435000Y-90798752D01*
X109740000Y-85850000D02*
X116860000Y-85850000D01*
X116860000Y-85850000D02*
X116860000Y-92350000D01*
X116860000Y-92350000D02*
X109740000Y-92350000D01*
X109740000Y-92350000D02*
X109740000Y-85850000D01*
X110840512Y-86650000D02*
G75*
G03*
X110840512Y-86650000I-390512J0D01*
G01*
X111568160Y-74550000D02*
X109868160Y-74550000D01*
X111568160Y-74550000D02*
X111568160Y-72000000D01*
X109868160Y-74550000D02*
X109868160Y-72000000D01*
X146335000Y-79423752D02*
X146335000Y-78901248D01*
X144865000Y-79423752D02*
X144865000Y-78901248D01*
X129872000Y-69484000D02*
X142722000Y-69484000D01*
X125662500Y-89560000D02*
X127862500Y-89560000D01*
X125662500Y-84340000D02*
X127862500Y-84340000D01*
X125662500Y-84340000D02*
X123462500Y-84340000D01*
X125662500Y-89560000D02*
X122062500Y-89560000D01*
X153468332Y-79423752D02*
X153468332Y-78901248D01*
X151998332Y-79423752D02*
X151998332Y-78901248D01*
X101678000Y-69484000D02*
X114528000Y-69484000D01*
X167110000Y-86227064D02*
X167110000Y-84772936D01*
X165290000Y-86227064D02*
X165290000Y-84772936D01*
X152600000Y-87500000D02*
G75*
G03*
X152600000Y-87500000I-700000J0D01*
G01*
X159621666Y-72788748D02*
X159621666Y-73311252D01*
X158151666Y-72788748D02*
X158151666Y-73311252D01*
X122664080Y-72322936D02*
X122664080Y-73777064D01*
X124484080Y-72322936D02*
X124484080Y-73777064D01*
X155564998Y-79423752D02*
X155564998Y-78901248D01*
X157034998Y-79423752D02*
X157034998Y-78901248D01*
X160601664Y-79423752D02*
X160601664Y-78901248D01*
X159131664Y-79423752D02*
X159131664Y-78901248D01*
X117971120Y-72322936D02*
X117971120Y-73777064D01*
X116151120Y-72322936D02*
X116151120Y-73777064D01*
X164810000Y-73777064D02*
X164810000Y-72322936D01*
X162990000Y-73777064D02*
X162990000Y-72322936D01*
X147475000Y-69500000D02*
X160325000Y-69500000D01*
X149901666Y-79423752D02*
X149901666Y-78901248D01*
X148431666Y-79423752D02*
X148431666Y-78901248D01*
X154765000Y-94376248D02*
X154765000Y-94898752D01*
X156235000Y-94376248D02*
X156235000Y-94898752D01*
%LPC*%
D14*
X164100000Y-62700000D03*
D15*
X107820000Y-124200000D03*
D16*
X112900000Y-124200000D03*
D15*
X117980000Y-124200000D03*
D17*
X115440000Y-119120000D03*
X109090000Y-121660000D03*
D18*
X97628900Y-109877200D03*
X97628900Y-78876500D03*
D19*
X103128000Y-78876500D03*
D20*
X105668000Y-78876500D03*
X108208000Y-78876500D03*
X110748000Y-78876500D03*
X113288000Y-78876500D03*
X115828000Y-78876500D03*
X118368000Y-78876500D03*
X120908000Y-78876500D03*
X123448000Y-78876500D03*
X125988000Y-78876500D03*
X128528000Y-78876500D03*
X131068000Y-78876500D03*
X133608000Y-78876500D03*
X136148000Y-78876500D03*
X138688000Y-78876500D03*
X141228000Y-78876500D03*
D21*
X204368400Y-96876500D03*
D22*
X204368400Y-91876500D03*
X204368400Y-94376500D03*
D23*
X196868400Y-99976500D03*
D24*
X196868400Y-88776500D03*
D22*
X189868400Y-91876500D03*
X189868400Y-96876500D03*
D15*
X130670000Y-124200000D03*
X140830000Y-124200000D03*
D16*
X135750000Y-124200000D03*
D17*
X138290000Y-119120000D03*
X131940000Y-121660000D03*
D14*
X97900000Y-137000000D03*
D15*
X153520000Y-124200000D03*
D16*
X158600000Y-124200000D03*
D15*
X163680000Y-124200000D03*
D17*
X161140000Y-119120000D03*
X154790000Y-121660000D03*
D14*
X172618400Y-136892400D03*
X221618400Y-78892400D03*
X172618400Y-78892400D03*
X221618400Y-136892400D03*
D25*
X173918400Y-132042400D03*
D26*
X171378400Y-132042400D03*
X173918400Y-129502400D03*
X171378400Y-129502400D03*
X173918400Y-126962400D03*
X171378400Y-126962400D03*
X173918400Y-124422400D03*
X171378400Y-124422400D03*
X173918400Y-121882400D03*
X171378400Y-121882400D03*
X173918400Y-119342400D03*
X171378400Y-119342400D03*
X173918400Y-116802400D03*
X171378400Y-116802400D03*
X173918400Y-114262400D03*
X171378400Y-114262400D03*
X173918400Y-111722400D03*
X171378400Y-111722400D03*
X173918400Y-109182400D03*
X171378400Y-109182400D03*
X173918400Y-106642400D03*
X171378400Y-106642400D03*
X173918400Y-104102400D03*
X171378400Y-104102400D03*
X173918400Y-101562400D03*
X171378400Y-101562400D03*
X173918400Y-99022400D03*
X171378400Y-99022400D03*
X173918400Y-96482400D03*
X171378400Y-96482400D03*
X173918400Y-93942400D03*
X171378400Y-93942400D03*
X173918400Y-91402400D03*
X171378400Y-91402400D03*
X173918400Y-88862400D03*
X171378400Y-88862400D03*
X173918400Y-86322400D03*
X171378400Y-86322400D03*
X173918400Y-83782400D03*
X171378400Y-83782400D03*
D14*
X97900000Y-62700000D03*
D27*
X154875000Y-84637500D03*
X155525000Y-84637500D03*
X156175000Y-84637500D03*
X156825000Y-84637500D03*
X157475000Y-84637500D03*
X158125000Y-84637500D03*
X158775000Y-84637500D03*
X159425000Y-84637500D03*
X160075000Y-84637500D03*
X160725000Y-84637500D03*
X160725000Y-90362500D03*
X160075000Y-90362500D03*
X159425000Y-90362500D03*
X158775000Y-90362500D03*
X158125000Y-90362500D03*
X157475000Y-90362500D03*
X156825000Y-90362500D03*
X156175000Y-90362500D03*
X155525000Y-90362500D03*
X154875000Y-90362500D03*
D28*
X143000000Y-88000000D03*
D29*
X128587500Y-92700000D03*
X126512500Y-92700000D03*
D30*
X163433330Y-80200000D03*
X163433330Y-78125000D03*
D31*
X187775000Y-111750000D03*
X187775000Y-108650000D03*
D32*
X104375200Y-71500000D03*
X104375200Y-74600000D03*
D33*
X148600000Y-72025000D03*
X148600000Y-74100000D03*
X212500000Y-96875000D03*
X212500000Y-98950000D03*
D30*
X212500000Y-91850000D03*
X212500000Y-89775000D03*
X167000000Y-80200000D03*
X167000000Y-78125000D03*
D31*
X166200000Y-93300000D03*
X166200000Y-90200000D03*
D34*
X111750000Y-97600000D03*
X114850000Y-97600000D03*
D32*
X130087040Y-71500000D03*
X130087040Y-74600000D03*
D28*
X143800000Y-81900000D03*
D31*
X205925000Y-111750000D03*
X205925000Y-108650000D03*
D32*
X166200000Y-112150000D03*
X166200000Y-115250000D03*
D31*
X196850000Y-111750000D03*
X196850000Y-108650000D03*
D22*
X122205000Y-62404000D03*
X117125000Y-67484000D03*
X119665000Y-67484000D03*
X124745000Y-67484000D03*
X127285000Y-67484000D03*
D33*
X146000000Y-89500000D03*
X146000000Y-91575000D03*
D21*
X103900000Y-86760000D03*
D22*
X101400000Y-91760000D03*
X98900000Y-86760000D03*
D31*
X153500000Y-74650000D03*
X153500000Y-71550000D03*
D32*
X136600000Y-71500000D03*
X136600000Y-74600000D03*
D35*
X160325000Y-104300000D03*
D26*
X162865000Y-104300000D03*
D33*
X159020000Y-93600000D03*
X159020000Y-95675000D03*
D36*
X146300000Y-86000000D03*
X146300000Y-85050000D03*
X146300000Y-84100000D03*
X148575000Y-84100000D03*
X148575000Y-86000000D03*
D33*
X149700000Y-89500000D03*
X149700000Y-91575000D03*
D37*
X110760000Y-84600000D03*
X113300000Y-84600000D03*
X115840000Y-84600000D03*
X115840000Y-93600000D03*
X113300000Y-93600000D03*
X110760000Y-93600000D03*
D38*
X110718160Y-74100000D03*
X110718160Y-72000000D03*
D30*
X145600000Y-80200000D03*
X145600000Y-78125000D03*
D22*
X136302000Y-62404000D03*
X131222000Y-67484000D03*
X133762000Y-67484000D03*
X138842000Y-67484000D03*
X141382000Y-67484000D03*
D39*
X122800000Y-88900000D03*
X122800000Y-88250000D03*
X122800000Y-87600000D03*
X122800000Y-86950000D03*
X122800000Y-86300000D03*
X122800000Y-85650000D03*
X122800000Y-85000000D03*
X128525000Y-85000000D03*
X128525000Y-85650000D03*
X128525000Y-86300000D03*
X128525000Y-86950000D03*
X128525000Y-87600000D03*
X128525000Y-88250000D03*
X128525000Y-88900000D03*
D30*
X152733332Y-80200000D03*
X152733332Y-78125000D03*
D22*
X108108000Y-62404000D03*
X103028000Y-67484000D03*
X105568000Y-67484000D03*
X110648000Y-67484000D03*
X113188000Y-67484000D03*
D31*
X166200000Y-87050000D03*
X166200000Y-83950000D03*
D28*
X151900000Y-87500000D03*
D33*
X158886666Y-72012500D03*
X158886666Y-74087500D03*
D32*
X123574080Y-71500000D03*
X123574080Y-74600000D03*
D30*
X156299998Y-80200000D03*
X156299998Y-78125000D03*
X159866664Y-80200000D03*
X159866664Y-78125000D03*
D32*
X117061120Y-71500000D03*
X117061120Y-74600000D03*
D31*
X163900000Y-74600000D03*
X163900000Y-71500000D03*
D22*
X153905000Y-62420000D03*
X148825000Y-67500000D03*
X151365000Y-67500000D03*
X156445000Y-67500000D03*
X158985000Y-67500000D03*
D30*
X149166666Y-80200000D03*
X149166666Y-78125000D03*
D33*
X155500000Y-93600000D03*
X155500000Y-95675000D03*
M02*
