%TF.GenerationSoftware,KiCad,Pcbnew,6.0.11*%
%TF.CreationDate,2024-07-27T16:02:51-05:00*%
%TF.ProjectId,minidexed,6d696e69-6465-4786-9564-2e6b69636164,rev?*%
%TF.SameCoordinates,Original*%
%TF.FileFunction,Drillmap*%
%TF.FilePolarity,Positive*%
%FSLAX45Y45*%
G04 Gerber Fmt 4.5, Leading zero omitted, Abs format (unit mm)*
G04 Created by KiCad (PCBNEW 6.0.11) date 2024-07-27 16:02:51*
%MOMM*%
%LPD*%
G01*
G04 APERTURE LIST*
%ADD10C,0.100000*%
%ADD11C,0.200000*%
%ADD12C,0.170000*%
%ADD13C,0.270000*%
%ADD14C,0.400000*%
G04 APERTURE END LIST*
D10*
X22525000Y-7600000D02*
X22525000Y-14050000D01*
X9450000Y-14050000D02*
X9450000Y-5900000D01*
X16750000Y-7600000D02*
X22525000Y-7600000D01*
X22525000Y-14050000D02*
X9450000Y-14050000D01*
X9450000Y-5900000D02*
X16750000Y-5900000D01*
X16750000Y-5900000D02*
X16750000Y-7600000D01*
D11*
D12*
X10697000Y-12335000D02*
X10867000Y-12505000D01*
X10867000Y-12335000D02*
X10697000Y-12505000D01*
X11713000Y-12335000D02*
X11883000Y-12505000D01*
X11883000Y-12335000D02*
X11713000Y-12505000D01*
X12982000Y-12335000D02*
X13152000Y-12505000D01*
X13152000Y-12335000D02*
X12982000Y-12505000D01*
X13998000Y-12335000D02*
X14168000Y-12505000D01*
X14168000Y-12335000D02*
X13998000Y-12505000D01*
X15267000Y-12335000D02*
X15437000Y-12505000D01*
X15437000Y-12335000D02*
X15267000Y-12505000D01*
X16283000Y-12335000D02*
X16453000Y-12505000D01*
X16453000Y-12335000D02*
X16283000Y-12505000D01*
D13*
X9925000Y-6270000D02*
G75*
G03*
X9925000Y-6270000I-135000J0D01*
G01*
X9925000Y-13700000D02*
G75*
G03*
X9925000Y-13700000I-135000J0D01*
G01*
X16545000Y-6270000D02*
G75*
G03*
X16545000Y-6270000I-135000J0D01*
G01*
X17396840Y-7889240D02*
G75*
G03*
X17396840Y-7889240I-135000J0D01*
G01*
X17396840Y-13689240D02*
G75*
G03*
X17396840Y-13689240I-135000J0D01*
G01*
X22296840Y-7889240D02*
G75*
G03*
X22296840Y-7889240I-135000J0D01*
G01*
X22296840Y-13689240D02*
G75*
G03*
X22296840Y-13689240I-135000J0D01*
G01*
D14*
X11290000Y-12220000D02*
X11290000Y-12620000D01*
X11090000Y-12420000D02*
X11490000Y-12420000D01*
X13575000Y-12220000D02*
X13575000Y-12620000D01*
X13375000Y-12420000D02*
X13775000Y-12420000D01*
X15860000Y-12220000D02*
X15860000Y-12620000D01*
X15660000Y-12420000D02*
X16060000Y-12420000D01*
D11*
X9702619Y-14365476D02*
X9702619Y-14165476D01*
X9750238Y-14165476D01*
X9778810Y-14175000D01*
X9797857Y-14194048D01*
X9807381Y-14213095D01*
X9816905Y-14251190D01*
X9816905Y-14279762D01*
X9807381Y-14317857D01*
X9797857Y-14336905D01*
X9778810Y-14355952D01*
X9750238Y-14365476D01*
X9702619Y-14365476D01*
X9902619Y-14365476D02*
X9902619Y-14232143D01*
X9902619Y-14270238D02*
X9912143Y-14251190D01*
X9921667Y-14241667D01*
X9940714Y-14232143D01*
X9959762Y-14232143D01*
X10026429Y-14365476D02*
X10026429Y-14232143D01*
X10026429Y-14165476D02*
X10016905Y-14175000D01*
X10026429Y-14184524D01*
X10035952Y-14175000D01*
X10026429Y-14165476D01*
X10026429Y-14184524D01*
X10150238Y-14365476D02*
X10131190Y-14355952D01*
X10121667Y-14336905D01*
X10121667Y-14165476D01*
X10255000Y-14365476D02*
X10235952Y-14355952D01*
X10226429Y-14336905D01*
X10226429Y-14165476D01*
X10483571Y-14365476D02*
X10483571Y-14165476D01*
X10550238Y-14308333D01*
X10616905Y-14165476D01*
X10616905Y-14365476D01*
X10797857Y-14365476D02*
X10797857Y-14260714D01*
X10788333Y-14241667D01*
X10769286Y-14232143D01*
X10731190Y-14232143D01*
X10712143Y-14241667D01*
X10797857Y-14355952D02*
X10778810Y-14365476D01*
X10731190Y-14365476D01*
X10712143Y-14355952D01*
X10702619Y-14336905D01*
X10702619Y-14317857D01*
X10712143Y-14298809D01*
X10731190Y-14289286D01*
X10778810Y-14289286D01*
X10797857Y-14279762D01*
X10893095Y-14232143D02*
X10893095Y-14432143D01*
X10893095Y-14241667D02*
X10912143Y-14232143D01*
X10950238Y-14232143D01*
X10969286Y-14241667D01*
X10978810Y-14251190D01*
X10988333Y-14270238D01*
X10988333Y-14327381D01*
X10978810Y-14346428D01*
X10969286Y-14355952D01*
X10950238Y-14365476D01*
X10912143Y-14365476D01*
X10893095Y-14355952D01*
X11074048Y-14346428D02*
X11083571Y-14355952D01*
X11074048Y-14365476D01*
X11064524Y-14355952D01*
X11074048Y-14346428D01*
X11074048Y-14365476D01*
X11074048Y-14241667D02*
X11083571Y-14251190D01*
X11074048Y-14260714D01*
X11064524Y-14251190D01*
X11074048Y-14241667D01*
X11074048Y-14260714D01*
D12*
X9275000Y-14610000D02*
X9445000Y-14780000D01*
X9445000Y-14610000D02*
X9275000Y-14780000D01*
D11*
X9807381Y-14785476D02*
X9693095Y-14785476D01*
X9750238Y-14785476D02*
X9750238Y-14585476D01*
X9731190Y-14614048D01*
X9712143Y-14633095D01*
X9693095Y-14642619D01*
X9893095Y-14766428D02*
X9902619Y-14775952D01*
X9893095Y-14785476D01*
X9883571Y-14775952D01*
X9893095Y-14766428D01*
X9893095Y-14785476D01*
X9969286Y-14585476D02*
X10102619Y-14585476D01*
X10016905Y-14785476D01*
X10216905Y-14585476D02*
X10235952Y-14585476D01*
X10255000Y-14595000D01*
X10264524Y-14604524D01*
X10274048Y-14623571D01*
X10283571Y-14661667D01*
X10283571Y-14709286D01*
X10274048Y-14747381D01*
X10264524Y-14766428D01*
X10255000Y-14775952D01*
X10235952Y-14785476D01*
X10216905Y-14785476D01*
X10197857Y-14775952D01*
X10188333Y-14766428D01*
X10178810Y-14747381D01*
X10169286Y-14709286D01*
X10169286Y-14661667D01*
X10178810Y-14623571D01*
X10188333Y-14604524D01*
X10197857Y-14595000D01*
X10216905Y-14585476D01*
X10407381Y-14585476D02*
X10426429Y-14585476D01*
X10445476Y-14595000D01*
X10455000Y-14604524D01*
X10464524Y-14623571D01*
X10474048Y-14661667D01*
X10474048Y-14709286D01*
X10464524Y-14747381D01*
X10455000Y-14766428D01*
X10445476Y-14775952D01*
X10426429Y-14785476D01*
X10407381Y-14785476D01*
X10388333Y-14775952D01*
X10378810Y-14766428D01*
X10369286Y-14747381D01*
X10359762Y-14709286D01*
X10359762Y-14661667D01*
X10369286Y-14623571D01*
X10378810Y-14604524D01*
X10388333Y-14595000D01*
X10407381Y-14585476D01*
X10559762Y-14785476D02*
X10559762Y-14652143D01*
X10559762Y-14671190D02*
X10569286Y-14661667D01*
X10588333Y-14652143D01*
X10616905Y-14652143D01*
X10635952Y-14661667D01*
X10645476Y-14680714D01*
X10645476Y-14785476D01*
X10645476Y-14680714D02*
X10655000Y-14661667D01*
X10674048Y-14652143D01*
X10702619Y-14652143D01*
X10721667Y-14661667D01*
X10731190Y-14680714D01*
X10731190Y-14785476D01*
X10826429Y-14785476D02*
X10826429Y-14652143D01*
X10826429Y-14671190D02*
X10835952Y-14661667D01*
X10855000Y-14652143D01*
X10883571Y-14652143D01*
X10902619Y-14661667D01*
X10912143Y-14680714D01*
X10912143Y-14785476D01*
X10912143Y-14680714D02*
X10921667Y-14661667D01*
X10940714Y-14652143D01*
X10969286Y-14652143D01*
X10988333Y-14661667D01*
X10997857Y-14680714D01*
X10997857Y-14785476D01*
X11388333Y-14575952D02*
X11216905Y-14833095D01*
X11645476Y-14585476D02*
X11664524Y-14585476D01*
X11683571Y-14595000D01*
X11693095Y-14604524D01*
X11702619Y-14623571D01*
X11712143Y-14661667D01*
X11712143Y-14709286D01*
X11702619Y-14747381D01*
X11693095Y-14766428D01*
X11683571Y-14775952D01*
X11664524Y-14785476D01*
X11645476Y-14785476D01*
X11626428Y-14775952D01*
X11616905Y-14766428D01*
X11607381Y-14747381D01*
X11597857Y-14709286D01*
X11597857Y-14661667D01*
X11607381Y-14623571D01*
X11616905Y-14604524D01*
X11626428Y-14595000D01*
X11645476Y-14585476D01*
X11797857Y-14766428D02*
X11807381Y-14775952D01*
X11797857Y-14785476D01*
X11788333Y-14775952D01*
X11797857Y-14766428D01*
X11797857Y-14785476D01*
X11931190Y-14585476D02*
X11950238Y-14585476D01*
X11969286Y-14595000D01*
X11978809Y-14604524D01*
X11988333Y-14623571D01*
X11997857Y-14661667D01*
X11997857Y-14709286D01*
X11988333Y-14747381D01*
X11978809Y-14766428D01*
X11969286Y-14775952D01*
X11950238Y-14785476D01*
X11931190Y-14785476D01*
X11912143Y-14775952D01*
X11902619Y-14766428D01*
X11893095Y-14747381D01*
X11883571Y-14709286D01*
X11883571Y-14661667D01*
X11893095Y-14623571D01*
X11902619Y-14604524D01*
X11912143Y-14595000D01*
X11931190Y-14585476D01*
X12169286Y-14585476D02*
X12131190Y-14585476D01*
X12112143Y-14595000D01*
X12102619Y-14604524D01*
X12083571Y-14633095D01*
X12074048Y-14671190D01*
X12074048Y-14747381D01*
X12083571Y-14766428D01*
X12093095Y-14775952D01*
X12112143Y-14785476D01*
X12150238Y-14785476D01*
X12169286Y-14775952D01*
X12178809Y-14766428D01*
X12188333Y-14747381D01*
X12188333Y-14699762D01*
X12178809Y-14680714D01*
X12169286Y-14671190D01*
X12150238Y-14661667D01*
X12112143Y-14661667D01*
X12093095Y-14671190D01*
X12083571Y-14680714D01*
X12074048Y-14699762D01*
X12359762Y-14585476D02*
X12321667Y-14585476D01*
X12302619Y-14595000D01*
X12293095Y-14604524D01*
X12274048Y-14633095D01*
X12264524Y-14671190D01*
X12264524Y-14747381D01*
X12274048Y-14766428D01*
X12283571Y-14775952D01*
X12302619Y-14785476D01*
X12340714Y-14785476D01*
X12359762Y-14775952D01*
X12369286Y-14766428D01*
X12378809Y-14747381D01*
X12378809Y-14699762D01*
X12369286Y-14680714D01*
X12359762Y-14671190D01*
X12340714Y-14661667D01*
X12302619Y-14661667D01*
X12283571Y-14671190D01*
X12274048Y-14680714D01*
X12264524Y-14699762D01*
X12474048Y-14785476D02*
X12512143Y-14785476D01*
X12531190Y-14775952D01*
X12540714Y-14766428D01*
X12559762Y-14737857D01*
X12569286Y-14699762D01*
X12569286Y-14623571D01*
X12559762Y-14604524D01*
X12550238Y-14595000D01*
X12531190Y-14585476D01*
X12493095Y-14585476D01*
X12474048Y-14595000D01*
X12464524Y-14604524D01*
X12455000Y-14623571D01*
X12455000Y-14671190D01*
X12464524Y-14690238D01*
X12474048Y-14699762D01*
X12493095Y-14709286D01*
X12531190Y-14709286D01*
X12550238Y-14699762D01*
X12559762Y-14690238D01*
X12569286Y-14671190D01*
X12645476Y-14585476D02*
X12645476Y-14623571D01*
X12721667Y-14585476D02*
X12721667Y-14623571D01*
X13016905Y-14861667D02*
X13007381Y-14852143D01*
X12988333Y-14823571D01*
X12978809Y-14804524D01*
X12969286Y-14775952D01*
X12959762Y-14728333D01*
X12959762Y-14690238D01*
X12969286Y-14642619D01*
X12978809Y-14614048D01*
X12988333Y-14595000D01*
X13007381Y-14566428D01*
X13016905Y-14556905D01*
X13178809Y-14585476D02*
X13140714Y-14585476D01*
X13121667Y-14595000D01*
X13112143Y-14604524D01*
X13093095Y-14633095D01*
X13083571Y-14671190D01*
X13083571Y-14747381D01*
X13093095Y-14766428D01*
X13102619Y-14775952D01*
X13121667Y-14785476D01*
X13159762Y-14785476D01*
X13178809Y-14775952D01*
X13188333Y-14766428D01*
X13197857Y-14747381D01*
X13197857Y-14699762D01*
X13188333Y-14680714D01*
X13178809Y-14671190D01*
X13159762Y-14661667D01*
X13121667Y-14661667D01*
X13102619Y-14671190D01*
X13093095Y-14680714D01*
X13083571Y-14699762D01*
X13435952Y-14785476D02*
X13435952Y-14585476D01*
X13521667Y-14785476D02*
X13521667Y-14680714D01*
X13512143Y-14661667D01*
X13493095Y-14652143D01*
X13464524Y-14652143D01*
X13445476Y-14661667D01*
X13435952Y-14671190D01*
X13645476Y-14785476D02*
X13626428Y-14775952D01*
X13616905Y-14766428D01*
X13607381Y-14747381D01*
X13607381Y-14690238D01*
X13616905Y-14671190D01*
X13626428Y-14661667D01*
X13645476Y-14652143D01*
X13674048Y-14652143D01*
X13693095Y-14661667D01*
X13702619Y-14671190D01*
X13712143Y-14690238D01*
X13712143Y-14747381D01*
X13702619Y-14766428D01*
X13693095Y-14775952D01*
X13674048Y-14785476D01*
X13645476Y-14785476D01*
X13826428Y-14785476D02*
X13807381Y-14775952D01*
X13797857Y-14756905D01*
X13797857Y-14585476D01*
X13978809Y-14775952D02*
X13959762Y-14785476D01*
X13921667Y-14785476D01*
X13902619Y-14775952D01*
X13893095Y-14756905D01*
X13893095Y-14680714D01*
X13902619Y-14661667D01*
X13921667Y-14652143D01*
X13959762Y-14652143D01*
X13978809Y-14661667D01*
X13988333Y-14680714D01*
X13988333Y-14699762D01*
X13893095Y-14718809D01*
X14064524Y-14775952D02*
X14083571Y-14785476D01*
X14121667Y-14785476D01*
X14140714Y-14775952D01*
X14150238Y-14756905D01*
X14150238Y-14747381D01*
X14140714Y-14728333D01*
X14121667Y-14718809D01*
X14093095Y-14718809D01*
X14074048Y-14709286D01*
X14064524Y-14690238D01*
X14064524Y-14680714D01*
X14074048Y-14661667D01*
X14093095Y-14652143D01*
X14121667Y-14652143D01*
X14140714Y-14661667D01*
X14216905Y-14861667D02*
X14226428Y-14852143D01*
X14245476Y-14823571D01*
X14255000Y-14804524D01*
X14264524Y-14775952D01*
X14274048Y-14728333D01*
X14274048Y-14690238D01*
X14264524Y-14642619D01*
X14255000Y-14614048D01*
X14245476Y-14595000D01*
X14226428Y-14566428D01*
X14216905Y-14556905D01*
X14578809Y-14861667D02*
X14569286Y-14852143D01*
X14550238Y-14823571D01*
X14540714Y-14804524D01*
X14531190Y-14775952D01*
X14521667Y-14728333D01*
X14521667Y-14690238D01*
X14531190Y-14642619D01*
X14540714Y-14614048D01*
X14550238Y-14595000D01*
X14569286Y-14566428D01*
X14578809Y-14556905D01*
X14655000Y-14652143D02*
X14655000Y-14785476D01*
X14655000Y-14671190D02*
X14664524Y-14661667D01*
X14683571Y-14652143D01*
X14712143Y-14652143D01*
X14731190Y-14661667D01*
X14740714Y-14680714D01*
X14740714Y-14785476D01*
X14864524Y-14785476D02*
X14845476Y-14775952D01*
X14835952Y-14766428D01*
X14826428Y-14747381D01*
X14826428Y-14690238D01*
X14835952Y-14671190D01*
X14845476Y-14661667D01*
X14864524Y-14652143D01*
X14893095Y-14652143D01*
X14912143Y-14661667D01*
X14921667Y-14671190D01*
X14931190Y-14690238D01*
X14931190Y-14747381D01*
X14921667Y-14766428D01*
X14912143Y-14775952D01*
X14893095Y-14785476D01*
X14864524Y-14785476D01*
X14988333Y-14652143D02*
X15064524Y-14652143D01*
X15016905Y-14585476D02*
X15016905Y-14756905D01*
X15026428Y-14775952D01*
X15045476Y-14785476D01*
X15064524Y-14785476D01*
X15283571Y-14652143D02*
X15283571Y-14852143D01*
X15283571Y-14661667D02*
X15302619Y-14652143D01*
X15340714Y-14652143D01*
X15359762Y-14661667D01*
X15369286Y-14671190D01*
X15378809Y-14690238D01*
X15378809Y-14747381D01*
X15369286Y-14766428D01*
X15359762Y-14775952D01*
X15340714Y-14785476D01*
X15302619Y-14785476D01*
X15283571Y-14775952D01*
X15493095Y-14785476D02*
X15474048Y-14775952D01*
X15464524Y-14756905D01*
X15464524Y-14585476D01*
X15655000Y-14785476D02*
X15655000Y-14680714D01*
X15645476Y-14661667D01*
X15626428Y-14652143D01*
X15588333Y-14652143D01*
X15569286Y-14661667D01*
X15655000Y-14775952D02*
X15635952Y-14785476D01*
X15588333Y-14785476D01*
X15569286Y-14775952D01*
X15559762Y-14756905D01*
X15559762Y-14737857D01*
X15569286Y-14718809D01*
X15588333Y-14709286D01*
X15635952Y-14709286D01*
X15655000Y-14699762D01*
X15721667Y-14652143D02*
X15797857Y-14652143D01*
X15750238Y-14585476D02*
X15750238Y-14756905D01*
X15759762Y-14775952D01*
X15778809Y-14785476D01*
X15797857Y-14785476D01*
X15940714Y-14775952D02*
X15921667Y-14785476D01*
X15883571Y-14785476D01*
X15864524Y-14775952D01*
X15855000Y-14756905D01*
X15855000Y-14680714D01*
X15864524Y-14661667D01*
X15883571Y-14652143D01*
X15921667Y-14652143D01*
X15940714Y-14661667D01*
X15950238Y-14680714D01*
X15950238Y-14699762D01*
X15855000Y-14718809D01*
X16121667Y-14785476D02*
X16121667Y-14585476D01*
X16121667Y-14775952D02*
X16102619Y-14785476D01*
X16064524Y-14785476D01*
X16045476Y-14775952D01*
X16035952Y-14766428D01*
X16026428Y-14747381D01*
X16026428Y-14690238D01*
X16035952Y-14671190D01*
X16045476Y-14661667D01*
X16064524Y-14652143D01*
X16102619Y-14652143D01*
X16121667Y-14661667D01*
X16197857Y-14861667D02*
X16207381Y-14852143D01*
X16226428Y-14823571D01*
X16235952Y-14804524D01*
X16245476Y-14775952D01*
X16255000Y-14728333D01*
X16255000Y-14690238D01*
X16245476Y-14642619D01*
X16235952Y-14614048D01*
X16226428Y-14595000D01*
X16207381Y-14566428D01*
X16197857Y-14556905D01*
X9445000Y-14985000D02*
G75*
G03*
X9445000Y-14985000I-100000J0D01*
G01*
X9693095Y-14894524D02*
X9702619Y-14885000D01*
X9721667Y-14875476D01*
X9769286Y-14875476D01*
X9788333Y-14885000D01*
X9797857Y-14894524D01*
X9807381Y-14913571D01*
X9807381Y-14932619D01*
X9797857Y-14961190D01*
X9683571Y-15075476D01*
X9807381Y-15075476D01*
X9893095Y-15056428D02*
X9902619Y-15065952D01*
X9893095Y-15075476D01*
X9883571Y-15065952D01*
X9893095Y-15056428D01*
X9893095Y-15075476D01*
X9969286Y-14875476D02*
X10102619Y-14875476D01*
X10016905Y-15075476D01*
X10216905Y-14875476D02*
X10235952Y-14875476D01*
X10255000Y-14885000D01*
X10264524Y-14894524D01*
X10274048Y-14913571D01*
X10283571Y-14951667D01*
X10283571Y-14999286D01*
X10274048Y-15037381D01*
X10264524Y-15056428D01*
X10255000Y-15065952D01*
X10235952Y-15075476D01*
X10216905Y-15075476D01*
X10197857Y-15065952D01*
X10188333Y-15056428D01*
X10178810Y-15037381D01*
X10169286Y-14999286D01*
X10169286Y-14951667D01*
X10178810Y-14913571D01*
X10188333Y-14894524D01*
X10197857Y-14885000D01*
X10216905Y-14875476D01*
X10407381Y-14875476D02*
X10426429Y-14875476D01*
X10445476Y-14885000D01*
X10455000Y-14894524D01*
X10464524Y-14913571D01*
X10474048Y-14951667D01*
X10474048Y-14999286D01*
X10464524Y-15037381D01*
X10455000Y-15056428D01*
X10445476Y-15065952D01*
X10426429Y-15075476D01*
X10407381Y-15075476D01*
X10388333Y-15065952D01*
X10378810Y-15056428D01*
X10369286Y-15037381D01*
X10359762Y-14999286D01*
X10359762Y-14951667D01*
X10369286Y-14913571D01*
X10378810Y-14894524D01*
X10388333Y-14885000D01*
X10407381Y-14875476D01*
X10559762Y-15075476D02*
X10559762Y-14942143D01*
X10559762Y-14961190D02*
X10569286Y-14951667D01*
X10588333Y-14942143D01*
X10616905Y-14942143D01*
X10635952Y-14951667D01*
X10645476Y-14970714D01*
X10645476Y-15075476D01*
X10645476Y-14970714D02*
X10655000Y-14951667D01*
X10674048Y-14942143D01*
X10702619Y-14942143D01*
X10721667Y-14951667D01*
X10731190Y-14970714D01*
X10731190Y-15075476D01*
X10826429Y-15075476D02*
X10826429Y-14942143D01*
X10826429Y-14961190D02*
X10835952Y-14951667D01*
X10855000Y-14942143D01*
X10883571Y-14942143D01*
X10902619Y-14951667D01*
X10912143Y-14970714D01*
X10912143Y-15075476D01*
X10912143Y-14970714D02*
X10921667Y-14951667D01*
X10940714Y-14942143D01*
X10969286Y-14942143D01*
X10988333Y-14951667D01*
X10997857Y-14970714D01*
X10997857Y-15075476D01*
X11388333Y-14865952D02*
X11216905Y-15123095D01*
X11645476Y-14875476D02*
X11664524Y-14875476D01*
X11683571Y-14885000D01*
X11693095Y-14894524D01*
X11702619Y-14913571D01*
X11712143Y-14951667D01*
X11712143Y-14999286D01*
X11702619Y-15037381D01*
X11693095Y-15056428D01*
X11683571Y-15065952D01*
X11664524Y-15075476D01*
X11645476Y-15075476D01*
X11626428Y-15065952D01*
X11616905Y-15056428D01*
X11607381Y-15037381D01*
X11597857Y-14999286D01*
X11597857Y-14951667D01*
X11607381Y-14913571D01*
X11616905Y-14894524D01*
X11626428Y-14885000D01*
X11645476Y-14875476D01*
X11797857Y-15056428D02*
X11807381Y-15065952D01*
X11797857Y-15075476D01*
X11788333Y-15065952D01*
X11797857Y-15056428D01*
X11797857Y-15075476D01*
X11997857Y-15075476D02*
X11883571Y-15075476D01*
X11940714Y-15075476D02*
X11940714Y-14875476D01*
X11921667Y-14904048D01*
X11902619Y-14923095D01*
X11883571Y-14932619D01*
X12121667Y-14875476D02*
X12140714Y-14875476D01*
X12159762Y-14885000D01*
X12169286Y-14894524D01*
X12178809Y-14913571D01*
X12188333Y-14951667D01*
X12188333Y-14999286D01*
X12178809Y-15037381D01*
X12169286Y-15056428D01*
X12159762Y-15065952D01*
X12140714Y-15075476D01*
X12121667Y-15075476D01*
X12102619Y-15065952D01*
X12093095Y-15056428D01*
X12083571Y-15037381D01*
X12074048Y-14999286D01*
X12074048Y-14951667D01*
X12083571Y-14913571D01*
X12093095Y-14894524D01*
X12102619Y-14885000D01*
X12121667Y-14875476D01*
X12359762Y-14875476D02*
X12321667Y-14875476D01*
X12302619Y-14885000D01*
X12293095Y-14894524D01*
X12274048Y-14923095D01*
X12264524Y-14961190D01*
X12264524Y-15037381D01*
X12274048Y-15056428D01*
X12283571Y-15065952D01*
X12302619Y-15075476D01*
X12340714Y-15075476D01*
X12359762Y-15065952D01*
X12369286Y-15056428D01*
X12378809Y-15037381D01*
X12378809Y-14989762D01*
X12369286Y-14970714D01*
X12359762Y-14961190D01*
X12340714Y-14951667D01*
X12302619Y-14951667D01*
X12283571Y-14961190D01*
X12274048Y-14970714D01*
X12264524Y-14989762D01*
X12445476Y-14875476D02*
X12569286Y-14875476D01*
X12502619Y-14951667D01*
X12531190Y-14951667D01*
X12550238Y-14961190D01*
X12559762Y-14970714D01*
X12569286Y-14989762D01*
X12569286Y-15037381D01*
X12559762Y-15056428D01*
X12550238Y-15065952D01*
X12531190Y-15075476D01*
X12474048Y-15075476D01*
X12455000Y-15065952D01*
X12445476Y-15056428D01*
X12645476Y-14875476D02*
X12645476Y-14913571D01*
X12721667Y-14875476D02*
X12721667Y-14913571D01*
X13016905Y-15151667D02*
X13007381Y-15142143D01*
X12988333Y-15113571D01*
X12978809Y-15094524D01*
X12969286Y-15065952D01*
X12959762Y-15018333D01*
X12959762Y-14980238D01*
X12969286Y-14932619D01*
X12978809Y-14904048D01*
X12988333Y-14885000D01*
X13007381Y-14856428D01*
X13016905Y-14846905D01*
X13074048Y-14875476D02*
X13207381Y-14875476D01*
X13121667Y-15075476D01*
X13435952Y-15075476D02*
X13435952Y-14875476D01*
X13521667Y-15075476D02*
X13521667Y-14970714D01*
X13512143Y-14951667D01*
X13493095Y-14942143D01*
X13464524Y-14942143D01*
X13445476Y-14951667D01*
X13435952Y-14961190D01*
X13645476Y-15075476D02*
X13626428Y-15065952D01*
X13616905Y-15056428D01*
X13607381Y-15037381D01*
X13607381Y-14980238D01*
X13616905Y-14961190D01*
X13626428Y-14951667D01*
X13645476Y-14942143D01*
X13674048Y-14942143D01*
X13693095Y-14951667D01*
X13702619Y-14961190D01*
X13712143Y-14980238D01*
X13712143Y-15037381D01*
X13702619Y-15056428D01*
X13693095Y-15065952D01*
X13674048Y-15075476D01*
X13645476Y-15075476D01*
X13826428Y-15075476D02*
X13807381Y-15065952D01*
X13797857Y-15046905D01*
X13797857Y-14875476D01*
X13978809Y-15065952D02*
X13959762Y-15075476D01*
X13921667Y-15075476D01*
X13902619Y-15065952D01*
X13893095Y-15046905D01*
X13893095Y-14970714D01*
X13902619Y-14951667D01*
X13921667Y-14942143D01*
X13959762Y-14942143D01*
X13978809Y-14951667D01*
X13988333Y-14970714D01*
X13988333Y-14989762D01*
X13893095Y-15008809D01*
X14064524Y-15065952D02*
X14083571Y-15075476D01*
X14121667Y-15075476D01*
X14140714Y-15065952D01*
X14150238Y-15046905D01*
X14150238Y-15037381D01*
X14140714Y-15018333D01*
X14121667Y-15008809D01*
X14093095Y-15008809D01*
X14074048Y-14999286D01*
X14064524Y-14980238D01*
X14064524Y-14970714D01*
X14074048Y-14951667D01*
X14093095Y-14942143D01*
X14121667Y-14942143D01*
X14140714Y-14951667D01*
X14216905Y-15151667D02*
X14226428Y-15142143D01*
X14245476Y-15113571D01*
X14255000Y-15094524D01*
X14264524Y-15065952D01*
X14274048Y-15018333D01*
X14274048Y-14980238D01*
X14264524Y-14932619D01*
X14255000Y-14904048D01*
X14245476Y-14885000D01*
X14226428Y-14856428D01*
X14216905Y-14846905D01*
X14578809Y-15151667D02*
X14569286Y-15142143D01*
X14550238Y-15113571D01*
X14540714Y-15094524D01*
X14531190Y-15065952D01*
X14521667Y-15018333D01*
X14521667Y-14980238D01*
X14531190Y-14932619D01*
X14540714Y-14904048D01*
X14550238Y-14885000D01*
X14569286Y-14856428D01*
X14578809Y-14846905D01*
X14655000Y-14942143D02*
X14655000Y-15075476D01*
X14655000Y-14961190D02*
X14664524Y-14951667D01*
X14683571Y-14942143D01*
X14712143Y-14942143D01*
X14731190Y-14951667D01*
X14740714Y-14970714D01*
X14740714Y-15075476D01*
X14864524Y-15075476D02*
X14845476Y-15065952D01*
X14835952Y-15056428D01*
X14826428Y-15037381D01*
X14826428Y-14980238D01*
X14835952Y-14961190D01*
X14845476Y-14951667D01*
X14864524Y-14942143D01*
X14893095Y-14942143D01*
X14912143Y-14951667D01*
X14921667Y-14961190D01*
X14931190Y-14980238D01*
X14931190Y-15037381D01*
X14921667Y-15056428D01*
X14912143Y-15065952D01*
X14893095Y-15075476D01*
X14864524Y-15075476D01*
X14988333Y-14942143D02*
X15064524Y-14942143D01*
X15016905Y-14875476D02*
X15016905Y-15046905D01*
X15026428Y-15065952D01*
X15045476Y-15075476D01*
X15064524Y-15075476D01*
X15283571Y-14942143D02*
X15283571Y-15142143D01*
X15283571Y-14951667D02*
X15302619Y-14942143D01*
X15340714Y-14942143D01*
X15359762Y-14951667D01*
X15369286Y-14961190D01*
X15378809Y-14980238D01*
X15378809Y-15037381D01*
X15369286Y-15056428D01*
X15359762Y-15065952D01*
X15340714Y-15075476D01*
X15302619Y-15075476D01*
X15283571Y-15065952D01*
X15493095Y-15075476D02*
X15474048Y-15065952D01*
X15464524Y-15046905D01*
X15464524Y-14875476D01*
X15655000Y-15075476D02*
X15655000Y-14970714D01*
X15645476Y-14951667D01*
X15626428Y-14942143D01*
X15588333Y-14942143D01*
X15569286Y-14951667D01*
X15655000Y-15065952D02*
X15635952Y-15075476D01*
X15588333Y-15075476D01*
X15569286Y-15065952D01*
X15559762Y-15046905D01*
X15559762Y-15027857D01*
X15569286Y-15008809D01*
X15588333Y-14999286D01*
X15635952Y-14999286D01*
X15655000Y-14989762D01*
X15721667Y-14942143D02*
X15797857Y-14942143D01*
X15750238Y-14875476D02*
X15750238Y-15046905D01*
X15759762Y-15065952D01*
X15778809Y-15075476D01*
X15797857Y-15075476D01*
X15940714Y-15065952D02*
X15921667Y-15075476D01*
X15883571Y-15075476D01*
X15864524Y-15065952D01*
X15855000Y-15046905D01*
X15855000Y-14970714D01*
X15864524Y-14951667D01*
X15883571Y-14942143D01*
X15921667Y-14942143D01*
X15940714Y-14951667D01*
X15950238Y-14970714D01*
X15950238Y-14989762D01*
X15855000Y-15008809D01*
X16121667Y-15075476D02*
X16121667Y-14875476D01*
X16121667Y-15065952D02*
X16102619Y-15075476D01*
X16064524Y-15075476D01*
X16045476Y-15065952D01*
X16035952Y-15056428D01*
X16026428Y-15037381D01*
X16026428Y-14980238D01*
X16035952Y-14961190D01*
X16045476Y-14951667D01*
X16064524Y-14942143D01*
X16102619Y-14942143D01*
X16121667Y-14951667D01*
X16197857Y-15151667D02*
X16207381Y-15142143D01*
X16226428Y-15113571D01*
X16235952Y-15094524D01*
X16245476Y-15065952D01*
X16255000Y-15018333D01*
X16255000Y-14980238D01*
X16245476Y-14932619D01*
X16235952Y-14904048D01*
X16226428Y-14885000D01*
X16207381Y-14856428D01*
X16197857Y-14846905D01*
X9345000Y-15205000D02*
X9345000Y-15405000D01*
X9245000Y-15305000D02*
X9445000Y-15305000D01*
X9788333Y-15262143D02*
X9788333Y-15395476D01*
X9740714Y-15185952D02*
X9693095Y-15328809D01*
X9816905Y-15328809D01*
X9893095Y-15376428D02*
X9902619Y-15385952D01*
X9893095Y-15395476D01*
X9883571Y-15385952D01*
X9893095Y-15376428D01*
X9893095Y-15395476D01*
X10026429Y-15195476D02*
X10045476Y-15195476D01*
X10064524Y-15205000D01*
X10074048Y-15214524D01*
X10083571Y-15233571D01*
X10093095Y-15271667D01*
X10093095Y-15319286D01*
X10083571Y-15357381D01*
X10074048Y-15376428D01*
X10064524Y-15385952D01*
X10045476Y-15395476D01*
X10026429Y-15395476D01*
X10007381Y-15385952D01*
X9997857Y-15376428D01*
X9988333Y-15357381D01*
X9978810Y-15319286D01*
X9978810Y-15271667D01*
X9988333Y-15233571D01*
X9997857Y-15214524D01*
X10007381Y-15205000D01*
X10026429Y-15195476D01*
X10216905Y-15195476D02*
X10235952Y-15195476D01*
X10255000Y-15205000D01*
X10264524Y-15214524D01*
X10274048Y-15233571D01*
X10283571Y-15271667D01*
X10283571Y-15319286D01*
X10274048Y-15357381D01*
X10264524Y-15376428D01*
X10255000Y-15385952D01*
X10235952Y-15395476D01*
X10216905Y-15395476D01*
X10197857Y-15385952D01*
X10188333Y-15376428D01*
X10178810Y-15357381D01*
X10169286Y-15319286D01*
X10169286Y-15271667D01*
X10178810Y-15233571D01*
X10188333Y-15214524D01*
X10197857Y-15205000D01*
X10216905Y-15195476D01*
X10407381Y-15195476D02*
X10426429Y-15195476D01*
X10445476Y-15205000D01*
X10455000Y-15214524D01*
X10464524Y-15233571D01*
X10474048Y-15271667D01*
X10474048Y-15319286D01*
X10464524Y-15357381D01*
X10455000Y-15376428D01*
X10445476Y-15385952D01*
X10426429Y-15395476D01*
X10407381Y-15395476D01*
X10388333Y-15385952D01*
X10378810Y-15376428D01*
X10369286Y-15357381D01*
X10359762Y-15319286D01*
X10359762Y-15271667D01*
X10369286Y-15233571D01*
X10378810Y-15214524D01*
X10388333Y-15205000D01*
X10407381Y-15195476D01*
X10559762Y-15395476D02*
X10559762Y-15262143D01*
X10559762Y-15281190D02*
X10569286Y-15271667D01*
X10588333Y-15262143D01*
X10616905Y-15262143D01*
X10635952Y-15271667D01*
X10645476Y-15290714D01*
X10645476Y-15395476D01*
X10645476Y-15290714D02*
X10655000Y-15271667D01*
X10674048Y-15262143D01*
X10702619Y-15262143D01*
X10721667Y-15271667D01*
X10731190Y-15290714D01*
X10731190Y-15395476D01*
X10826429Y-15395476D02*
X10826429Y-15262143D01*
X10826429Y-15281190D02*
X10835952Y-15271667D01*
X10855000Y-15262143D01*
X10883571Y-15262143D01*
X10902619Y-15271667D01*
X10912143Y-15290714D01*
X10912143Y-15395476D01*
X10912143Y-15290714D02*
X10921667Y-15271667D01*
X10940714Y-15262143D01*
X10969286Y-15262143D01*
X10988333Y-15271667D01*
X10997857Y-15290714D01*
X10997857Y-15395476D01*
X11388333Y-15185952D02*
X11216905Y-15443095D01*
X11645476Y-15195476D02*
X11664524Y-15195476D01*
X11683571Y-15205000D01*
X11693095Y-15214524D01*
X11702619Y-15233571D01*
X11712143Y-15271667D01*
X11712143Y-15319286D01*
X11702619Y-15357381D01*
X11693095Y-15376428D01*
X11683571Y-15385952D01*
X11664524Y-15395476D01*
X11645476Y-15395476D01*
X11626428Y-15385952D01*
X11616905Y-15376428D01*
X11607381Y-15357381D01*
X11597857Y-15319286D01*
X11597857Y-15271667D01*
X11607381Y-15233571D01*
X11616905Y-15214524D01*
X11626428Y-15205000D01*
X11645476Y-15195476D01*
X11797857Y-15376428D02*
X11807381Y-15385952D01*
X11797857Y-15395476D01*
X11788333Y-15385952D01*
X11797857Y-15376428D01*
X11797857Y-15395476D01*
X11997857Y-15395476D02*
X11883571Y-15395476D01*
X11940714Y-15395476D02*
X11940714Y-15195476D01*
X11921667Y-15224048D01*
X11902619Y-15243095D01*
X11883571Y-15252619D01*
X12178809Y-15195476D02*
X12083571Y-15195476D01*
X12074048Y-15290714D01*
X12083571Y-15281190D01*
X12102619Y-15271667D01*
X12150238Y-15271667D01*
X12169286Y-15281190D01*
X12178809Y-15290714D01*
X12188333Y-15309762D01*
X12188333Y-15357381D01*
X12178809Y-15376428D01*
X12169286Y-15385952D01*
X12150238Y-15395476D01*
X12102619Y-15395476D01*
X12083571Y-15385952D01*
X12074048Y-15376428D01*
X12255000Y-15195476D02*
X12388333Y-15195476D01*
X12302619Y-15395476D01*
X12559762Y-15195476D02*
X12464524Y-15195476D01*
X12455000Y-15290714D01*
X12464524Y-15281190D01*
X12483571Y-15271667D01*
X12531190Y-15271667D01*
X12550238Y-15281190D01*
X12559762Y-15290714D01*
X12569286Y-15309762D01*
X12569286Y-15357381D01*
X12559762Y-15376428D01*
X12550238Y-15385952D01*
X12531190Y-15395476D01*
X12483571Y-15395476D01*
X12464524Y-15385952D01*
X12455000Y-15376428D01*
X12645476Y-15195476D02*
X12645476Y-15233571D01*
X12721667Y-15195476D02*
X12721667Y-15233571D01*
X13016905Y-15471667D02*
X13007381Y-15462143D01*
X12988333Y-15433571D01*
X12978809Y-15414524D01*
X12969286Y-15385952D01*
X12959762Y-15338333D01*
X12959762Y-15300238D01*
X12969286Y-15252619D01*
X12978809Y-15224048D01*
X12988333Y-15205000D01*
X13007381Y-15176428D01*
X13016905Y-15166905D01*
X13074048Y-15195476D02*
X13197857Y-15195476D01*
X13131190Y-15271667D01*
X13159762Y-15271667D01*
X13178809Y-15281190D01*
X13188333Y-15290714D01*
X13197857Y-15309762D01*
X13197857Y-15357381D01*
X13188333Y-15376428D01*
X13178809Y-15385952D01*
X13159762Y-15395476D01*
X13102619Y-15395476D01*
X13083571Y-15385952D01*
X13074048Y-15376428D01*
X13435952Y-15395476D02*
X13435952Y-15195476D01*
X13521667Y-15395476D02*
X13521667Y-15290714D01*
X13512143Y-15271667D01*
X13493095Y-15262143D01*
X13464524Y-15262143D01*
X13445476Y-15271667D01*
X13435952Y-15281190D01*
X13645476Y-15395476D02*
X13626428Y-15385952D01*
X13616905Y-15376428D01*
X13607381Y-15357381D01*
X13607381Y-15300238D01*
X13616905Y-15281190D01*
X13626428Y-15271667D01*
X13645476Y-15262143D01*
X13674048Y-15262143D01*
X13693095Y-15271667D01*
X13702619Y-15281190D01*
X13712143Y-15300238D01*
X13712143Y-15357381D01*
X13702619Y-15376428D01*
X13693095Y-15385952D01*
X13674048Y-15395476D01*
X13645476Y-15395476D01*
X13826428Y-15395476D02*
X13807381Y-15385952D01*
X13797857Y-15366905D01*
X13797857Y-15195476D01*
X13978809Y-15385952D02*
X13959762Y-15395476D01*
X13921667Y-15395476D01*
X13902619Y-15385952D01*
X13893095Y-15366905D01*
X13893095Y-15290714D01*
X13902619Y-15271667D01*
X13921667Y-15262143D01*
X13959762Y-15262143D01*
X13978809Y-15271667D01*
X13988333Y-15290714D01*
X13988333Y-15309762D01*
X13893095Y-15328809D01*
X14064524Y-15385952D02*
X14083571Y-15395476D01*
X14121667Y-15395476D01*
X14140714Y-15385952D01*
X14150238Y-15366905D01*
X14150238Y-15357381D01*
X14140714Y-15338333D01*
X14121667Y-15328809D01*
X14093095Y-15328809D01*
X14074048Y-15319286D01*
X14064524Y-15300238D01*
X14064524Y-15290714D01*
X14074048Y-15271667D01*
X14093095Y-15262143D01*
X14121667Y-15262143D01*
X14140714Y-15271667D01*
X14216905Y-15471667D02*
X14226428Y-15462143D01*
X14245476Y-15433571D01*
X14255000Y-15414524D01*
X14264524Y-15385952D01*
X14274048Y-15338333D01*
X14274048Y-15300238D01*
X14264524Y-15252619D01*
X14255000Y-15224048D01*
X14245476Y-15205000D01*
X14226428Y-15176428D01*
X14216905Y-15166905D01*
X14578809Y-15471667D02*
X14569286Y-15462143D01*
X14550238Y-15433571D01*
X14540714Y-15414524D01*
X14531190Y-15385952D01*
X14521667Y-15338333D01*
X14521667Y-15300238D01*
X14531190Y-15252619D01*
X14540714Y-15224048D01*
X14550238Y-15205000D01*
X14569286Y-15176428D01*
X14578809Y-15166905D01*
X14655000Y-15262143D02*
X14655000Y-15395476D01*
X14655000Y-15281190D02*
X14664524Y-15271667D01*
X14683571Y-15262143D01*
X14712143Y-15262143D01*
X14731190Y-15271667D01*
X14740714Y-15290714D01*
X14740714Y-15395476D01*
X14864524Y-15395476D02*
X14845476Y-15385952D01*
X14835952Y-15376428D01*
X14826428Y-15357381D01*
X14826428Y-15300238D01*
X14835952Y-15281190D01*
X14845476Y-15271667D01*
X14864524Y-15262143D01*
X14893095Y-15262143D01*
X14912143Y-15271667D01*
X14921667Y-15281190D01*
X14931190Y-15300238D01*
X14931190Y-15357381D01*
X14921667Y-15376428D01*
X14912143Y-15385952D01*
X14893095Y-15395476D01*
X14864524Y-15395476D01*
X14988333Y-15262143D02*
X15064524Y-15262143D01*
X15016905Y-15195476D02*
X15016905Y-15366905D01*
X15026428Y-15385952D01*
X15045476Y-15395476D01*
X15064524Y-15395476D01*
X15283571Y-15262143D02*
X15283571Y-15462143D01*
X15283571Y-15271667D02*
X15302619Y-15262143D01*
X15340714Y-15262143D01*
X15359762Y-15271667D01*
X15369286Y-15281190D01*
X15378809Y-15300238D01*
X15378809Y-15357381D01*
X15369286Y-15376428D01*
X15359762Y-15385952D01*
X15340714Y-15395476D01*
X15302619Y-15395476D01*
X15283571Y-15385952D01*
X15493095Y-15395476D02*
X15474048Y-15385952D01*
X15464524Y-15366905D01*
X15464524Y-15195476D01*
X15655000Y-15395476D02*
X15655000Y-15290714D01*
X15645476Y-15271667D01*
X15626428Y-15262143D01*
X15588333Y-15262143D01*
X15569286Y-15271667D01*
X15655000Y-15385952D02*
X15635952Y-15395476D01*
X15588333Y-15395476D01*
X15569286Y-15385952D01*
X15559762Y-15366905D01*
X15559762Y-15347857D01*
X15569286Y-15328809D01*
X15588333Y-15319286D01*
X15635952Y-15319286D01*
X15655000Y-15309762D01*
X15721667Y-15262143D02*
X15797857Y-15262143D01*
X15750238Y-15195476D02*
X15750238Y-15366905D01*
X15759762Y-15385952D01*
X15778809Y-15395476D01*
X15797857Y-15395476D01*
X15940714Y-15385952D02*
X15921667Y-15395476D01*
X15883571Y-15395476D01*
X15864524Y-15385952D01*
X15855000Y-15366905D01*
X15855000Y-15290714D01*
X15864524Y-15271667D01*
X15883571Y-15262143D01*
X15921667Y-15262143D01*
X15940714Y-15271667D01*
X15950238Y-15290714D01*
X15950238Y-15309762D01*
X15855000Y-15328809D01*
X16121667Y-15395476D02*
X16121667Y-15195476D01*
X16121667Y-15385952D02*
X16102619Y-15395476D01*
X16064524Y-15395476D01*
X16045476Y-15385952D01*
X16035952Y-15376428D01*
X16026428Y-15357381D01*
X16026428Y-15300238D01*
X16035952Y-15281190D01*
X16045476Y-15271667D01*
X16064524Y-15262143D01*
X16102619Y-15262143D01*
X16121667Y-15271667D01*
X16197857Y-15471667D02*
X16207381Y-15462143D01*
X16226428Y-15433571D01*
X16235952Y-15414524D01*
X16245476Y-15385952D01*
X16255000Y-15338333D01*
X16255000Y-15300238D01*
X16245476Y-15252619D01*
X16235952Y-15224048D01*
X16226428Y-15205000D01*
X16207381Y-15176428D01*
X16197857Y-15166905D01*
M02*
