G04 #@! TF.GenerationSoftware,KiCad,Pcbnew,6.0.11*
G04 #@! TF.CreationDate,2024-07-27T16:02:47-05:00*
G04 #@! TF.ProjectId,minidexed,6d696e69-6465-4786-9564-2e6b69636164,rev?*
G04 #@! TF.SameCoordinates,Original*
G04 #@! TF.FileFunction,Paste,Bot*
G04 #@! TF.FilePolarity,Positive*
%FSLAX46Y46*%
G04 Gerber Fmt 4.6, Leading zero omitted, Abs format (unit mm)*
G04 Created by KiCad (PCBNEW 6.0.11) date 2024-07-27 16:02:47*
%MOMM*%
%LPD*%
G01*
G04 APERTURE LIST*
G04 Aperture macros list*
%AMRoundRect*
0 Rectangle with rounded corners*
0 $1 Rounding radius*
0 $2 $3 $4 $5 $6 $7 $8 $9 X,Y pos of 4 corners*
0 Add a 4 corners polygon primitive as box body*
4,1,4,$2,$3,$4,$5,$6,$7,$8,$9,$2,$3,0*
0 Add four circle primitives for the rounded corners*
1,1,$1+$1,$2,$3*
1,1,$1+$1,$4,$5*
1,1,$1+$1,$6,$7*
1,1,$1+$1,$8,$9*
0 Add four rect primitives between the rounded corners*
20,1,$1+$1,$2,$3,$4,$5,0*
20,1,$1+$1,$4,$5,$6,$7,0*
20,1,$1+$1,$6,$7,$8,$9,0*
20,1,$1+$1,$8,$9,$2,$3,0*%
G04 Aperture macros list end*
%ADD10RoundRect,0.100000X-0.100000X0.637500X-0.100000X-0.637500X0.100000X-0.637500X0.100000X0.637500X0*%
%ADD11RoundRect,0.250000X0.337500X0.475000X-0.337500X0.475000X-0.337500X-0.475000X0.337500X-0.475000X0*%
%ADD12RoundRect,0.250000X0.475000X-0.337500X0.475000X0.337500X-0.475000X0.337500X-0.475000X-0.337500X0*%
%ADD13RoundRect,0.250000X0.625000X-0.400000X0.625000X0.400000X-0.625000X0.400000X-0.625000X-0.400000X0*%
%ADD14RoundRect,0.250000X-0.625000X0.400000X-0.625000X-0.400000X0.625000X-0.400000X0.625000X0.400000X0*%
%ADD15RoundRect,0.250000X-0.475000X0.337500X-0.475000X-0.337500X0.475000X-0.337500X0.475000X0.337500X0*%
%ADD16RoundRect,0.250000X-0.400000X-0.625000X0.400000X-0.625000X0.400000X0.625000X-0.400000X0.625000X0*%
%ADD17RoundRect,0.150000X-0.512500X-0.150000X0.512500X-0.150000X0.512500X0.150000X-0.512500X0.150000X0*%
%ADD18RoundRect,0.381000X-0.381000X0.762000X-0.381000X-0.762000X0.381000X-0.762000X0.381000X0.762000X0*%
%ADD19R,0.450000X0.600000*%
%ADD20RoundRect,0.100000X-0.637500X-0.100000X0.637500X-0.100000X0.637500X0.100000X-0.637500X0.100000X0*%
G04 APERTURE END LIST*
D10*
X154875000Y-84637500D03*
X155525000Y-84637500D03*
X156175000Y-84637500D03*
X156825000Y-84637500D03*
X157475000Y-84637500D03*
X158125000Y-84637500D03*
X158775000Y-84637500D03*
X159425000Y-84637500D03*
X160075000Y-84637500D03*
X160725000Y-84637500D03*
X160725000Y-90362500D03*
X160075000Y-90362500D03*
X159425000Y-90362500D03*
X158775000Y-90362500D03*
X158125000Y-90362500D03*
X157475000Y-90362500D03*
X156825000Y-90362500D03*
X156175000Y-90362500D03*
X155525000Y-90362500D03*
X154875000Y-90362500D03*
D11*
X128587500Y-92700000D03*
X126512500Y-92700000D03*
D12*
X163433330Y-80200000D03*
X163433330Y-78125000D03*
D13*
X187775000Y-111750000D03*
X187775000Y-108650000D03*
D14*
X104375200Y-71500000D03*
X104375200Y-74600000D03*
D15*
X148600000Y-72025000D03*
X148600000Y-74100000D03*
X212500000Y-96875000D03*
X212500000Y-98950000D03*
D12*
X212500000Y-91850000D03*
X212500000Y-89775000D03*
X167000000Y-80200000D03*
X167000000Y-78125000D03*
D13*
X166200000Y-93300000D03*
X166200000Y-90200000D03*
D16*
X111750000Y-97600000D03*
X114850000Y-97600000D03*
D14*
X130087040Y-71500000D03*
X130087040Y-74600000D03*
D13*
X205925000Y-111750000D03*
X205925000Y-108650000D03*
D14*
X166200000Y-112150000D03*
X166200000Y-115250000D03*
D13*
X196850000Y-111750000D03*
X196850000Y-108650000D03*
D15*
X146000000Y-89500000D03*
X146000000Y-91575000D03*
D13*
X153500000Y-74650000D03*
X153500000Y-71550000D03*
D14*
X136600000Y-71500000D03*
X136600000Y-74600000D03*
D15*
X159020000Y-93600000D03*
X159020000Y-95675000D03*
D17*
X146300000Y-86000000D03*
X146300000Y-85050000D03*
X146300000Y-84100000D03*
X148575000Y-84100000D03*
X148575000Y-86000000D03*
D15*
X149700000Y-89500000D03*
X149700000Y-91575000D03*
D18*
X110760000Y-84600000D03*
X113300000Y-84600000D03*
X115840000Y-84600000D03*
X115840000Y-93600000D03*
X113300000Y-93600000D03*
X110760000Y-93600000D03*
D19*
X110718160Y-74100000D03*
X110718160Y-72000000D03*
D12*
X145600000Y-80200000D03*
X145600000Y-78125000D03*
D20*
X122800000Y-88900000D03*
X122800000Y-88250000D03*
X122800000Y-87600000D03*
X122800000Y-86950000D03*
X122800000Y-86300000D03*
X122800000Y-85650000D03*
X122800000Y-85000000D03*
X128525000Y-85000000D03*
X128525000Y-85650000D03*
X128525000Y-86300000D03*
X128525000Y-86950000D03*
X128525000Y-87600000D03*
X128525000Y-88250000D03*
X128525000Y-88900000D03*
D12*
X152733332Y-80200000D03*
X152733332Y-78125000D03*
D13*
X166200000Y-87050000D03*
X166200000Y-83950000D03*
D15*
X158886666Y-72012500D03*
X158886666Y-74087500D03*
D14*
X123574080Y-71500000D03*
X123574080Y-74600000D03*
D12*
X156299998Y-80200000D03*
X156299998Y-78125000D03*
X159866664Y-80200000D03*
X159866664Y-78125000D03*
D14*
X117061120Y-71500000D03*
X117061120Y-74600000D03*
D13*
X163900000Y-74600000D03*
X163900000Y-71500000D03*
D12*
X149166666Y-80200000D03*
X149166666Y-78125000D03*
D15*
X155500000Y-93600000D03*
X155500000Y-95675000D03*
M02*
