G04 #@! TF.GenerationSoftware,KiCad,Pcbnew,6.0.11*
G04 #@! TF.CreationDate,2024-07-23T18:36:50-05:00*
G04 #@! TF.ProjectId,minidexed,6d696e69-6465-4786-9564-2e6b69636164,rev?*
G04 #@! TF.SameCoordinates,Original*
G04 #@! TF.FileFunction,Soldermask,Bot*
G04 #@! TF.FilePolarity,Negative*
%FSLAX46Y46*%
G04 Gerber Fmt 4.6, Leading zero omitted, Abs format (unit mm)*
G04 Created by KiCad (PCBNEW 6.0.11) date 2024-07-23 18:36:50*
%MOMM*%
%LPD*%
G01*
G04 APERTURE LIST*
G04 Aperture macros list*
%AMRoundRect*
0 Rectangle with rounded corners*
0 $1 Rounding radius*
0 $2 $3 $4 $5 $6 $7 $8 $9 X,Y pos of 4 corners*
0 Add a 4 corners polygon primitive as box body*
4,1,4,$2,$3,$4,$5,$6,$7,$8,$9,$2,$3,0*
0 Add four circle primitives for the rounded corners*
1,1,$1+$1,$2,$3*
1,1,$1+$1,$4,$5*
1,1,$1+$1,$6,$7*
1,1,$1+$1,$8,$9*
0 Add four rect primitives between the rounded corners*
20,1,$1+$1,$2,$3,$4,$5,0*
20,1,$1+$1,$4,$5,$6,$7,0*
20,1,$1+$1,$6,$7,$8,$9,0*
20,1,$1+$1,$8,$9,$2,$3,0*%
G04 Aperture macros list end*
%ADD10C,2.800000*%
%ADD11C,1.800000*%
%ADD12C,4.100000*%
%ADD13C,2.300000*%
%ADD14C,3.100000*%
%ADD15RoundRect,0.050000X-0.900000X-1.300000X0.900000X-1.300000X0.900000X1.300000X-0.900000X1.300000X0*%
%ADD16O,1.900000X2.700000*%
%ADD17RoundRect,0.050000X1.000000X1.000000X-1.000000X1.000000X-1.000000X-1.000000X1.000000X-1.000000X0*%
%ADD18C,2.100000*%
%ADD19RoundRect,0.050000X1.750000X1.250000X-1.750000X1.250000X-1.750000X-1.250000X1.750000X-1.250000X0*%
%ADD20RoundRect,0.050000X1.750000X1.400000X-1.750000X1.400000X-1.750000X-1.400000X1.750000X-1.400000X0*%
%ADD21RoundRect,0.050000X0.850000X0.850000X-0.850000X0.850000X-0.850000X-0.850000X0.850000X-0.850000X0*%
%ADD22O,1.800000X1.800000*%
%ADD23RoundRect,0.150000X-0.100000X0.637500X-0.100000X-0.637500X0.100000X-0.637500X0.100000X0.637500X0*%
%ADD24C,1.100000*%
%ADD25RoundRect,0.300000X0.337500X0.475000X-0.337500X0.475000X-0.337500X-0.475000X0.337500X-0.475000X0*%
%ADD26RoundRect,0.300000X0.475000X-0.337500X0.475000X0.337500X-0.475000X0.337500X-0.475000X-0.337500X0*%
%ADD27RoundRect,0.300000X0.625000X-0.400000X0.625000X0.400000X-0.625000X0.400000X-0.625000X-0.400000X0*%
%ADD28RoundRect,0.300000X-0.625000X0.400000X-0.625000X-0.400000X0.625000X-0.400000X0.625000X0.400000X0*%
%ADD29RoundRect,0.300000X-0.475000X0.337500X-0.475000X-0.337500X0.475000X-0.337500X0.475000X0.337500X0*%
%ADD30RoundRect,0.300000X-0.400000X-0.625000X0.400000X-0.625000X0.400000X0.625000X-0.400000X0.625000X0*%
%ADD31RoundRect,0.050000X-0.850000X0.850000X-0.850000X-0.850000X0.850000X-0.850000X0.850000X0.850000X0*%
%ADD32RoundRect,0.200000X-0.512500X-0.150000X0.512500X-0.150000X0.512500X0.150000X-0.512500X0.150000X0*%
%ADD33RoundRect,0.431000X-0.381000X0.762000X-0.381000X-0.762000X0.381000X-0.762000X0.381000X0.762000X0*%
%ADD34RoundRect,0.050000X0.225000X-0.300000X0.225000X0.300000X-0.225000X0.300000X-0.225000X-0.300000X0*%
%ADD35RoundRect,0.150000X-0.637500X-0.100000X0.637500X-0.100000X0.637500X0.100000X-0.637500X0.100000X0*%
G04 APERTURE END LIST*
D10*
X164100000Y-62700000D03*
D11*
X107820000Y-124200000D03*
D12*
X112900000Y-124200000D03*
D11*
X117980000Y-124200000D03*
D13*
X115440000Y-119120000D03*
X109090000Y-121660000D03*
D14*
X97628900Y-109877200D03*
X97628900Y-78876500D03*
D15*
X103128000Y-78876500D03*
D16*
X105668000Y-78876500D03*
X108208000Y-78876500D03*
X110748000Y-78876500D03*
X113288000Y-78876500D03*
X115828000Y-78876500D03*
X118368000Y-78876500D03*
X120908000Y-78876500D03*
X123448000Y-78876500D03*
X125988000Y-78876500D03*
X128528000Y-78876500D03*
X131068000Y-78876500D03*
X133608000Y-78876500D03*
X136148000Y-78876500D03*
X138688000Y-78876500D03*
X141228000Y-78876500D03*
D17*
X197550000Y-97100000D03*
D18*
X197550000Y-92100000D03*
X197550000Y-94600000D03*
D19*
X190050000Y-100200000D03*
D20*
X190050000Y-89000000D03*
D18*
X183050000Y-92100000D03*
X183050000Y-97100000D03*
D11*
X130670000Y-124200000D03*
X140830000Y-124200000D03*
D12*
X135750000Y-124200000D03*
D13*
X138290000Y-119120000D03*
X131940000Y-121660000D03*
D10*
X97900000Y-137000000D03*
D11*
X153520000Y-124200000D03*
D12*
X158600000Y-124200000D03*
D11*
X163680000Y-124200000D03*
D13*
X161140000Y-119120000D03*
X154790000Y-121660000D03*
D10*
X172618400Y-136892400D03*
X221618400Y-78892400D03*
X172618400Y-78892400D03*
X221618400Y-136892400D03*
D21*
X173918400Y-132042400D03*
D22*
X171378400Y-132042400D03*
X173918400Y-129502400D03*
X171378400Y-129502400D03*
X173918400Y-126962400D03*
X171378400Y-126962400D03*
X173918400Y-124422400D03*
X171378400Y-124422400D03*
X173918400Y-121882400D03*
X171378400Y-121882400D03*
X173918400Y-119342400D03*
X171378400Y-119342400D03*
X173918400Y-116802400D03*
X171378400Y-116802400D03*
X173918400Y-114262400D03*
X171378400Y-114262400D03*
X173918400Y-111722400D03*
X171378400Y-111722400D03*
X173918400Y-109182400D03*
X171378400Y-109182400D03*
X173918400Y-106642400D03*
X171378400Y-106642400D03*
X173918400Y-104102400D03*
X171378400Y-104102400D03*
X173918400Y-101562400D03*
X171378400Y-101562400D03*
X173918400Y-99022400D03*
X171378400Y-99022400D03*
X173918400Y-96482400D03*
X171378400Y-96482400D03*
X173918400Y-93942400D03*
X171378400Y-93942400D03*
X173918400Y-91402400D03*
X171378400Y-91402400D03*
X173918400Y-88862400D03*
X171378400Y-88862400D03*
X173918400Y-86322400D03*
X171378400Y-86322400D03*
X173918400Y-83782400D03*
X171378400Y-83782400D03*
D10*
X97900000Y-62700000D03*
D23*
X154875000Y-84637500D03*
X155525000Y-84637500D03*
X156175000Y-84637500D03*
X156825000Y-84637500D03*
X157475000Y-84637500D03*
X158125000Y-84637500D03*
X158775000Y-84637500D03*
X159425000Y-84637500D03*
X160075000Y-84637500D03*
X160725000Y-84637500D03*
X160725000Y-90362500D03*
X160075000Y-90362500D03*
X159425000Y-90362500D03*
X158775000Y-90362500D03*
X158125000Y-90362500D03*
X157475000Y-90362500D03*
X156825000Y-90362500D03*
X156175000Y-90362500D03*
X155525000Y-90362500D03*
X154875000Y-90362500D03*
D24*
X143000000Y-88000000D03*
D25*
X128587500Y-92700000D03*
X126512500Y-92700000D03*
D26*
X163433330Y-80200000D03*
X163433330Y-78125000D03*
D27*
X183200000Y-108600000D03*
X183200000Y-105500000D03*
D28*
X104375200Y-71500000D03*
X104375200Y-74600000D03*
D29*
X148600000Y-72025000D03*
X148600000Y-74100000D03*
X203900000Y-96962500D03*
X203900000Y-99037500D03*
D26*
X203900000Y-91700000D03*
X203900000Y-89625000D03*
X167000000Y-80200000D03*
X167000000Y-78125000D03*
D27*
X166200000Y-93300000D03*
X166200000Y-90200000D03*
D30*
X111750000Y-97600000D03*
X114850000Y-97600000D03*
D28*
X130087040Y-71500000D03*
X130087040Y-74600000D03*
D24*
X143800000Y-81900000D03*
D27*
X197500000Y-108600000D03*
X197500000Y-105500000D03*
D28*
X166200000Y-112150000D03*
X166200000Y-115250000D03*
D27*
X190350000Y-108600000D03*
X190350000Y-105500000D03*
D18*
X122205000Y-62404000D03*
X117125000Y-67484000D03*
X119665000Y-67484000D03*
X124745000Y-67484000D03*
X127285000Y-67484000D03*
D29*
X146000000Y-89500000D03*
X146000000Y-91575000D03*
D17*
X103900000Y-86760000D03*
D18*
X101400000Y-91760000D03*
X98900000Y-86760000D03*
D27*
X153500000Y-74650000D03*
X153500000Y-71550000D03*
D28*
X136600000Y-71500000D03*
X136600000Y-74600000D03*
D31*
X160325000Y-104300000D03*
D22*
X162865000Y-104300000D03*
D29*
X159020000Y-93600000D03*
X159020000Y-95675000D03*
D32*
X146300000Y-86000000D03*
X146300000Y-85050000D03*
X146300000Y-84100000D03*
X148575000Y-84100000D03*
X148575000Y-86000000D03*
D29*
X149700000Y-89500000D03*
X149700000Y-91575000D03*
D33*
X110760000Y-84600000D03*
X113300000Y-84600000D03*
X115840000Y-84600000D03*
X115840000Y-93600000D03*
X113300000Y-93600000D03*
X110760000Y-93600000D03*
D34*
X110718160Y-74100000D03*
X110718160Y-72000000D03*
D26*
X145600000Y-80200000D03*
X145600000Y-78125000D03*
D18*
X136302000Y-62404000D03*
X131222000Y-67484000D03*
X133762000Y-67484000D03*
X138842000Y-67484000D03*
X141382000Y-67484000D03*
D35*
X122800000Y-88900000D03*
X122800000Y-88250000D03*
X122800000Y-87600000D03*
X122800000Y-86950000D03*
X122800000Y-86300000D03*
X122800000Y-85650000D03*
X122800000Y-85000000D03*
X128525000Y-85000000D03*
X128525000Y-85650000D03*
X128525000Y-86300000D03*
X128525000Y-86950000D03*
X128525000Y-87600000D03*
X128525000Y-88250000D03*
X128525000Y-88900000D03*
D26*
X152733332Y-80200000D03*
X152733332Y-78125000D03*
D18*
X108108000Y-62404000D03*
X103028000Y-67484000D03*
X105568000Y-67484000D03*
X110648000Y-67484000D03*
X113188000Y-67484000D03*
D27*
X166200000Y-87050000D03*
X166200000Y-83950000D03*
D24*
X151900000Y-87500000D03*
D29*
X158886666Y-72012500D03*
X158886666Y-74087500D03*
D28*
X123574080Y-71500000D03*
X123574080Y-74600000D03*
D26*
X156299998Y-80200000D03*
X156299998Y-78125000D03*
X159866664Y-80200000D03*
X159866664Y-78125000D03*
D28*
X117061120Y-71500000D03*
X117061120Y-74600000D03*
D27*
X163900000Y-74600000D03*
X163900000Y-71500000D03*
D18*
X153905000Y-62420000D03*
X148825000Y-67500000D03*
X151365000Y-67500000D03*
X156445000Y-67500000D03*
X158985000Y-67500000D03*
D26*
X149166666Y-80200000D03*
X149166666Y-78125000D03*
D29*
X155500000Y-93600000D03*
X155500000Y-95675000D03*
M02*
