M48
; DRILL file {KiCad 6.0.11} date Tuesday, July 23, 2024 at 06:37:55 PM
; FORMAT={-:-/ absolute / metric / decimal}
; #@! TF.CreationDate,2024-07-23T18:37:55-05:00
; #@! TF.GenerationSoftware,Kicad,Pcbnew,6.0.11
; #@! TF.FileFunction,Plated,1,2,PTH
FMAT,2
METRIC
; #@! TA.AperFunction,Plated,PTH,ViaDrill
T1C0.400
; #@! TA.AperFunction,Plated,PTH,ComponentDrill
T2C1.000
; #@! TA.AperFunction,Plated,PTH,ComponentDrill
T3C1.100
; #@! TA.AperFunction,Plated,PTH,ComponentDrill
T4C1.200
; #@! TA.AperFunction,Plated,PTH,ComponentDrill
T5C1.500
; #@! TA.AperFunction,Plated,PTH,ComponentDrill
T6C2.500
%
G90
G05
T1
X113.5Y-104.1
X117.0Y-76.4
X118.2Y-108.8
X121.1Y-93.2
X124.0Y-104.1
X124.7Y-81.8
X129.8Y-81.8
X130.1Y-76.4
X138.6Y-76.4
X139.8Y-105.0
X148.5Y-123.5
X150.5Y-116.2
X150.9Y-86.0
X155.7Y-118.673
X162.0Y-83.4
X162.6Y-92.4
X163.8Y-76.2
X166.8Y-124.8
X167.0Y-82.0
X175.5Y-118.4
X176.0Y-124.6
T2
X98.9Y-86.76
X101.4Y-91.76
X103.9Y-86.76
X160.325Y-104.3
X162.865Y-104.3
X171.378Y-83.782
X171.378Y-86.322
X171.378Y-88.862
X171.378Y-91.402
X171.378Y-93.942
X171.378Y-96.482
X171.378Y-99.022
X171.378Y-101.562
X171.378Y-104.102
X171.378Y-106.642
X171.378Y-109.182
X171.378Y-111.722
X171.378Y-114.262
X171.378Y-116.802
X171.378Y-119.342
X171.378Y-121.882
X171.378Y-124.422
X171.378Y-126.962
X171.378Y-129.502
X171.378Y-132.042
X173.918Y-83.782
X173.918Y-86.322
X173.918Y-88.862
X173.918Y-91.402
X173.918Y-93.942
X173.918Y-96.482
X173.918Y-99.022
X173.918Y-101.562
X173.918Y-104.102
X173.918Y-106.642
X173.918Y-109.182
X173.918Y-111.722
X173.918Y-114.262
X173.918Y-116.802
X173.918Y-119.342
X173.918Y-121.882
X173.918Y-124.422
X173.918Y-126.962
X173.918Y-129.502
X173.918Y-132.042
X183.05Y-92.1
X183.05Y-97.1
X197.55Y-92.1
X197.55Y-94.6
X197.55Y-97.1
T3
X103.028Y-67.484
X105.568Y-67.484
X108.108Y-62.404
X110.648Y-67.484
X113.188Y-67.484
X117.125Y-67.484
X119.665Y-67.484
X122.205Y-62.404
X124.745Y-67.484
X127.285Y-67.484
X131.222Y-67.484
X133.762Y-67.484
X136.302Y-62.404
X138.842Y-67.484
X141.382Y-67.484
X148.825Y-67.5
X151.365Y-67.5
X153.905Y-62.42
X156.445Y-67.5
X158.985Y-67.5
T4
X103.128Y-78.876
X105.668Y-78.876
X108.208Y-78.876
X110.748Y-78.876
X113.288Y-78.876
X115.828Y-78.876
X118.368Y-78.876
X120.908Y-78.876
X123.448Y-78.876
X125.988Y-78.876
X128.528Y-78.876
X131.068Y-78.876
X133.608Y-78.876
X136.148Y-78.876
X138.688Y-78.876
X141.228Y-78.876
T5
X109.09Y-121.66
X115.44Y-119.12
X131.94Y-121.66
X138.29Y-119.12
X154.79Y-121.66
X161.14Y-119.12
T6
X97.629Y-78.876
X97.629Y-109.877
T5
X190.7Y-89.0G85X189.4Y-89.0
G05
X190.7Y-100.2G85X189.4Y-100.2
G05
T0
M30
