G04 #@! TF.GenerationSoftware,KiCad,Pcbnew,6.0.11*
G04 #@! TF.CreationDate,2024-07-23T18:36:50-05:00*
G04 #@! TF.ProjectId,minidexed,6d696e69-6465-4786-9564-2e6b69636164,rev?*
G04 #@! TF.SameCoordinates,Original*
G04 #@! TF.FileFunction,Legend,Bot*
G04 #@! TF.FilePolarity,Positive*
%FSLAX46Y46*%
G04 Gerber Fmt 4.6, Leading zero omitted, Abs format (unit mm)*
G04 Created by KiCad (PCBNEW 6.0.11) date 2024-07-23 18:36:50*
%MOMM*%
%LPD*%
G01*
G04 APERTURE LIST*
G04 Aperture macros list*
%AMRoundRect*
0 Rectangle with rounded corners*
0 $1 Rounding radius*
0 $2 $3 $4 $5 $6 $7 $8 $9 X,Y pos of 4 corners*
0 Add a 4 corners polygon primitive as box body*
4,1,4,$2,$3,$4,$5,$6,$7,$8,$9,$2,$3,0*
0 Add four circle primitives for the rounded corners*
1,1,$1+$1,$2,$3*
1,1,$1+$1,$4,$5*
1,1,$1+$1,$6,$7*
1,1,$1+$1,$8,$9*
0 Add four rect primitives between the rounded corners*
20,1,$1+$1,$2,$3,$4,$5,0*
20,1,$1+$1,$4,$5,$6,$7,0*
20,1,$1+$1,$6,$7,$8,$9,0*
20,1,$1+$1,$8,$9,$2,$3,0*%
G04 Aperture macros list end*
%ADD10C,0.150000*%
%ADD11C,0.250000*%
%ADD12C,0.120000*%
%ADD13C,2.800000*%
%ADD14C,1.800000*%
%ADD15C,4.100000*%
%ADD16C,2.300000*%
%ADD17C,3.100000*%
%ADD18RoundRect,0.050000X-0.900000X-1.300000X0.900000X-1.300000X0.900000X1.300000X-0.900000X1.300000X0*%
%ADD19O,1.900000X2.700000*%
%ADD20RoundRect,0.050000X1.000000X1.000000X-1.000000X1.000000X-1.000000X-1.000000X1.000000X-1.000000X0*%
%ADD21C,2.100000*%
%ADD22RoundRect,0.050000X1.750000X1.250000X-1.750000X1.250000X-1.750000X-1.250000X1.750000X-1.250000X0*%
%ADD23RoundRect,0.050000X1.750000X1.400000X-1.750000X1.400000X-1.750000X-1.400000X1.750000X-1.400000X0*%
%ADD24RoundRect,0.050000X0.850000X0.850000X-0.850000X0.850000X-0.850000X-0.850000X0.850000X-0.850000X0*%
%ADD25O,1.800000X1.800000*%
%ADD26RoundRect,0.150000X-0.100000X0.637500X-0.100000X-0.637500X0.100000X-0.637500X0.100000X0.637500X0*%
%ADD27C,1.100000*%
%ADD28RoundRect,0.300000X0.337500X0.475000X-0.337500X0.475000X-0.337500X-0.475000X0.337500X-0.475000X0*%
%ADD29RoundRect,0.300000X0.475000X-0.337500X0.475000X0.337500X-0.475000X0.337500X-0.475000X-0.337500X0*%
%ADD30RoundRect,0.300000X0.625000X-0.400000X0.625000X0.400000X-0.625000X0.400000X-0.625000X-0.400000X0*%
%ADD31RoundRect,0.300000X-0.625000X0.400000X-0.625000X-0.400000X0.625000X-0.400000X0.625000X0.400000X0*%
%ADD32RoundRect,0.300000X-0.475000X0.337500X-0.475000X-0.337500X0.475000X-0.337500X0.475000X0.337500X0*%
%ADD33RoundRect,0.300000X-0.400000X-0.625000X0.400000X-0.625000X0.400000X0.625000X-0.400000X0.625000X0*%
%ADD34RoundRect,0.050000X-0.850000X0.850000X-0.850000X-0.850000X0.850000X-0.850000X0.850000X0.850000X0*%
%ADD35RoundRect,0.200000X-0.512500X-0.150000X0.512500X-0.150000X0.512500X0.150000X-0.512500X0.150000X0*%
%ADD36RoundRect,0.431000X-0.381000X0.762000X-0.381000X-0.762000X0.381000X-0.762000X0.381000X0.762000X0*%
%ADD37RoundRect,0.050000X0.225000X-0.300000X0.225000X0.300000X-0.225000X0.300000X-0.225000X-0.300000X0*%
%ADD38RoundRect,0.150000X-0.637500X-0.100000X0.637500X-0.100000X0.637500X0.100000X-0.637500X0.100000X0*%
G04 APERTURE END LIST*
D10*
X155023607Y-83300000D02*
G75*
G03*
X155023607Y-83300000I-223607J0D01*
G01*
X145223607Y-86100000D02*
G75*
G03*
X145223607Y-86100000I-223607J0D01*
G01*
X121660907Y-88877000D02*
G75*
G03*
X121660907Y-88877000I-223607J0D01*
G01*
D11*
X124450000Y-59478571D02*
X123592857Y-59478571D01*
X124021428Y-60978571D02*
X124021428Y-59478571D01*
X123092857Y-60978571D02*
X123092857Y-59478571D01*
X122450000Y-60978571D02*
X122450000Y-60192857D01*
X122521428Y-60050000D01*
X122664285Y-59978571D01*
X122878571Y-59978571D01*
X123021428Y-60050000D01*
X123092857Y-60121428D01*
X121735714Y-60978571D02*
X121735714Y-59978571D01*
X121735714Y-60264285D02*
X121664285Y-60121428D01*
X121592857Y-60050000D01*
X121450000Y-59978571D01*
X121307142Y-59978571D01*
X120164285Y-59978571D02*
X120164285Y-60978571D01*
X120807142Y-59978571D02*
X120807142Y-60764285D01*
X120735714Y-60907142D01*
X120592857Y-60978571D01*
X120378571Y-60978571D01*
X120235714Y-60907142D01*
X120164285Y-60835714D01*
X108778571Y-60978571D02*
X108778571Y-59478571D01*
X108064285Y-59978571D02*
X108064285Y-60978571D01*
X108064285Y-60121428D02*
X107992857Y-60050000D01*
X107850000Y-59978571D01*
X107635714Y-59978571D01*
X107492857Y-60050000D01*
X107421428Y-60192857D01*
X107421428Y-60978571D01*
X156650000Y-60550000D02*
X155935714Y-60550000D01*
X156792857Y-60978571D02*
X156292857Y-59478571D01*
X155792857Y-60978571D01*
X154650000Y-59978571D02*
X154650000Y-60978571D01*
X155292857Y-59978571D02*
X155292857Y-60764285D01*
X155221428Y-60907142D01*
X155078571Y-60978571D01*
X154864285Y-60978571D01*
X154721428Y-60907142D01*
X154650000Y-60835714D01*
X153292857Y-60978571D02*
X153292857Y-59478571D01*
X153292857Y-60907142D02*
X153435714Y-60978571D01*
X153721428Y-60978571D01*
X153864285Y-60907142D01*
X153935714Y-60835714D01*
X154007142Y-60692857D01*
X154007142Y-60264285D01*
X153935714Y-60121428D01*
X153864285Y-60050000D01*
X153721428Y-59978571D01*
X153435714Y-59978571D01*
X153292857Y-60050000D01*
X152578571Y-60978571D02*
X152578571Y-59978571D01*
X152578571Y-59478571D02*
X152650000Y-59550000D01*
X152578571Y-59621428D01*
X152507142Y-59550000D01*
X152578571Y-59478571D01*
X152578571Y-59621428D01*
X151650000Y-60978571D02*
X151792857Y-60907142D01*
X151864285Y-60835714D01*
X151935714Y-60692857D01*
X151935714Y-60264285D01*
X151864285Y-60121428D01*
X151792857Y-60050000D01*
X151650000Y-59978571D01*
X151435714Y-59978571D01*
X151292857Y-60050000D01*
X151221428Y-60121428D01*
X151150000Y-60264285D01*
X151150000Y-60692857D01*
X151221428Y-60835714D01*
X151292857Y-60907142D01*
X151435714Y-60978571D01*
X151650000Y-60978571D01*
X137550000Y-59478571D02*
X137264285Y-59478571D01*
X137121428Y-59550000D01*
X136978571Y-59692857D01*
X136907142Y-59978571D01*
X136907142Y-60478571D01*
X136978571Y-60764285D01*
X137121428Y-60907142D01*
X137264285Y-60978571D01*
X137550000Y-60978571D01*
X137692857Y-60907142D01*
X137835714Y-60764285D01*
X137907142Y-60478571D01*
X137907142Y-59978571D01*
X137835714Y-59692857D01*
X137692857Y-59550000D01*
X137550000Y-59478571D01*
X135621428Y-59978571D02*
X135621428Y-60978571D01*
X136264285Y-59978571D02*
X136264285Y-60764285D01*
X136192857Y-60907142D01*
X136050000Y-60978571D01*
X135835714Y-60978571D01*
X135692857Y-60907142D01*
X135621428Y-60835714D01*
X135121428Y-59978571D02*
X134550000Y-59978571D01*
X134907142Y-59478571D02*
X134907142Y-60764285D01*
X134835714Y-60907142D01*
X134692857Y-60978571D01*
X134550000Y-60978571D01*
D10*
X153052380Y-86738095D02*
X153861904Y-86738095D01*
X153957142Y-86785714D01*
X154004761Y-86833333D01*
X154052380Y-86928571D01*
X154052380Y-87119047D01*
X154004761Y-87214285D01*
X153957142Y-87261904D01*
X153861904Y-87309523D01*
X153052380Y-87309523D01*
X153147619Y-87738095D02*
X153100000Y-87785714D01*
X153052380Y-87880952D01*
X153052380Y-88119047D01*
X153100000Y-88214285D01*
X153147619Y-88261904D01*
X153242857Y-88309523D01*
X153338095Y-88309523D01*
X153480952Y-88261904D01*
X154052380Y-87690476D01*
X154052380Y-88309523D01*
X141861904Y-87452380D02*
X141290476Y-87452380D01*
X141576190Y-88452380D02*
X141576190Y-87452380D01*
X140957142Y-88452380D02*
X140957142Y-87452380D01*
X140576190Y-87452380D01*
X140480952Y-87500000D01*
X140433333Y-87547619D01*
X140385714Y-87642857D01*
X140385714Y-87785714D01*
X140433333Y-87880952D01*
X140480952Y-87928571D01*
X140576190Y-87976190D01*
X140957142Y-87976190D01*
X139814285Y-87880952D02*
X139909523Y-87833333D01*
X139957142Y-87785714D01*
X140004761Y-87690476D01*
X140004761Y-87642857D01*
X139957142Y-87547619D01*
X139909523Y-87500000D01*
X139814285Y-87452380D01*
X139623809Y-87452380D01*
X139528571Y-87500000D01*
X139480952Y-87547619D01*
X139433333Y-87642857D01*
X139433333Y-87690476D01*
X139480952Y-87785714D01*
X139528571Y-87833333D01*
X139623809Y-87880952D01*
X139814285Y-87880952D01*
X139909523Y-87928571D01*
X139957142Y-87976190D01*
X140004761Y-88071428D01*
X140004761Y-88261904D01*
X139957142Y-88357142D01*
X139909523Y-88404761D01*
X139814285Y-88452380D01*
X139623809Y-88452380D01*
X139528571Y-88404761D01*
X139480952Y-88357142D01*
X139433333Y-88261904D01*
X139433333Y-88071428D01*
X139480952Y-87976190D01*
X139528571Y-87928571D01*
X139623809Y-87880952D01*
X130557142Y-92157142D02*
X130604761Y-92109523D01*
X130652380Y-91966666D01*
X130652380Y-91871428D01*
X130604761Y-91728571D01*
X130509523Y-91633333D01*
X130414285Y-91585714D01*
X130223809Y-91538095D01*
X130080952Y-91538095D01*
X129890476Y-91585714D01*
X129795238Y-91633333D01*
X129700000Y-91728571D01*
X129652380Y-91871428D01*
X129652380Y-91966666D01*
X129700000Y-92109523D01*
X129747619Y-92157142D01*
X130652380Y-93109523D02*
X130652380Y-92538095D01*
X130652380Y-92823809D02*
X129652380Y-92823809D01*
X129795238Y-92728571D01*
X129890476Y-92633333D01*
X129938095Y-92538095D01*
X129652380Y-93966666D02*
X129652380Y-93776190D01*
X129700000Y-93680952D01*
X129747619Y-93633333D01*
X129890476Y-93538095D01*
X130080952Y-93490476D01*
X130461904Y-93490476D01*
X130557142Y-93538095D01*
X130604761Y-93585714D01*
X130652380Y-93680952D01*
X130652380Y-93871428D01*
X130604761Y-93966666D01*
X130557142Y-94014285D01*
X130461904Y-94061904D01*
X130223809Y-94061904D01*
X130128571Y-94014285D01*
X130080952Y-93966666D01*
X130033333Y-93871428D01*
X130033333Y-93680952D01*
X130080952Y-93585714D01*
X130128571Y-93538095D01*
X130223809Y-93490476D01*
X162057142Y-78995833D02*
X162104761Y-78948214D01*
X162152380Y-78805357D01*
X162152380Y-78710119D01*
X162104761Y-78567261D01*
X162009523Y-78472023D01*
X161914285Y-78424404D01*
X161723809Y-78376785D01*
X161580952Y-78376785D01*
X161390476Y-78424404D01*
X161295238Y-78472023D01*
X161200000Y-78567261D01*
X161152380Y-78710119D01*
X161152380Y-78805357D01*
X161200000Y-78948214D01*
X161247619Y-78995833D01*
X161152380Y-79329166D02*
X161152380Y-79995833D01*
X162152380Y-79567261D01*
X185472380Y-106883333D02*
X184996190Y-106550000D01*
X185472380Y-106311904D02*
X184472380Y-106311904D01*
X184472380Y-106692857D01*
X184520000Y-106788095D01*
X184567619Y-106835714D01*
X184662857Y-106883333D01*
X184805714Y-106883333D01*
X184900952Y-106835714D01*
X184948571Y-106788095D01*
X184996190Y-106692857D01*
X184996190Y-106311904D01*
X184472380Y-107788095D02*
X184472380Y-107311904D01*
X184948571Y-107264285D01*
X184900952Y-107311904D01*
X184853333Y-107407142D01*
X184853333Y-107645238D01*
X184900952Y-107740476D01*
X184948571Y-107788095D01*
X185043809Y-107835714D01*
X185281904Y-107835714D01*
X185377142Y-107788095D01*
X185424761Y-107740476D01*
X185472380Y-107645238D01*
X185472380Y-107407142D01*
X185424761Y-107311904D01*
X185377142Y-107264285D01*
X103007580Y-72883333D02*
X102531390Y-72550000D01*
X103007580Y-72311904D02*
X102007580Y-72311904D01*
X102007580Y-72692857D01*
X102055200Y-72788095D01*
X102102819Y-72835714D01*
X102198057Y-72883333D01*
X102340914Y-72883333D01*
X102436152Y-72835714D01*
X102483771Y-72788095D01*
X102531390Y-72692857D01*
X102531390Y-72311904D01*
X102007580Y-73740476D02*
X102007580Y-73550000D01*
X102055200Y-73454761D01*
X102102819Y-73407142D01*
X102245676Y-73311904D01*
X102436152Y-73264285D01*
X102817104Y-73264285D01*
X102912342Y-73311904D01*
X102959961Y-73359523D01*
X103007580Y-73454761D01*
X103007580Y-73645238D01*
X102959961Y-73740476D01*
X102912342Y-73788095D01*
X102817104Y-73835714D01*
X102579009Y-73835714D01*
X102483771Y-73788095D01*
X102436152Y-73740476D01*
X102388533Y-73645238D01*
X102388533Y-73454761D01*
X102436152Y-73359523D01*
X102483771Y-73311904D01*
X102579009Y-73264285D01*
X147277142Y-72419642D02*
X147324761Y-72372023D01*
X147372380Y-72229166D01*
X147372380Y-72133928D01*
X147324761Y-71991071D01*
X147229523Y-71895833D01*
X147134285Y-71848214D01*
X146943809Y-71800595D01*
X146800952Y-71800595D01*
X146610476Y-71848214D01*
X146515238Y-71895833D01*
X146420000Y-71991071D01*
X146372380Y-72133928D01*
X146372380Y-72229166D01*
X146420000Y-72372023D01*
X146467619Y-72419642D01*
X147372380Y-73372023D02*
X147372380Y-72800595D01*
X147372380Y-73086309D02*
X146372380Y-73086309D01*
X146515238Y-72991071D01*
X146610476Y-72895833D01*
X146658095Y-72800595D01*
X146372380Y-74276785D02*
X146372380Y-73800595D01*
X146848571Y-73752976D01*
X146800952Y-73800595D01*
X146753333Y-73895833D01*
X146753333Y-74133928D01*
X146800952Y-74229166D01*
X146848571Y-74276785D01*
X146943809Y-74324404D01*
X147181904Y-74324404D01*
X147277142Y-74276785D01*
X147324761Y-74229166D01*
X147372380Y-74133928D01*
X147372380Y-73895833D01*
X147324761Y-73800595D01*
X147277142Y-73752976D01*
X205957142Y-97357142D02*
X206004761Y-97309523D01*
X206052380Y-97166666D01*
X206052380Y-97071428D01*
X206004761Y-96928571D01*
X205909523Y-96833333D01*
X205814285Y-96785714D01*
X205623809Y-96738095D01*
X205480952Y-96738095D01*
X205290476Y-96785714D01*
X205195238Y-96833333D01*
X205100000Y-96928571D01*
X205052380Y-97071428D01*
X205052380Y-97166666D01*
X205100000Y-97309523D01*
X205147619Y-97357142D01*
X206052380Y-98309523D02*
X206052380Y-97738095D01*
X206052380Y-98023809D02*
X205052380Y-98023809D01*
X205195238Y-97928571D01*
X205290476Y-97833333D01*
X205338095Y-97738095D01*
X206052380Y-99261904D02*
X206052380Y-98690476D01*
X206052380Y-98976190D02*
X205052380Y-98976190D01*
X205195238Y-98880952D01*
X205290476Y-98785714D01*
X205338095Y-98690476D01*
X205937142Y-90019642D02*
X205984761Y-89972023D01*
X206032380Y-89829166D01*
X206032380Y-89733928D01*
X205984761Y-89591071D01*
X205889523Y-89495833D01*
X205794285Y-89448214D01*
X205603809Y-89400595D01*
X205460952Y-89400595D01*
X205270476Y-89448214D01*
X205175238Y-89495833D01*
X205080000Y-89591071D01*
X205032380Y-89733928D01*
X205032380Y-89829166D01*
X205080000Y-89972023D01*
X205127619Y-90019642D01*
X206032380Y-90972023D02*
X206032380Y-90400595D01*
X206032380Y-90686309D02*
X205032380Y-90686309D01*
X205175238Y-90591071D01*
X205270476Y-90495833D01*
X205318095Y-90400595D01*
X205127619Y-91352976D02*
X205080000Y-91400595D01*
X205032380Y-91495833D01*
X205032380Y-91733928D01*
X205080000Y-91829166D01*
X205127619Y-91876785D01*
X205222857Y-91924404D01*
X205318095Y-91924404D01*
X205460952Y-91876785D01*
X206032380Y-91305357D01*
X206032380Y-91924404D01*
X165657142Y-78519642D02*
X165704761Y-78472023D01*
X165752380Y-78329166D01*
X165752380Y-78233928D01*
X165704761Y-78091071D01*
X165609523Y-77995833D01*
X165514285Y-77948214D01*
X165323809Y-77900595D01*
X165180952Y-77900595D01*
X164990476Y-77948214D01*
X164895238Y-77995833D01*
X164800000Y-78091071D01*
X164752380Y-78233928D01*
X164752380Y-78329166D01*
X164800000Y-78472023D01*
X164847619Y-78519642D01*
X165752380Y-79472023D02*
X165752380Y-78900595D01*
X165752380Y-79186309D02*
X164752380Y-79186309D01*
X164895238Y-79091071D01*
X164990476Y-78995833D01*
X165038095Y-78900595D01*
X164752380Y-80091071D02*
X164752380Y-80186309D01*
X164800000Y-80281547D01*
X164847619Y-80329166D01*
X164942857Y-80376785D01*
X165133333Y-80424404D01*
X165371428Y-80424404D01*
X165561904Y-80376785D01*
X165657142Y-80329166D01*
X165704761Y-80281547D01*
X165752380Y-80186309D01*
X165752380Y-80091071D01*
X165704761Y-79995833D01*
X165657142Y-79948214D01*
X165561904Y-79900595D01*
X165371428Y-79852976D01*
X165133333Y-79852976D01*
X164942857Y-79900595D01*
X164847619Y-79948214D01*
X164800000Y-79995833D01*
X164752380Y-80091071D01*
X168472380Y-91583333D02*
X167996190Y-91250000D01*
X168472380Y-91011904D02*
X167472380Y-91011904D01*
X167472380Y-91392857D01*
X167520000Y-91488095D01*
X167567619Y-91535714D01*
X167662857Y-91583333D01*
X167805714Y-91583333D01*
X167900952Y-91535714D01*
X167948571Y-91488095D01*
X167996190Y-91392857D01*
X167996190Y-91011904D01*
X167900952Y-92154761D02*
X167853333Y-92059523D01*
X167805714Y-92011904D01*
X167710476Y-91964285D01*
X167662857Y-91964285D01*
X167567619Y-92011904D01*
X167520000Y-92059523D01*
X167472380Y-92154761D01*
X167472380Y-92345238D01*
X167520000Y-92440476D01*
X167567619Y-92488095D01*
X167662857Y-92535714D01*
X167710476Y-92535714D01*
X167805714Y-92488095D01*
X167853333Y-92440476D01*
X167900952Y-92345238D01*
X167900952Y-92154761D01*
X167948571Y-92059523D01*
X167996190Y-92011904D01*
X168091428Y-91964285D01*
X168281904Y-91964285D01*
X168377142Y-92011904D01*
X168424761Y-92059523D01*
X168472380Y-92154761D01*
X168472380Y-92345238D01*
X168424761Y-92440476D01*
X168377142Y-92488095D01*
X168281904Y-92535714D01*
X168091428Y-92535714D01*
X167996190Y-92488095D01*
X167948571Y-92440476D01*
X167900952Y-92345238D01*
X116977780Y-97065542D02*
X116501590Y-96732209D01*
X116977780Y-96494114D02*
X115977780Y-96494114D01*
X115977780Y-96875066D01*
X116025400Y-96970304D01*
X116073019Y-97017923D01*
X116168257Y-97065542D01*
X116311114Y-97065542D01*
X116406352Y-97017923D01*
X116453971Y-96970304D01*
X116501590Y-96875066D01*
X116501590Y-96494114D01*
X116977780Y-98017923D02*
X116977780Y-97446495D01*
X116977780Y-97732209D02*
X115977780Y-97732209D01*
X116120638Y-97636971D01*
X116215876Y-97541733D01*
X116263495Y-97446495D01*
X116073019Y-98398876D02*
X116025400Y-98446495D01*
X115977780Y-98541733D01*
X115977780Y-98779828D01*
X116025400Y-98875066D01*
X116073019Y-98922685D01*
X116168257Y-98970304D01*
X116263495Y-98970304D01*
X116406352Y-98922685D01*
X116977780Y-98351257D01*
X116977780Y-98970304D01*
X128719420Y-72407142D02*
X128243230Y-72073809D01*
X128719420Y-71835714D02*
X127719420Y-71835714D01*
X127719420Y-72216666D01*
X127767040Y-72311904D01*
X127814659Y-72359523D01*
X127909897Y-72407142D01*
X128052754Y-72407142D01*
X128147992Y-72359523D01*
X128195611Y-72311904D01*
X128243230Y-72216666D01*
X128243230Y-71835714D01*
X128719420Y-73359523D02*
X128719420Y-72788095D01*
X128719420Y-73073809D02*
X127719420Y-73073809D01*
X127862278Y-72978571D01*
X127957516Y-72883333D01*
X128005135Y-72788095D01*
X128052754Y-74216666D02*
X128719420Y-74216666D01*
X127671801Y-73978571D02*
X128386087Y-73740476D01*
X128386087Y-74359523D01*
X142734504Y-81436980D02*
X142163076Y-81436980D01*
X142448790Y-82436980D02*
X142448790Y-81436980D01*
X141829742Y-82436980D02*
X141829742Y-81436980D01*
X141448790Y-81436980D01*
X141353552Y-81484600D01*
X141305933Y-81532219D01*
X141258314Y-81627457D01*
X141258314Y-81770314D01*
X141305933Y-81865552D01*
X141353552Y-81913171D01*
X141448790Y-81960790D01*
X141829742Y-81960790D01*
X140353552Y-81436980D02*
X140829742Y-81436980D01*
X140877361Y-81913171D01*
X140829742Y-81865552D01*
X140734504Y-81817933D01*
X140496409Y-81817933D01*
X140401171Y-81865552D01*
X140353552Y-81913171D01*
X140305933Y-82008409D01*
X140305933Y-82246504D01*
X140353552Y-82341742D01*
X140401171Y-82389361D01*
X140496409Y-82436980D01*
X140734504Y-82436980D01*
X140829742Y-82389361D01*
X140877361Y-82341742D01*
X199772380Y-106883333D02*
X199296190Y-106550000D01*
X199772380Y-106311904D02*
X198772380Y-106311904D01*
X198772380Y-106692857D01*
X198820000Y-106788095D01*
X198867619Y-106835714D01*
X198962857Y-106883333D01*
X199105714Y-106883333D01*
X199200952Y-106835714D01*
X199248571Y-106788095D01*
X199296190Y-106692857D01*
X199296190Y-106311904D01*
X198867619Y-107264285D02*
X198820000Y-107311904D01*
X198772380Y-107407142D01*
X198772380Y-107645238D01*
X198820000Y-107740476D01*
X198867619Y-107788095D01*
X198962857Y-107835714D01*
X199058095Y-107835714D01*
X199200952Y-107788095D01*
X199772380Y-107216666D01*
X199772380Y-107835714D01*
X168552380Y-113483333D02*
X168076190Y-113150000D01*
X168552380Y-112911904D02*
X167552380Y-112911904D01*
X167552380Y-113292857D01*
X167600000Y-113388095D01*
X167647619Y-113435714D01*
X167742857Y-113483333D01*
X167885714Y-113483333D01*
X167980952Y-113435714D01*
X168028571Y-113388095D01*
X168076190Y-113292857D01*
X168076190Y-112911904D01*
X167552380Y-113816666D02*
X167552380Y-114483333D01*
X168552380Y-114054761D01*
X192622380Y-106883333D02*
X192146190Y-106550000D01*
X192622380Y-106311904D02*
X191622380Y-106311904D01*
X191622380Y-106692857D01*
X191670000Y-106788095D01*
X191717619Y-106835714D01*
X191812857Y-106883333D01*
X191955714Y-106883333D01*
X192050952Y-106835714D01*
X192098571Y-106788095D01*
X192146190Y-106692857D01*
X192146190Y-106311904D01*
X191622380Y-107216666D02*
X191622380Y-107835714D01*
X192003333Y-107502380D01*
X192003333Y-107645238D01*
X192050952Y-107740476D01*
X192098571Y-107788095D01*
X192193809Y-107835714D01*
X192431904Y-107835714D01*
X192527142Y-107788095D01*
X192574761Y-107740476D01*
X192622380Y-107645238D01*
X192622380Y-107359523D01*
X192574761Y-107264285D01*
X192527142Y-107216666D01*
X118091666Y-60431619D02*
X118091666Y-59717333D01*
X118044047Y-59574476D01*
X117948809Y-59479238D01*
X117805952Y-59431619D01*
X117710714Y-59431619D01*
X118996428Y-60098285D02*
X118996428Y-59431619D01*
X118758333Y-60479238D02*
X118520238Y-59764952D01*
X119139285Y-59764952D01*
X127089285Y-66281619D02*
X127660714Y-66281619D01*
X127375000Y-65281619D02*
X127375000Y-66281619D01*
X121839285Y-63829238D02*
X121982142Y-63781619D01*
X122220238Y-63781619D01*
X122315476Y-63829238D01*
X122363095Y-63876857D01*
X122410714Y-63972095D01*
X122410714Y-64067333D01*
X122363095Y-64162571D01*
X122315476Y-64210190D01*
X122220238Y-64257809D01*
X122029761Y-64305428D01*
X121934523Y-64353047D01*
X121886904Y-64400666D01*
X121839285Y-64495904D01*
X121839285Y-64591142D01*
X121886904Y-64686380D01*
X121934523Y-64734000D01*
X122029761Y-64781619D01*
X122267857Y-64781619D01*
X122410714Y-64734000D01*
X117434523Y-65281619D02*
X117101190Y-65757809D01*
X116863095Y-65281619D02*
X116863095Y-66281619D01*
X117244047Y-66281619D01*
X117339285Y-66234000D01*
X117386904Y-66186380D01*
X117434523Y-66091142D01*
X117434523Y-65948285D01*
X117386904Y-65853047D01*
X117339285Y-65805428D01*
X117244047Y-65757809D01*
X116863095Y-65757809D01*
X144677142Y-90370833D02*
X144724761Y-90323214D01*
X144772380Y-90180357D01*
X144772380Y-90085119D01*
X144724761Y-89942261D01*
X144629523Y-89847023D01*
X144534285Y-89799404D01*
X144343809Y-89751785D01*
X144200952Y-89751785D01*
X144010476Y-89799404D01*
X143915238Y-89847023D01*
X143820000Y-89942261D01*
X143772380Y-90085119D01*
X143772380Y-90180357D01*
X143820000Y-90323214D01*
X143867619Y-90370833D01*
X144105714Y-91227976D02*
X144772380Y-91227976D01*
X143724761Y-90989880D02*
X144439047Y-90751785D01*
X144439047Y-91370833D01*
X100095238Y-89252380D02*
X100428571Y-88776190D01*
X100666666Y-89252380D02*
X100666666Y-88252380D01*
X100285714Y-88252380D01*
X100190476Y-88300000D01*
X100142857Y-88347619D01*
X100095238Y-88442857D01*
X100095238Y-88585714D01*
X100142857Y-88680952D01*
X100190476Y-88728571D01*
X100285714Y-88776190D01*
X100666666Y-88776190D01*
X99809523Y-88252380D02*
X99476190Y-89252380D01*
X99142857Y-88252380D01*
X98285714Y-89252380D02*
X98857142Y-89252380D01*
X98571428Y-89252380D02*
X98571428Y-88252380D01*
X98666666Y-88395238D01*
X98761904Y-88490476D01*
X98857142Y-88538095D01*
X152152380Y-72933333D02*
X151676190Y-72600000D01*
X152152380Y-72361904D02*
X151152380Y-72361904D01*
X151152380Y-72742857D01*
X151200000Y-72838095D01*
X151247619Y-72885714D01*
X151342857Y-72933333D01*
X151485714Y-72933333D01*
X151580952Y-72885714D01*
X151628571Y-72838095D01*
X151676190Y-72742857D01*
X151676190Y-72361904D01*
X151485714Y-73790476D02*
X152152380Y-73790476D01*
X151104761Y-73552380D02*
X151819047Y-73314285D01*
X151819047Y-73933333D01*
X135232380Y-72407142D02*
X134756190Y-72073809D01*
X135232380Y-71835714D02*
X134232380Y-71835714D01*
X134232380Y-72216666D01*
X134280000Y-72311904D01*
X134327619Y-72359523D01*
X134422857Y-72407142D01*
X134565714Y-72407142D01*
X134660952Y-72359523D01*
X134708571Y-72311904D01*
X134756190Y-72216666D01*
X134756190Y-71835714D01*
X135232380Y-73359523D02*
X135232380Y-72788095D01*
X135232380Y-73073809D02*
X134232380Y-73073809D01*
X134375238Y-72978571D01*
X134470476Y-72883333D01*
X134518095Y-72788095D01*
X135232380Y-74311904D02*
X135232380Y-73740476D01*
X135232380Y-74026190D02*
X134232380Y-74026190D01*
X134375238Y-73930952D01*
X134470476Y-73835714D01*
X134518095Y-73740476D01*
X157447380Y-103966666D02*
X158161666Y-103966666D01*
X158304523Y-103919047D01*
X158399761Y-103823809D01*
X158447380Y-103680952D01*
X158447380Y-103585714D01*
X157447380Y-104871428D02*
X157447380Y-104680952D01*
X157495000Y-104585714D01*
X157542619Y-104538095D01*
X157685476Y-104442857D01*
X157875952Y-104395238D01*
X158256904Y-104395238D01*
X158352142Y-104442857D01*
X158399761Y-104490476D01*
X158447380Y-104585714D01*
X158447380Y-104776190D01*
X158399761Y-104871428D01*
X158352142Y-104919047D01*
X158256904Y-104966666D01*
X158018809Y-104966666D01*
X157923571Y-104919047D01*
X157875952Y-104871428D01*
X157828333Y-104776190D01*
X157828333Y-104585714D01*
X157875952Y-104490476D01*
X157923571Y-104442857D01*
X158018809Y-104395238D01*
X157697142Y-93994642D02*
X157744761Y-93947023D01*
X157792380Y-93804166D01*
X157792380Y-93708928D01*
X157744761Y-93566071D01*
X157649523Y-93470833D01*
X157554285Y-93423214D01*
X157363809Y-93375595D01*
X157220952Y-93375595D01*
X157030476Y-93423214D01*
X156935238Y-93470833D01*
X156840000Y-93566071D01*
X156792380Y-93708928D01*
X156792380Y-93804166D01*
X156840000Y-93947023D01*
X156887619Y-93994642D01*
X157792380Y-94947023D02*
X157792380Y-94375595D01*
X157792380Y-94661309D02*
X156792380Y-94661309D01*
X156935238Y-94566071D01*
X157030476Y-94470833D01*
X157078095Y-94375595D01*
X156792380Y-95280357D02*
X156792380Y-95899404D01*
X157173333Y-95566071D01*
X157173333Y-95708928D01*
X157220952Y-95804166D01*
X157268571Y-95851785D01*
X157363809Y-95899404D01*
X157601904Y-95899404D01*
X157697142Y-95851785D01*
X157744761Y-95804166D01*
X157792380Y-95708928D01*
X157792380Y-95423214D01*
X157744761Y-95327976D01*
X157697142Y-95280357D01*
X148199404Y-86902380D02*
X148199404Y-87711904D01*
X148151785Y-87807142D01*
X148104166Y-87854761D01*
X148008928Y-87902380D01*
X147818452Y-87902380D01*
X147723214Y-87854761D01*
X147675595Y-87807142D01*
X147627976Y-87711904D01*
X147627976Y-86902380D01*
X146627976Y-87902380D02*
X147199404Y-87902380D01*
X146913690Y-87902380D02*
X146913690Y-86902380D01*
X147008928Y-87045238D01*
X147104166Y-87140476D01*
X147199404Y-87188095D01*
X148377142Y-90370833D02*
X148424761Y-90323214D01*
X148472380Y-90180357D01*
X148472380Y-90085119D01*
X148424761Y-89942261D01*
X148329523Y-89847023D01*
X148234285Y-89799404D01*
X148043809Y-89751785D01*
X147900952Y-89751785D01*
X147710476Y-89799404D01*
X147615238Y-89847023D01*
X147520000Y-89942261D01*
X147472380Y-90085119D01*
X147472380Y-90180357D01*
X147520000Y-90323214D01*
X147567619Y-90370833D01*
X147472380Y-91275595D02*
X147472380Y-90799404D01*
X147948571Y-90751785D01*
X147900952Y-90799404D01*
X147853333Y-90894642D01*
X147853333Y-91132738D01*
X147900952Y-91227976D01*
X147948571Y-91275595D01*
X148043809Y-91323214D01*
X148281904Y-91323214D01*
X148377142Y-91275595D01*
X148424761Y-91227976D01*
X148472380Y-91132738D01*
X148472380Y-90894642D01*
X148424761Y-90799404D01*
X148377142Y-90751785D01*
X108452380Y-85038095D02*
X109261904Y-85038095D01*
X109357142Y-85085714D01*
X109404761Y-85133333D01*
X109452380Y-85228571D01*
X109452380Y-85419047D01*
X109404761Y-85514285D01*
X109357142Y-85561904D01*
X109261904Y-85609523D01*
X108452380Y-85609523D01*
X108785714Y-86514285D02*
X109452380Y-86514285D01*
X108404761Y-86276190D02*
X109119047Y-86038095D01*
X109119047Y-86657142D01*
X109452380Y-72311904D02*
X108452380Y-72311904D01*
X108452380Y-72550000D01*
X108500000Y-72692857D01*
X108595238Y-72788095D01*
X108690476Y-72835714D01*
X108880952Y-72883333D01*
X109023809Y-72883333D01*
X109214285Y-72835714D01*
X109309523Y-72788095D01*
X109404761Y-72692857D01*
X109452380Y-72550000D01*
X109452380Y-72311904D01*
X109452380Y-73835714D02*
X109452380Y-73264285D01*
X109452380Y-73550000D02*
X108452380Y-73550000D01*
X108595238Y-73454761D01*
X108690476Y-73359523D01*
X108738095Y-73264285D01*
X144357142Y-78933333D02*
X144404761Y-78885714D01*
X144452380Y-78742857D01*
X144452380Y-78647619D01*
X144404761Y-78504761D01*
X144309523Y-78409523D01*
X144214285Y-78361904D01*
X144023809Y-78314285D01*
X143880952Y-78314285D01*
X143690476Y-78361904D01*
X143595238Y-78409523D01*
X143500000Y-78504761D01*
X143452380Y-78647619D01*
X143452380Y-78742857D01*
X143500000Y-78885714D01*
X143547619Y-78933333D01*
X144452380Y-79885714D02*
X144452380Y-79314285D01*
X144452380Y-79600000D02*
X143452380Y-79600000D01*
X143595238Y-79504761D01*
X143690476Y-79409523D01*
X143738095Y-79314285D01*
X132188666Y-60431619D02*
X132188666Y-59717333D01*
X132141047Y-59574476D01*
X132045809Y-59479238D01*
X131902952Y-59431619D01*
X131807714Y-59431619D01*
X133141047Y-60431619D02*
X132664857Y-60431619D01*
X132617238Y-59955428D01*
X132664857Y-60003047D01*
X132760095Y-60050666D01*
X132998190Y-60050666D01*
X133093428Y-60003047D01*
X133141047Y-59955428D01*
X133188666Y-59860190D01*
X133188666Y-59622095D01*
X133141047Y-59526857D01*
X133093428Y-59479238D01*
X132998190Y-59431619D01*
X132760095Y-59431619D01*
X132664857Y-59479238D01*
X132617238Y-59526857D01*
X131531523Y-65281619D02*
X131198190Y-65757809D01*
X130960095Y-65281619D02*
X130960095Y-66281619D01*
X131341047Y-66281619D01*
X131436285Y-66234000D01*
X131483904Y-66186380D01*
X131531523Y-66091142D01*
X131531523Y-65948285D01*
X131483904Y-65853047D01*
X131436285Y-65805428D01*
X131341047Y-65757809D01*
X130960095Y-65757809D01*
X135936285Y-63829238D02*
X136079142Y-63781619D01*
X136317238Y-63781619D01*
X136412476Y-63829238D01*
X136460095Y-63876857D01*
X136507714Y-63972095D01*
X136507714Y-64067333D01*
X136460095Y-64162571D01*
X136412476Y-64210190D01*
X136317238Y-64257809D01*
X136126761Y-64305428D01*
X136031523Y-64353047D01*
X135983904Y-64400666D01*
X135936285Y-64495904D01*
X135936285Y-64591142D01*
X135983904Y-64686380D01*
X136031523Y-64734000D01*
X136126761Y-64781619D01*
X136364857Y-64781619D01*
X136507714Y-64734000D01*
X141186285Y-66281619D02*
X141757714Y-66281619D01*
X141472000Y-65281619D02*
X141472000Y-66281619D01*
X126424404Y-89852380D02*
X126424404Y-90661904D01*
X126376785Y-90757142D01*
X126329166Y-90804761D01*
X126233928Y-90852380D01*
X126043452Y-90852380D01*
X125948214Y-90804761D01*
X125900595Y-90757142D01*
X125852976Y-90661904D01*
X125852976Y-89852380D01*
X125472023Y-89852380D02*
X124852976Y-89852380D01*
X125186309Y-90233333D01*
X125043452Y-90233333D01*
X124948214Y-90280952D01*
X124900595Y-90328571D01*
X124852976Y-90423809D01*
X124852976Y-90661904D01*
X124900595Y-90757142D01*
X124948214Y-90804761D01*
X125043452Y-90852380D01*
X125329166Y-90852380D01*
X125424404Y-90804761D01*
X125472023Y-90757142D01*
X151390474Y-79033333D02*
X151438093Y-78985714D01*
X151485712Y-78842857D01*
X151485712Y-78747619D01*
X151438093Y-78604761D01*
X151342855Y-78509523D01*
X151247617Y-78461904D01*
X151057141Y-78414285D01*
X150914284Y-78414285D01*
X150723808Y-78461904D01*
X150628570Y-78509523D01*
X150533332Y-78604761D01*
X150485712Y-78747619D01*
X150485712Y-78842857D01*
X150533332Y-78985714D01*
X150580951Y-79033333D01*
X150485712Y-79366666D02*
X150485712Y-79985714D01*
X150866665Y-79652380D01*
X150866665Y-79795238D01*
X150914284Y-79890476D01*
X150961903Y-79938095D01*
X151057141Y-79985714D01*
X151295236Y-79985714D01*
X151390474Y-79938095D01*
X151438093Y-79890476D01*
X151485712Y-79795238D01*
X151485712Y-79509523D01*
X151438093Y-79414285D01*
X151390474Y-79366666D01*
X103994666Y-60431619D02*
X103994666Y-59717333D01*
X103947047Y-59574476D01*
X103851809Y-59479238D01*
X103708952Y-59431619D01*
X103613714Y-59431619D01*
X104423238Y-60336380D02*
X104470857Y-60384000D01*
X104566095Y-60431619D01*
X104804190Y-60431619D01*
X104899428Y-60384000D01*
X104947047Y-60336380D01*
X104994666Y-60241142D01*
X104994666Y-60145904D01*
X104947047Y-60003047D01*
X104375619Y-59431619D01*
X104994666Y-59431619D01*
X103337523Y-65281619D02*
X103004190Y-65757809D01*
X102766095Y-65281619D02*
X102766095Y-66281619D01*
X103147047Y-66281619D01*
X103242285Y-66234000D01*
X103289904Y-66186380D01*
X103337523Y-66091142D01*
X103337523Y-65948285D01*
X103289904Y-65853047D01*
X103242285Y-65805428D01*
X103147047Y-65757809D01*
X102766095Y-65757809D01*
X112992285Y-66281619D02*
X113563714Y-66281619D01*
X113278000Y-65281619D02*
X113278000Y-66281619D01*
X107742285Y-63829238D02*
X107885142Y-63781619D01*
X108123238Y-63781619D01*
X108218476Y-63829238D01*
X108266095Y-63876857D01*
X108313714Y-63972095D01*
X108313714Y-64067333D01*
X108266095Y-64162571D01*
X108218476Y-64210190D01*
X108123238Y-64257809D01*
X107932761Y-64305428D01*
X107837523Y-64353047D01*
X107789904Y-64400666D01*
X107742285Y-64495904D01*
X107742285Y-64591142D01*
X107789904Y-64686380D01*
X107837523Y-64734000D01*
X107932761Y-64781619D01*
X108170857Y-64781619D01*
X108313714Y-64734000D01*
X168472380Y-85333333D02*
X167996190Y-85000000D01*
X168472380Y-84761904D02*
X167472380Y-84761904D01*
X167472380Y-85142857D01*
X167520000Y-85238095D01*
X167567619Y-85285714D01*
X167662857Y-85333333D01*
X167805714Y-85333333D01*
X167900952Y-85285714D01*
X167948571Y-85238095D01*
X167996190Y-85142857D01*
X167996190Y-84761904D01*
X168472380Y-85809523D02*
X168472380Y-86000000D01*
X168424761Y-86095238D01*
X168377142Y-86142857D01*
X168234285Y-86238095D01*
X168043809Y-86285714D01*
X167662857Y-86285714D01*
X167567619Y-86238095D01*
X167520000Y-86190476D01*
X167472380Y-86095238D01*
X167472380Y-85904761D01*
X167520000Y-85809523D01*
X167567619Y-85761904D01*
X167662857Y-85714285D01*
X167900952Y-85714285D01*
X167996190Y-85761904D01*
X168043809Y-85809523D01*
X168091428Y-85904761D01*
X168091428Y-86095238D01*
X168043809Y-86190476D01*
X167996190Y-86238095D01*
X167900952Y-86285714D01*
X153161904Y-88652380D02*
X152590476Y-88652380D01*
X152876190Y-89652380D02*
X152876190Y-88652380D01*
X152257142Y-89652380D02*
X152257142Y-88652380D01*
X151876190Y-88652380D01*
X151780952Y-88700000D01*
X151733333Y-88747619D01*
X151685714Y-88842857D01*
X151685714Y-88985714D01*
X151733333Y-89080952D01*
X151780952Y-89128571D01*
X151876190Y-89176190D01*
X152257142Y-89176190D01*
X150828571Y-88652380D02*
X151019047Y-88652380D01*
X151114285Y-88700000D01*
X151161904Y-88747619D01*
X151257142Y-88890476D01*
X151304761Y-89080952D01*
X151304761Y-89461904D01*
X151257142Y-89557142D01*
X151209523Y-89604761D01*
X151114285Y-89652380D01*
X150923809Y-89652380D01*
X150828571Y-89604761D01*
X150780952Y-89557142D01*
X150733333Y-89461904D01*
X150733333Y-89223809D01*
X150780952Y-89128571D01*
X150828571Y-89080952D01*
X150923809Y-89033333D01*
X151114285Y-89033333D01*
X151209523Y-89080952D01*
X151257142Y-89128571D01*
X151304761Y-89223809D01*
X157563808Y-72407142D02*
X157611427Y-72359523D01*
X157659046Y-72216666D01*
X157659046Y-72121428D01*
X157611427Y-71978571D01*
X157516189Y-71883333D01*
X157420951Y-71835714D01*
X157230475Y-71788095D01*
X157087618Y-71788095D01*
X156897142Y-71835714D01*
X156801904Y-71883333D01*
X156706666Y-71978571D01*
X156659046Y-72121428D01*
X156659046Y-72216666D01*
X156706666Y-72359523D01*
X156754285Y-72407142D01*
X157659046Y-73359523D02*
X157659046Y-72788095D01*
X157659046Y-73073809D02*
X156659046Y-73073809D01*
X156801904Y-72978571D01*
X156897142Y-72883333D01*
X156944761Y-72788095D01*
X156992380Y-74216666D02*
X157659046Y-74216666D01*
X156611427Y-73978571D02*
X157325713Y-73740476D01*
X157325713Y-74359523D01*
X122206460Y-72407142D02*
X121730270Y-72073809D01*
X122206460Y-71835714D02*
X121206460Y-71835714D01*
X121206460Y-72216666D01*
X121254080Y-72311904D01*
X121301699Y-72359523D01*
X121396937Y-72407142D01*
X121539794Y-72407142D01*
X121635032Y-72359523D01*
X121682651Y-72311904D01*
X121730270Y-72216666D01*
X121730270Y-71835714D01*
X122206460Y-73359523D02*
X122206460Y-72788095D01*
X122206460Y-73073809D02*
X121206460Y-73073809D01*
X121349318Y-72978571D01*
X121444556Y-72883333D01*
X121492175Y-72788095D01*
X121206460Y-73978571D02*
X121206460Y-74073809D01*
X121254080Y-74169047D01*
X121301699Y-74216666D01*
X121396937Y-74264285D01*
X121587413Y-74311904D01*
X121825508Y-74311904D01*
X122015984Y-74264285D01*
X122111222Y-74216666D01*
X122158841Y-74169047D01*
X122206460Y-74073809D01*
X122206460Y-73978571D01*
X122158841Y-73883333D01*
X122111222Y-73835714D01*
X122015984Y-73788095D01*
X121825508Y-73740476D01*
X121587413Y-73740476D01*
X121396937Y-73788095D01*
X121301699Y-73835714D01*
X121254080Y-73883333D01*
X121206460Y-73978571D01*
X154957140Y-78995833D02*
X155004759Y-78948214D01*
X155052378Y-78805357D01*
X155052378Y-78710119D01*
X155004759Y-78567261D01*
X154909521Y-78472023D01*
X154814283Y-78424404D01*
X154623807Y-78376785D01*
X154480950Y-78376785D01*
X154290474Y-78424404D01*
X154195236Y-78472023D01*
X154099998Y-78567261D01*
X154052378Y-78710119D01*
X154052378Y-78805357D01*
X154099998Y-78948214D01*
X154147617Y-78995833D01*
X154480950Y-79567261D02*
X154433331Y-79472023D01*
X154385712Y-79424404D01*
X154290474Y-79376785D01*
X154242855Y-79376785D01*
X154147617Y-79424404D01*
X154099998Y-79472023D01*
X154052378Y-79567261D01*
X154052378Y-79757738D01*
X154099998Y-79852976D01*
X154147617Y-79900595D01*
X154242855Y-79948214D01*
X154290474Y-79948214D01*
X154385712Y-79900595D01*
X154433331Y-79852976D01*
X154480950Y-79757738D01*
X154480950Y-79567261D01*
X154528569Y-79472023D01*
X154576188Y-79424404D01*
X154671426Y-79376785D01*
X154861902Y-79376785D01*
X154957140Y-79424404D01*
X155004759Y-79472023D01*
X155052378Y-79567261D01*
X155052378Y-79757738D01*
X155004759Y-79852976D01*
X154957140Y-79900595D01*
X154861902Y-79948214D01*
X154671426Y-79948214D01*
X154576188Y-79900595D01*
X154528569Y-79852976D01*
X154480950Y-79757738D01*
X158523806Y-78933333D02*
X158571425Y-78885714D01*
X158619044Y-78742857D01*
X158619044Y-78647619D01*
X158571425Y-78504761D01*
X158476187Y-78409523D01*
X158380949Y-78361904D01*
X158190473Y-78314285D01*
X158047616Y-78314285D01*
X157857140Y-78361904D01*
X157761902Y-78409523D01*
X157666664Y-78504761D01*
X157619044Y-78647619D01*
X157619044Y-78742857D01*
X157666664Y-78885714D01*
X157714283Y-78933333D01*
X157619044Y-79790476D02*
X157619044Y-79600000D01*
X157666664Y-79504761D01*
X157714283Y-79457142D01*
X157857140Y-79361904D01*
X158047616Y-79314285D01*
X158428568Y-79314285D01*
X158523806Y-79361904D01*
X158571425Y-79409523D01*
X158619044Y-79504761D01*
X158619044Y-79695238D01*
X158571425Y-79790476D01*
X158523806Y-79838095D01*
X158428568Y-79885714D01*
X158190473Y-79885714D01*
X158095235Y-79838095D01*
X158047616Y-79790476D01*
X157999997Y-79695238D01*
X157999997Y-79504761D01*
X158047616Y-79409523D01*
X158095235Y-79361904D01*
X158190473Y-79314285D01*
X115693500Y-72407142D02*
X115217310Y-72073809D01*
X115693500Y-71835714D02*
X114693500Y-71835714D01*
X114693500Y-72216666D01*
X114741120Y-72311904D01*
X114788739Y-72359523D01*
X114883977Y-72407142D01*
X115026834Y-72407142D01*
X115122072Y-72359523D01*
X115169691Y-72311904D01*
X115217310Y-72216666D01*
X115217310Y-71835714D01*
X115693500Y-73359523D02*
X115693500Y-72788095D01*
X115693500Y-73073809D02*
X114693500Y-73073809D01*
X114836358Y-72978571D01*
X114931596Y-72883333D01*
X114979215Y-72788095D01*
X114693500Y-73692857D02*
X114693500Y-74311904D01*
X115074453Y-73978571D01*
X115074453Y-74121428D01*
X115122072Y-74216666D01*
X115169691Y-74264285D01*
X115264929Y-74311904D01*
X115503024Y-74311904D01*
X115598262Y-74264285D01*
X115645881Y-74216666D01*
X115693500Y-74121428D01*
X115693500Y-73835714D01*
X115645881Y-73740476D01*
X115598262Y-73692857D01*
X162552380Y-72883333D02*
X162076190Y-72550000D01*
X162552380Y-72311904D02*
X161552380Y-72311904D01*
X161552380Y-72692857D01*
X161600000Y-72788095D01*
X161647619Y-72835714D01*
X161742857Y-72883333D01*
X161885714Y-72883333D01*
X161980952Y-72835714D01*
X162028571Y-72788095D01*
X162076190Y-72692857D01*
X162076190Y-72311904D01*
X162552380Y-73835714D02*
X162552380Y-73264285D01*
X162552380Y-73550000D02*
X161552380Y-73550000D01*
X161695238Y-73454761D01*
X161790476Y-73359523D01*
X161838095Y-73264285D01*
X149791666Y-60447619D02*
X149791666Y-59733333D01*
X149744047Y-59590476D01*
X149648809Y-59495238D01*
X149505952Y-59447619D01*
X149410714Y-59447619D01*
X150791666Y-59447619D02*
X150220238Y-59447619D01*
X150505952Y-59447619D02*
X150505952Y-60447619D01*
X150410714Y-60304761D01*
X150315476Y-60209523D01*
X150220238Y-60161904D01*
X149134523Y-65297619D02*
X148801190Y-65773809D01*
X148563095Y-65297619D02*
X148563095Y-66297619D01*
X148944047Y-66297619D01*
X149039285Y-66250000D01*
X149086904Y-66202380D01*
X149134523Y-66107142D01*
X149134523Y-65964285D01*
X149086904Y-65869047D01*
X149039285Y-65821428D01*
X148944047Y-65773809D01*
X148563095Y-65773809D01*
X153539285Y-63845238D02*
X153682142Y-63797619D01*
X153920238Y-63797619D01*
X154015476Y-63845238D01*
X154063095Y-63892857D01*
X154110714Y-63988095D01*
X154110714Y-64083333D01*
X154063095Y-64178571D01*
X154015476Y-64226190D01*
X153920238Y-64273809D01*
X153729761Y-64321428D01*
X153634523Y-64369047D01*
X153586904Y-64416666D01*
X153539285Y-64511904D01*
X153539285Y-64607142D01*
X153586904Y-64702380D01*
X153634523Y-64750000D01*
X153729761Y-64797619D01*
X153967857Y-64797619D01*
X154110714Y-64750000D01*
X158789285Y-66297619D02*
X159360714Y-66297619D01*
X159075000Y-65297619D02*
X159075000Y-66297619D01*
X147914608Y-78995833D02*
X147962227Y-78948214D01*
X148009846Y-78805357D01*
X148009846Y-78710119D01*
X147962227Y-78567261D01*
X147866989Y-78472023D01*
X147771751Y-78424404D01*
X147581275Y-78376785D01*
X147438418Y-78376785D01*
X147247942Y-78424404D01*
X147152704Y-78472023D01*
X147057466Y-78567261D01*
X147009846Y-78710119D01*
X147009846Y-78805357D01*
X147057466Y-78948214D01*
X147105085Y-78995833D01*
X147105085Y-79376785D02*
X147057466Y-79424404D01*
X147009846Y-79519642D01*
X147009846Y-79757738D01*
X147057466Y-79852976D01*
X147105085Y-79900595D01*
X147200323Y-79948214D01*
X147295561Y-79948214D01*
X147438418Y-79900595D01*
X148009846Y-79329166D01*
X148009846Y-79948214D01*
X154177142Y-94470833D02*
X154224761Y-94423214D01*
X154272380Y-94280357D01*
X154272380Y-94185119D01*
X154224761Y-94042261D01*
X154129523Y-93947023D01*
X154034285Y-93899404D01*
X153843809Y-93851785D01*
X153700952Y-93851785D01*
X153510476Y-93899404D01*
X153415238Y-93947023D01*
X153320000Y-94042261D01*
X153272380Y-94185119D01*
X153272380Y-94280357D01*
X153320000Y-94423214D01*
X153367619Y-94470833D01*
X154272380Y-94947023D02*
X154272380Y-95137500D01*
X154224761Y-95232738D01*
X154177142Y-95280357D01*
X154034285Y-95375595D01*
X153843809Y-95423214D01*
X153462857Y-95423214D01*
X153367619Y-95375595D01*
X153320000Y-95327976D01*
X153272380Y-95232738D01*
X153272380Y-95042261D01*
X153320000Y-94947023D01*
X153367619Y-94899404D01*
X153462857Y-94851785D01*
X153700952Y-94851785D01*
X153796190Y-94899404D01*
X153843809Y-94947023D01*
X153891428Y-95042261D01*
X153891428Y-95232738D01*
X153843809Y-95327976D01*
X153796190Y-95375595D01*
X153700952Y-95423214D01*
D12*
X173918400Y-133372400D02*
X175248400Y-133372400D01*
X172648400Y-130772400D02*
X175248400Y-130772400D01*
X170048400Y-133372400D02*
X172648400Y-133372400D01*
X170048400Y-133372400D02*
X170048400Y-82452400D01*
X170048400Y-82452400D02*
X175248400Y-82452400D01*
X172648400Y-133372400D02*
X172648400Y-130772400D01*
X175248400Y-133372400D02*
X175248400Y-132042400D01*
X175248400Y-130772400D02*
X175248400Y-82452400D01*
X161185000Y-87500000D02*
X161185000Y-85300000D01*
X161185000Y-87500000D02*
X161185000Y-89700000D01*
X154415000Y-87500000D02*
X154415000Y-83900000D01*
X154415000Y-87500000D02*
X154415000Y-89700000D01*
X143700000Y-88000000D02*
G75*
G03*
X143700000Y-88000000I-700000J0D01*
G01*
X127811252Y-93435000D02*
X127288748Y-93435000D01*
X127811252Y-91965000D02*
X127288748Y-91965000D01*
X164168330Y-79423752D02*
X164168330Y-78901248D01*
X162698330Y-79423752D02*
X162698330Y-78901248D01*
X184110000Y-107777064D02*
X184110000Y-106322936D01*
X182290000Y-107777064D02*
X182290000Y-106322936D01*
X105285200Y-72322936D02*
X105285200Y-73777064D01*
X103465200Y-72322936D02*
X103465200Y-73777064D01*
X147865000Y-72801248D02*
X147865000Y-73323752D01*
X149335000Y-72801248D02*
X149335000Y-73323752D01*
X204635000Y-97738748D02*
X204635000Y-98261252D01*
X203165000Y-97738748D02*
X203165000Y-98261252D01*
X203165000Y-90923752D02*
X203165000Y-90401248D01*
X204635000Y-90923752D02*
X204635000Y-90401248D01*
X166265000Y-79423752D02*
X166265000Y-78901248D01*
X167735000Y-79423752D02*
X167735000Y-78901248D01*
X167110000Y-92477064D02*
X167110000Y-91022936D01*
X165290000Y-92477064D02*
X165290000Y-91022936D01*
X112572936Y-98510000D02*
X114027064Y-98510000D01*
X112572936Y-96690000D02*
X114027064Y-96690000D01*
X130997040Y-72322936D02*
X130997040Y-73777064D01*
X129177040Y-72322936D02*
X129177040Y-73777064D01*
X144500000Y-81900000D02*
G75*
G03*
X144500000Y-81900000I-700000J0D01*
G01*
X196590000Y-107777064D02*
X196590000Y-106322936D01*
X198410000Y-107777064D02*
X198410000Y-106322936D01*
X167110000Y-112972936D02*
X167110000Y-114427064D01*
X165290000Y-112972936D02*
X165290000Y-114427064D01*
X191260000Y-107777064D02*
X191260000Y-106322936D01*
X189440000Y-107777064D02*
X189440000Y-106322936D01*
X115775000Y-69484000D02*
X128625000Y-69484000D01*
X145265000Y-90276248D02*
X145265000Y-90798752D01*
X146735000Y-90276248D02*
X146735000Y-90798752D01*
X98090000Y-91260000D02*
G75*
G03*
X99400000Y-92570000I1310000J0D01*
G01*
X103400000Y-92570000D02*
G75*
G03*
X104710000Y-91260000I0J1310000D01*
G01*
X154410000Y-73827064D02*
X154410000Y-72372936D01*
X152590000Y-73827064D02*
X152590000Y-72372936D01*
X135690000Y-72322936D02*
X135690000Y-73777064D01*
X137510000Y-72322936D02*
X137510000Y-73777064D01*
X164195000Y-102970000D02*
X164195000Y-105630000D01*
X161595000Y-102970000D02*
X161595000Y-105630000D01*
X160325000Y-102970000D02*
X158995000Y-102970000D01*
X158995000Y-102970000D02*
X158995000Y-104300000D01*
X161595000Y-105630000D02*
X164195000Y-105630000D01*
X161595000Y-102970000D02*
X164195000Y-102970000D01*
X158285000Y-94376248D02*
X158285000Y-94898752D01*
X159755000Y-94376248D02*
X159755000Y-94898752D01*
X147437500Y-86610000D02*
X148237500Y-86610000D01*
X147437500Y-83490000D02*
X148237500Y-83490000D01*
X147437500Y-86610000D02*
X145637500Y-86610000D01*
X147437500Y-83490000D02*
X146637500Y-83490000D01*
X148965000Y-90276248D02*
X148965000Y-90798752D01*
X150435000Y-90276248D02*
X150435000Y-90798752D01*
X109740000Y-85850000D02*
X116860000Y-85850000D01*
X116860000Y-85850000D02*
X116860000Y-92350000D01*
X116860000Y-92350000D02*
X109740000Y-92350000D01*
X109740000Y-92350000D02*
X109740000Y-85850000D01*
X110840512Y-86650000D02*
G75*
G03*
X110840512Y-86650000I-390512J0D01*
G01*
X111568160Y-74550000D02*
X109868160Y-74550000D01*
X111568160Y-74550000D02*
X111568160Y-72000000D01*
X109868160Y-74550000D02*
X109868160Y-72000000D01*
X146335000Y-79423752D02*
X146335000Y-78901248D01*
X144865000Y-79423752D02*
X144865000Y-78901248D01*
X129872000Y-69484000D02*
X142722000Y-69484000D01*
X125662500Y-89560000D02*
X127862500Y-89560000D01*
X125662500Y-84340000D02*
X127862500Y-84340000D01*
X125662500Y-84340000D02*
X123462500Y-84340000D01*
X125662500Y-89560000D02*
X122062500Y-89560000D01*
X153468332Y-79423752D02*
X153468332Y-78901248D01*
X151998332Y-79423752D02*
X151998332Y-78901248D01*
X101678000Y-69484000D02*
X114528000Y-69484000D01*
X167110000Y-86227064D02*
X167110000Y-84772936D01*
X165290000Y-86227064D02*
X165290000Y-84772936D01*
X152600000Y-87500000D02*
G75*
G03*
X152600000Y-87500000I-700000J0D01*
G01*
X159621666Y-72788748D02*
X159621666Y-73311252D01*
X158151666Y-72788748D02*
X158151666Y-73311252D01*
X122664080Y-72322936D02*
X122664080Y-73777064D01*
X124484080Y-72322936D02*
X124484080Y-73777064D01*
X155564998Y-79423752D02*
X155564998Y-78901248D01*
X157034998Y-79423752D02*
X157034998Y-78901248D01*
X160601664Y-79423752D02*
X160601664Y-78901248D01*
X159131664Y-79423752D02*
X159131664Y-78901248D01*
X117971120Y-72322936D02*
X117971120Y-73777064D01*
X116151120Y-72322936D02*
X116151120Y-73777064D01*
X164810000Y-73777064D02*
X164810000Y-72322936D01*
X162990000Y-73777064D02*
X162990000Y-72322936D01*
X147475000Y-69500000D02*
X160325000Y-69500000D01*
X149901666Y-79423752D02*
X149901666Y-78901248D01*
X148431666Y-79423752D02*
X148431666Y-78901248D01*
X154765000Y-94376248D02*
X154765000Y-94898752D01*
X156235000Y-94376248D02*
X156235000Y-94898752D01*
%LPC*%
D13*
X164100000Y-62700000D03*
D14*
X107820000Y-124200000D03*
D15*
X112900000Y-124200000D03*
D14*
X117980000Y-124200000D03*
D16*
X115440000Y-119120000D03*
X109090000Y-121660000D03*
D17*
X97628900Y-109877200D03*
X97628900Y-78876500D03*
D18*
X103128000Y-78876500D03*
D19*
X105668000Y-78876500D03*
X108208000Y-78876500D03*
X110748000Y-78876500D03*
X113288000Y-78876500D03*
X115828000Y-78876500D03*
X118368000Y-78876500D03*
X120908000Y-78876500D03*
X123448000Y-78876500D03*
X125988000Y-78876500D03*
X128528000Y-78876500D03*
X131068000Y-78876500D03*
X133608000Y-78876500D03*
X136148000Y-78876500D03*
X138688000Y-78876500D03*
X141228000Y-78876500D03*
D20*
X197550000Y-97100000D03*
D21*
X197550000Y-92100000D03*
X197550000Y-94600000D03*
D22*
X190050000Y-100200000D03*
D23*
X190050000Y-89000000D03*
D21*
X183050000Y-92100000D03*
X183050000Y-97100000D03*
D14*
X130670000Y-124200000D03*
X140830000Y-124200000D03*
D15*
X135750000Y-124200000D03*
D16*
X138290000Y-119120000D03*
X131940000Y-121660000D03*
D13*
X97900000Y-137000000D03*
D14*
X153520000Y-124200000D03*
D15*
X158600000Y-124200000D03*
D14*
X163680000Y-124200000D03*
D16*
X161140000Y-119120000D03*
X154790000Y-121660000D03*
D13*
X172618400Y-136892400D03*
X221618400Y-78892400D03*
X172618400Y-78892400D03*
X221618400Y-136892400D03*
D24*
X173918400Y-132042400D03*
D25*
X171378400Y-132042400D03*
X173918400Y-129502400D03*
X171378400Y-129502400D03*
X173918400Y-126962400D03*
X171378400Y-126962400D03*
X173918400Y-124422400D03*
X171378400Y-124422400D03*
X173918400Y-121882400D03*
X171378400Y-121882400D03*
X173918400Y-119342400D03*
X171378400Y-119342400D03*
X173918400Y-116802400D03*
X171378400Y-116802400D03*
X173918400Y-114262400D03*
X171378400Y-114262400D03*
X173918400Y-111722400D03*
X171378400Y-111722400D03*
X173918400Y-109182400D03*
X171378400Y-109182400D03*
X173918400Y-106642400D03*
X171378400Y-106642400D03*
X173918400Y-104102400D03*
X171378400Y-104102400D03*
X173918400Y-101562400D03*
X171378400Y-101562400D03*
X173918400Y-99022400D03*
X171378400Y-99022400D03*
X173918400Y-96482400D03*
X171378400Y-96482400D03*
X173918400Y-93942400D03*
X171378400Y-93942400D03*
X173918400Y-91402400D03*
X171378400Y-91402400D03*
X173918400Y-88862400D03*
X171378400Y-88862400D03*
X173918400Y-86322400D03*
X171378400Y-86322400D03*
X173918400Y-83782400D03*
X171378400Y-83782400D03*
D13*
X97900000Y-62700000D03*
D26*
X154875000Y-84637500D03*
X155525000Y-84637500D03*
X156175000Y-84637500D03*
X156825000Y-84637500D03*
X157475000Y-84637500D03*
X158125000Y-84637500D03*
X158775000Y-84637500D03*
X159425000Y-84637500D03*
X160075000Y-84637500D03*
X160725000Y-84637500D03*
X160725000Y-90362500D03*
X160075000Y-90362500D03*
X159425000Y-90362500D03*
X158775000Y-90362500D03*
X158125000Y-90362500D03*
X157475000Y-90362500D03*
X156825000Y-90362500D03*
X156175000Y-90362500D03*
X155525000Y-90362500D03*
X154875000Y-90362500D03*
D27*
X143000000Y-88000000D03*
D28*
X128587500Y-92700000D03*
X126512500Y-92700000D03*
D29*
X163433330Y-80200000D03*
X163433330Y-78125000D03*
D30*
X183200000Y-108600000D03*
X183200000Y-105500000D03*
D31*
X104375200Y-71500000D03*
X104375200Y-74600000D03*
D32*
X148600000Y-72025000D03*
X148600000Y-74100000D03*
X203900000Y-96962500D03*
X203900000Y-99037500D03*
D29*
X203900000Y-91700000D03*
X203900000Y-89625000D03*
X167000000Y-80200000D03*
X167000000Y-78125000D03*
D30*
X166200000Y-93300000D03*
X166200000Y-90200000D03*
D33*
X111750000Y-97600000D03*
X114850000Y-97600000D03*
D31*
X130087040Y-71500000D03*
X130087040Y-74600000D03*
D27*
X143800000Y-81900000D03*
D30*
X197500000Y-108600000D03*
X197500000Y-105500000D03*
D31*
X166200000Y-112150000D03*
X166200000Y-115250000D03*
D30*
X190350000Y-108600000D03*
X190350000Y-105500000D03*
D21*
X122205000Y-62404000D03*
X117125000Y-67484000D03*
X119665000Y-67484000D03*
X124745000Y-67484000D03*
X127285000Y-67484000D03*
D32*
X146000000Y-89500000D03*
X146000000Y-91575000D03*
D20*
X103900000Y-86760000D03*
D21*
X101400000Y-91760000D03*
X98900000Y-86760000D03*
D30*
X153500000Y-74650000D03*
X153500000Y-71550000D03*
D31*
X136600000Y-71500000D03*
X136600000Y-74600000D03*
D34*
X160325000Y-104300000D03*
D25*
X162865000Y-104300000D03*
D32*
X159020000Y-93600000D03*
X159020000Y-95675000D03*
D35*
X146300000Y-86000000D03*
X146300000Y-85050000D03*
X146300000Y-84100000D03*
X148575000Y-84100000D03*
X148575000Y-86000000D03*
D32*
X149700000Y-89500000D03*
X149700000Y-91575000D03*
D36*
X110760000Y-84600000D03*
X113300000Y-84600000D03*
X115840000Y-84600000D03*
X115840000Y-93600000D03*
X113300000Y-93600000D03*
X110760000Y-93600000D03*
D37*
X110718160Y-74100000D03*
X110718160Y-72000000D03*
D29*
X145600000Y-80200000D03*
X145600000Y-78125000D03*
D21*
X136302000Y-62404000D03*
X131222000Y-67484000D03*
X133762000Y-67484000D03*
X138842000Y-67484000D03*
X141382000Y-67484000D03*
D38*
X122800000Y-88900000D03*
X122800000Y-88250000D03*
X122800000Y-87600000D03*
X122800000Y-86950000D03*
X122800000Y-86300000D03*
X122800000Y-85650000D03*
X122800000Y-85000000D03*
X128525000Y-85000000D03*
X128525000Y-85650000D03*
X128525000Y-86300000D03*
X128525000Y-86950000D03*
X128525000Y-87600000D03*
X128525000Y-88250000D03*
X128525000Y-88900000D03*
D29*
X152733332Y-80200000D03*
X152733332Y-78125000D03*
D21*
X108108000Y-62404000D03*
X103028000Y-67484000D03*
X105568000Y-67484000D03*
X110648000Y-67484000D03*
X113188000Y-67484000D03*
D30*
X166200000Y-87050000D03*
X166200000Y-83950000D03*
D27*
X151900000Y-87500000D03*
D32*
X158886666Y-72012500D03*
X158886666Y-74087500D03*
D31*
X123574080Y-71500000D03*
X123574080Y-74600000D03*
D29*
X156299998Y-80200000D03*
X156299998Y-78125000D03*
X159866664Y-80200000D03*
X159866664Y-78125000D03*
D31*
X117061120Y-71500000D03*
X117061120Y-74600000D03*
D30*
X163900000Y-74600000D03*
X163900000Y-71500000D03*
D21*
X153905000Y-62420000D03*
X148825000Y-67500000D03*
X151365000Y-67500000D03*
X156445000Y-67500000D03*
X158985000Y-67500000D03*
D29*
X149166666Y-80200000D03*
X149166666Y-78125000D03*
D32*
X155500000Y-93600000D03*
X155500000Y-95675000D03*
M02*
